<svg xmlns="http://www.w3.org/2000/svg" viewBox="0 0 693.56 992.69"><defs><style>.cls-1{opacity:0.35;}.cls-10,.cls-2{fill:#181828;}.cls-3{fill:#a8abad;}.cls-4{fill:#ffa96e;}.cls-5{fill:#ed9a5d;}.cls-6{fill:#c9ced2;}.cls-43,.cls-7{fill:#fff;}.cls-8{fill:#838789;}.cls-9{fill:#aaaaaf;}.cls-10{opacity:0.5;}.cls-11{fill:#ffd6bb;}.cls-12{fill:#dcdfe2;}.cls-13{fill:#caccce;}.cls-14{fill:#7b697f;}.cls-15{fill:#432549;}.cls-16{fill:#ffcc5a;}.cls-17{fill:#e0b151;}.cls-18{fill:#ffba31;}.cls-19{fill:#ffa403;}.cls-20{opacity:0.15;}.cls-21{fill:#e59328;}.cls-22{fill:#f7b14b;}.cls-23{fill:#d89844;}.cls-24{fill:#ffe6c7;}.cls-25{opacity:0.15;}.cls-26{fill:#1b3c47;}.cls-27{fill:#675c6c;}.cls-28{fill:#504556;}.cls-29{fill:#fe7469;}.cls-30{fill:#fdc6a2;}.cls-31{fill:#c16e5d;}.cls-32{fill:#4f3e52;}.cls-33{fill:#ac94b2;}.cls-34{fill:#e0534c;}.cls-35{fill:#ff908a;}.cls-36{fill:#181728;}.cls-37{fill:#58cbe5;}.cls-38{fill:#31a8bc;}.cls-39{fill:#dff5f7;}.cls-40,.cls-44{fill:#e89176;}.cls-40{opacity:0.62;}.cls-41{fill:#f59b79;}.cls-42{fill:#1b1b2b;}.cls-43{opacity:0.55;}.cls-45{fill:#f8c5a6;}.cls-46{fill:#af143b;}.cls-47{fill:#670118;opacity:0.4;}.cls-48{fill:#d2f2ff;}.cls-49{fill:#ff9d76;}.cls-50{fill:#e87249;}.cls-51{fill:#b3dee0;}</style></defs><title>Asset 376</title><g id="Layer_2" data-name="Layer 2"><g id="Layer_1-2" data-name="Layer 1"><g class="cls-1"><path class="cls-2" d="M645.38,87.76H512.74a1.78,1.78,0,0,1,0-3.55H645.38a1.78,1.78,0,0,1,0,3.55Z"/><path class="cls-2" d="M494.66,87.76H369a1.78,1.78,0,0,1,0-3.55H494.66a1.78,1.78,0,0,1,0,3.55Z"/><rect class="cls-3" x="592.1" y="141.49" width="18.7" height="67.77" transform="translate(1202.9 350.74) rotate(-180)"/><path class="cls-2" d="M610.8,211.26H592.1a2,2,0,0,1-2-2V141.49a2,2,0,0,1,2-2h18.7a2,2,0,0,1,2,2v67.77A2,2,0,0,1,610.8,211.26Zm-16.7-4h14.7V143.49H594.1Z"/><path class="cls-4" d="M583.35,87.74h36.19a0,0,0,0,1,0,0v49.67a18.1,18.1,0,0,1-18.1,18.1h0a18.1,18.1,0,0,1-18.1-18.1V87.74a0,0,0,0,1,0,0Z" transform="translate(1202.9 243.24) rotate(-180)"/><path class="cls-5" d="M607,89.32h.29a12,12,0,0,1,12,12v54.16a0,0,0,0,1,0,0H595a0,0,0,0,1,0,0V101.34a12,12,0,0,1,12-12Z"/><path class="cls-2" d="M619.55,157h-36.2a1.5,1.5,0,0,1-1.5-1.5V105.83a19.6,19.6,0,0,1,39.2,0v49.68A1.5,1.5,0,0,1,619.55,157Zm-34.7-3h33.2V105.83a16.6,16.6,0,0,0-33.2,0Z"/><path class="cls-6" d="M526.11,268A75,75,0,1,0,551,212.23,74.87,74.87,0,0,0,526.11,268Z"/><path class="cls-7" d="M561.08,206.23c1-.45,2-.87,3-1.27a74.87,74.87,0,0,1,68.16,132.45,74.89,74.89,0,0,0-57.62-138.2A73.73,73.73,0,0,0,561.08,206.23Z"/><path class="cls-3" d="M526.64,268a74.89,74.89,0,0,0,126.81,53.93,74.88,74.88,0,0,1-84.72-121.25A75,75,0,0,0,526.64,268Z"/><ellipse class="cls-8" cx="544.4" cy="290.27" rx="3.47" ry="5.87" transform="translate(-51.62 449.61) rotate(-43.03)"/><circle class="cls-8" cx="549.26" cy="300.26" r="1.48"/><circle class="cls-8" cx="540.44" cy="298.72" r="1.28"/><circle class="cls-8" cx="542.21" cy="276.75" r="2.24"/><path class="cls-2" d="M601,345.59a76.36,76.36,0,1,1,76.35-76.35A76.45,76.45,0,0,1,601,345.59Zm0-149.72a73.06,73.06,0,1,0,26.72,5A72.94,72.94,0,0,0,601,195.87Z"/><circle class="cls-9" cx="600.7" cy="269.81" r="64.83"/><path class="cls-2" d="M600.7,336.14A66.34,66.34,0,1,1,667,269.81,66.4,66.4,0,0,1,600.7,336.14Zm0-129.67A63.34,63.34,0,1,0,664,269.81,63.4,63.4,0,0,0,600.7,206.47Z"/><path class="cls-10" d="M600.7,333.05A63.25,63.25,0,1,1,664,269.81,63.32,63.32,0,0,1,600.7,333.05Zm0-120.49A57.25,57.25,0,1,0,658,269.81,57.31,57.31,0,0,0,600.7,212.56Z"/><ellipse class="cls-11" cx="594.99" cy="111.54" rx="5.26" ry="7.74" transform="translate(3.8 241.72) rotate(-23.04)"/><circle class="cls-11" cx="593.09" cy="124.98" r="2.48"/><circle class="cls-11" cx="588.27" cy="116.51" r="1.02"/><circle class="cls-11" cx="593.97" cy="98.11" r="1.75"/></g><g class="cls-1"><path class="cls-2" d="M247.82,692.16a1.36,1.36,0,0,1-1.36-1.36V670a1.36,1.36,0,0,1,2.72,0V690.8A1.36,1.36,0,0,1,247.82,692.16Z"/><path class="cls-2" d="M152.89,692.16a1.36,1.36,0,0,1-1.36-1.36V670a1.36,1.36,0,0,1,2.72,0V690.8A1.36,1.36,0,0,1,152.89,692.16Z"/><path class="cls-2" d="M201.18,692.16a1.36,1.36,0,0,1-1.36-1.36V670a1.37,1.37,0,0,1,2.73,0V690.8A1.36,1.36,0,0,1,201.18,692.16Z"/><rect class="cls-12" x="135.99" y="674.97" width="129.89" height="10.67" transform="translate(401.88 1360.61) rotate(-180)"/><rect class="cls-13" x="135.99" y="674.97" width="129.89" height="4.73" transform="translate(401.88 1354.68) rotate(-180)"/><path class="cls-2" d="M108.08,641.88H61.2a2,2,0,0,1,0-4h46.88a2,2,0,1,1,0,4Z"/><path class="cls-14" d="M132.06,660.74H260.83c16.35,0,29.6-23.26,29.6-39.61h-188C102.45,637.48,115.71,660.74,132.06,660.74Z"/><path class="cls-15" d="M236.28,660.74h24.83c16.35,0,29.61-23.26,29.61-39.61H265.89C265.89,637.48,252.63,660.74,236.28,660.74Z"/><path class="cls-16" d="M104.62,629.51a29.23,29.23,0,0,0,2.34,5.55H287.68a29.23,29.23,0,0,0,2.34-5.55Z"/><path class="cls-17" d="M262.56,635.35h24.82a28.4,28.4,0,0,0,2.28-5.55H264.83A28.37,28.37,0,0,1,262.56,635.35Z"/><path class="cls-2" d="M261.41,662.53H132.64c-17.75,0-31.1-24.94-31.1-41.11a1.5,1.5,0,0,1,1.5-1.5H291a1.5,1.5,0,0,1,1.5,1.5C292.51,637.59,279.16,662.53,261.41,662.53ZM104.58,622.92c.78,15,13.06,36.61,28.06,36.61H261.41c15,0,27.28-21.58,28.06-36.61Z"/><path class="cls-2" d="M286.6,636.65H107.81a1,1,0,0,1,0-2H286.6a1,1,0,0,1,0,2Z"/><path class="cls-2" d="M265.3,683.65a1.36,1.36,0,0,1-1.36-1.36v-5.67H136.77v5.67a1.36,1.36,0,0,1-2.72,0v-7a1.36,1.36,0,0,1,1.36-1.36H265.3a1.36,1.36,0,0,1,1.36,1.36v7A1.36,1.36,0,0,1,265.3,683.65Z"/><path class="cls-16" d="M221.38,685c-2-2.14-1.56-5.65-.24-8.28s3.34-4.92,4.24-7.72c1.25-3.87.18-8.08-1.18-11.91-1.11-3.1-2.47-6.24-4.93-8.44,1.16,4.11,2.31,8.51,1,12.56-1.25,3.73-4.41,6.48-6.25,10a15.67,15.67,0,0,0,.2,14.78"/><path class="cls-18" d="M220.81,685.72c1-.85,3-2.19,2.52-3.42s-.24-2.23-.49-3.51c-.36-1.78.44-4.58,1.24-6.2a8.85,8.85,0,0,1,2.6-3.48c-.72,1.76-1.45,3.65-1.06,5.5s1.62,3.09,2.26,4.72a7,7,0,0,1-.84,6.52"/><path class="cls-18" d="M216.58,684.52c-1.44-.76-1.83-2.69-1.61-4.31s.87-3.18.84-4.82c0-2.25-1.36-4.28-2.76-6a11.09,11.09,0,0,0-4.1-3.55c1.34,2,2.74,4.06,2.76,6.43,0,2.18-1.16,4.2-1.5,6.35a8.68,8.68,0,0,0,2.77,7.73"/><path class="cls-19" d="M217.32,685.69c1.45-.77,1.83-2.69,1.61-4.31s-.87-3.18-.84-4.82c0-2.25,1.36-4.28,2.76-6A11.12,11.12,0,0,1,225,667c-1.35,1.95-2.74,4.06-2.76,6.42,0,2.19,1.15,4.2,1.49,6.36a8.71,8.71,0,0,1-2.76,7.73"/><path class="cls-16" d="M184.37,684.75c-2-2.15-1.55-5.65-.23-8.28s3.33-4.92,4.24-7.72c1.25-3.87.18-8.08-1.18-11.92-1.11-3.1-2.48-6.24-4.93-8.43,1.16,4.11,2.31,8.51,1,12.56-1.25,3.73-4.41,6.48-6.26,10a15.68,15.68,0,0,0,.21,14.77"/><path class="cls-18" d="M183.81,685.42c1-.84,3-2.18,2.51-3.41s-.23-2.23-.49-3.52c-.35-1.77.45-4.57,1.24-6.19a8.8,8.8,0,0,1,2.61-3.48c-.72,1.75-1.45,3.64-1.06,5.5.36,1.71,1.62,3.09,2.26,4.72a7,7,0,0,1-.84,6.52"/><path class="cls-18" d="M179.58,684.23c-1.44-.77-1.83-2.69-1.61-4.31s.87-3.18.84-4.82c0-2.26-1.36-4.28-2.76-6a11,11,0,0,0-4.1-3.55c1.34,2,2.74,4.06,2.75,6.42,0,2.19-1.15,4.2-1.49,6.36A8.69,8.69,0,0,0,176,686"/><path class="cls-19" d="M180.32,685.39c1.44-.76,1.83-2.68,1.61-4.3s-.87-3.19-.84-4.82c0-2.26,1.36-4.28,2.76-6a11,11,0,0,1,4.11-3.54c-1.35,2-2.74,4.05-2.76,6.42,0,2.19,1.15,4.2,1.49,6.36a8.68,8.68,0,0,1-2.76,7.72"/><path class="cls-2" d="M258.3,687.29H141.41a1.36,1.36,0,1,1,0-2.72H258.3a1.36,1.36,0,0,1,0,2.72Z"/><g class="cls-20"><path class="cls-2" d="M187.64,614.23c-5.75-4.82-9.15-12.55-9.36-20.45a29.86,29.86,0,0,1,.44-6,30.65,30.65,0,0,1,1.66-5.78c1.45-3.67,3.34-6.86,4.64-10a39.38,39.38,0,0,0,3.06-20,34.78,34.78,0,0,0-8.65-19,25.53,25.53,0,0,1,8.42,7.56,30.52,30.52,0,0,1,4.86,10.59,37,37,0,0,1-2.17,23.18c-1.57,3.64-3.51,6.77-4.94,9.86a32.24,32.24,0,0,0-1.73,4.69,31.52,31.52,0,0,0-.89,5A33.77,33.77,0,0,0,187.64,614.23Z"/><path class="cls-2" d="M209,584.73c-5.75-4.82-9.14-12.56-9.35-20.46a29.91,29.91,0,0,1,.43-6,31.87,31.87,0,0,1,1.66-5.78c1.46-3.67,3.34-6.85,4.65-10a39.21,39.21,0,0,0,3.05-19.95,34.63,34.63,0,0,0-8.65-19,25.55,25.55,0,0,1,8.43,7.56A30.8,30.8,0,0,1,214,521.72a37,37,0,0,1-2.18,23.18c-1.56,3.64-3.51,6.76-4.93,9.86a31.11,31.11,0,0,0-1.73,4.69,30.49,30.49,0,0,0-.89,5A33.81,33.81,0,0,0,209,584.73Z"/></g><path class="cls-7" d="M243.35,632.65H198.17a1,1,0,1,1,0-2h45.18a1,1,0,1,1,0,2Z"/><path class="cls-2" d="M289.6,631.1H104.81a1,1,0,0,1,0-2H289.6a1,1,0,0,1,0,2Z"/><path class="cls-21" d="M534.87,708a23.77,23.77,0,0,1-2.48,11.07c-1.53,2.84-3.65,4.6-6,4.6H57.83c-4.67,0-8.46-7-8.46-15.67v-.7a1.3,1.3,0,0,1,2.43-.59c1.53,2.88,3.67,4.68,6,4.68H526.41c2.33,0,4.45-1.76,6-4.58l0,0a1.29,1.29,0,0,1,2.45.54C534.86,707.56,534.87,707.79,534.87,708Z"/><rect class="cls-22" x="49.37" y="693.07" width="485.5" height="31.33" rx="15.66"/><rect class="cls-22" x="49.37" y="693.07" width="485.5" height="31.33" rx="15.66"/><path class="cls-23" d="M518.5,723.38,61,724.4c-3.63,0-7.58-2.95-7.58-6.59h-1c0-3.63,0-6.58,3.58-6.58H528.28c3.64,0,4.63,2.28,4.63,5.92l-.59-.39C532.32,720.39,522.13,723.38,518.5,723.38Z"/><path class="cls-24" d="M51.28,713.08c5.79-6.48,13.8-10.72,22.19-13a129.27,129.27,0,0,1,25.74-3.69,138.74,138.74,0,0,1,26,1.32,127.93,127.93,0,0,1,12.82,2.4c4.23,1.06,8.37,2.38,12.48,3.73s8.18,2.79,12.3,4A125,125,0,0,0,175.3,711a100.91,100.91,0,0,0,25.61,1.61,78.9,78.9,0,0,0,46.85-19.31,75.12,75.12,0,0,1-21.53,14.37A81,81,0,0,1,201,714a96.6,96.6,0,0,1-26-1.38,124.56,124.56,0,0,1-12.69-3c-4.17-1.22-8.28-2.61-12.37-4s-8.19-2.7-12.34-3.77-8.39-1.8-12.63-2.45a150.44,150.44,0,0,0-25.71-1.57A128.66,128.66,0,0,0,73.69,701a50.28,50.28,0,0,0-12,4.44A42.38,42.38,0,0,0,51.28,713.08Z"/><path class="cls-24" d="M57.12,720.72a18.11,18.11,0,0,1,4.42-4.7,34.33,34.33,0,0,1,5.58-3.34,110.23,110.23,0,0,1,11.92-5,93.49,93.49,0,0,1,12.5-3.44,77.07,77.07,0,0,1,13-1.43,62.55,62.55,0,0,1,13,1.06A59.1,59.1,0,0,1,130,707.72a52.47,52.47,0,0,1,20.36,15.67,62.06,62.06,0,0,0-21.18-13.68,64.41,64.41,0,0,0-12.12-3.27,63.09,63.09,0,0,0-12.51-.87,93.57,93.57,0,0,0-24.86,4.16c-4,1.21-8.07,2.62-12,4.18S59.91,717.41,57.12,720.72Z"/><path class="cls-24" d="M166.12,692.25a27.91,27.91,0,0,0,14.36,8.61,60.06,60.06,0,0,0,16.85,1.49,72.91,72.91,0,0,0,8.48-.71,65.58,65.58,0,0,0,8.32-1.69,56.07,56.07,0,0,0,15.57-7.09A40.52,40.52,0,0,1,214.79,702a53,53,0,0,1-8.58,2.23,70.31,70.31,0,0,1-8.8.88,68.75,68.75,0,0,1-8.84-.32,41.51,41.51,0,0,1-8.71-1.87,27.41,27.41,0,0,1-7.91-4.09A21.74,21.74,0,0,1,166.12,692.25Z"/><path class="cls-24" d="M222.33,723c2.92-.49,5.8-1,8.64-1.57s5.65-1.31,8.44-2.07,5.51-1.67,8.21-2.67,5.35-2.08,8-3.26a117.35,117.35,0,0,0,15.13-8.19,45.77,45.77,0,0,0,12.52-11.77c-2,5.58-6.14,10.36-10.82,14.08a74.2,74.2,0,0,1-15.32,9.23,80.52,80.52,0,0,1-8.37,3.19,79,79,0,0,1-8.67,2.17,73.61,73.61,0,0,1-8.86,1.07A59.67,59.67,0,0,1,222.33,723Z"/><path class="cls-24" d="M532.52,713.08a42.38,42.38,0,0,0-10.36-7.65,50.44,50.44,0,0,0-12-4.44,128.85,128.85,0,0,0-25.57-3.16,150.38,150.38,0,0,0-25.71,1.57c-4.25.65-8.49,1.39-12.64,2.45s-8.24,2.39-12.33,3.77-8.2,2.74-12.37,4a125.84,125.84,0,0,1-12.69,3,96.62,96.62,0,0,1-26,1.38,81.08,81.08,0,0,1-25.22-6.35A75.08,75.08,0,0,1,336,693.27a78.9,78.9,0,0,0,46.85,19.31,100.84,100.84,0,0,0,25.6-1.61A125.18,125.18,0,0,0,421,707.9c4.12-1.23,8.19-2.65,12.29-4s8.26-2.67,12.49-3.73a127.93,127.93,0,0,1,12.82-2.4,138.74,138.74,0,0,1,26-1.32,129.27,129.27,0,0,1,25.74,3.69C518.71,702.36,526.73,706.6,532.52,713.08Z"/><path class="cls-24" d="M526.68,720.72c-2.79-3.31-6.62-5.29-10.55-6.81s-8-3-12-4.18a93.5,93.5,0,0,0-24.85-4.16,63,63,0,0,0-12.51.87,64.41,64.41,0,0,0-12.12,3.27,62.06,62.06,0,0,0-21.18,13.68,52.47,52.47,0,0,1,20.36-15.67,58.92,58.92,0,0,1,12.48-3.84,62.55,62.55,0,0,1,13-1.06,76.84,76.84,0,0,1,12.95,1.43,94,94,0,0,1,12.51,3.44,110.23,110.23,0,0,1,11.92,5,34.33,34.33,0,0,1,5.58,3.34A18.28,18.28,0,0,1,526.68,720.72Z"/><path class="cls-24" d="M417.68,692.25a21.88,21.88,0,0,1-5.83,6.57,27.34,27.34,0,0,1-7.92,4.09,41.29,41.29,0,0,1-8.7,1.87,68.89,68.89,0,0,1-8.84.32,70.13,70.13,0,0,1-8.8-.88A52.77,52.77,0,0,1,369,702a40.48,40.48,0,0,1-14.92-9.13A56.07,56.07,0,0,0,369.66,700a65.73,65.73,0,0,0,8.33,1.69,72.91,72.91,0,0,0,8.48.71,60.1,60.1,0,0,0,16.85-1.49A27.91,27.91,0,0,0,417.68,692.25Z"/><path class="cls-24" d="M361.46,723a59.64,59.64,0,0,1-8.87.21,73.45,73.45,0,0,1-8.85-1.07,79.79,79.79,0,0,1-8.68-2.17,81.22,81.22,0,0,1-8.36-3.19,73.94,73.94,0,0,1-15.32-9.23c-4.68-3.72-8.79-8.5-10.83-14.08a45.91,45.91,0,0,0,12.52,11.77,117.47,117.47,0,0,0,15.14,8.19c2.62,1.18,5.28,2.26,8,3.26s5.45,1.84,8.21,2.67,5.59,1.48,8.43,2.07S358.55,722.52,361.46,723Z"/><path class="cls-2" d="M519.2,725.63H65a17.44,17.44,0,0,1,0-34.87H519.2a17.44,17.44,0,1,1,0,34.87ZM65,694.3a13.89,13.89,0,1,0,0,27.78H519.2a13.89,13.89,0,0,0,0-27.78Z"/><polygon class="cls-7" points="7.41 646.29 7.56 632.85 78.56 633.05 78.41 646.49 7.41 646.29"/><polygon class="cls-12" points="8.34 646.59 8.44 637.1 79.44 637.3 79.34 646.79 8.34 646.59"/><polygon class="cls-13" points="8.34 646.59 8.4 641.4 79.39 641.61 79.34 646.79 8.34 646.59"/><path class="cls-2" d="M79,648.42h0l-71-.21a1.49,1.49,0,0,1-1.5-1.51l.15-13.44a1.5,1.5,0,0,1,1.5-1.48h0l71,.2a1.5,1.5,0,0,1,1.49,1.52l-.14,13.43A1.51,1.51,0,0,1,79,648.42Zm-69.48-3.2,68,.19L77.6,635l-68-.2Z"/><path class="cls-2" d="M6.44,646.52A6.44,6.44,0,0,1,0,640.33a6.36,6.36,0,0,1,1.7-4.62,6.4,6.4,0,0,1,4.48-2.07,1,1,0,0,1,.08,2,4.38,4.38,0,0,0-3.09,1.42,4.44,4.44,0,0,0,3.44,7.45,1,1,0,1,1,.08,2Z"/></g><path class="cls-2" d="M641.45,992.69H394.1a2.5,2.5,0,1,1,0-5H641.45a2.5,2.5,0,0,1,0,5Z"/><path class="cls-2" d="M341.16,992.69H93.81a2.5,2.5,0,1,1,0-5H341.16a2.5,2.5,0,1,1,0,5Z"/><g class="cls-25"><path class="cls-26" d="M561.94,841h-12.5V819.9h37.14a1.5,1.5,0,0,1,0,3H552.47V838h9.47a1.5,1.5,0,0,1,0,3Z"/><path class="cls-26" d="M571.77,841h-5.41a1.5,1.5,0,1,1,0-3h5.41a1.5,1.5,0,0,1,0,3Z"/><path class="cls-26" d="M575.94,841h-.11a1.5,1.5,0,0,1,0-3h.11a1.5,1.5,0,0,1,0,3Z"/><path class="cls-26" d="M602.23,841H580.15a1.5,1.5,0,1,1,0-3h19.08V822.9h-6.62a1.5,1.5,0,0,1,0-3h9.67Z"/><path class="cls-26" d="M576.94,822.9H524.19v-21h52.75Zm-49.76-3h46.76v-15H527.19Z"/></g><path class="cls-27" d="M307.79,908.85h42.32c0-67.93,15.6-230.75,15.76-232.11l-42-4.89C323.17,677.49,307.79,838.49,307.79,908.85Z"/><path class="cls-28" d="M362.21,703.35H322.64s-13.07-27.2,39.92-16.6Z"/><path class="cls-27" d="M445.35,908.85H403c0-67.93-15.59-230.75-15.75-232.11l42-4.89C430,677.49,445.35,838.49,445.35,908.85Z"/><path class="cls-28" d="M444.68,870.27c-4.7-12.78-8.12-66.09-10.66-79.46-5-26.49-6.7-41.39-9-68.25-.39-4.49-.81-9-2.49-13.22-1-2.37-2.44-4.7-4.75-5.79-2.84-1.34-6.17-.52-9.29-.09a35.22,35.22,0,0,1-18.42-2.5C388.82,689.42,388,682.34,388,682l42-4.89C430.55,681.76,440.9,799.25,444.68,870.27Z"/><path class="cls-2" d="M445.35,910.85H403a2,2,0,0,1-2-2c0-67.71-15.58-230.46-15.74-231.88a2,2,0,0,1,1.76-2.21l42-4.89a2,2,0,0,1,2.22,1.75c1,8.66,16.05,168.39,16.05,237.23A2,2,0,0,1,445.35,910.85Zm-40.33-4h38.32c-.27-66.63-13.74-212.51-15.81-232.78l-38.08,4.43C391.24,697.18,404.74,842,405,906.85Z"/><path class="cls-2" d="M350.11,910.85H307.79a2,2,0,0,1-2-2c0-68.8,15-228.56,16-237.23a2,2,0,0,1,2.22-1.75l42,4.89a2,2,0,0,1,1.76,2.21c-.16,1.42-15.75,164.26-15.75,231.88A2,2,0,0,1,350.11,910.85Zm-40.31-4h38.32c.28-64.76,13.78-209.65,15.57-228.35l-38.09-4.43C323.54,694.35,310.07,840.25,309.8,906.85Z"/><path class="cls-29" d="M321.81,946.95h10.27a31.28,31.28,0,0,1,31.28,31.28v.8a10.81,10.81,0,0,1-10.81,10.81H301.33A10.81,10.81,0,0,1,290.53,979v-.8A31.28,31.28,0,0,1,321.81,946.95Z"/><rect class="cls-30" x="317.08" y="912.72" width="25.4" height="35.17"/><rect class="cls-31" x="317.08" y="912.72" width="25.4" height="19.19"/><path class="cls-2" d="M342.48,949.72h-25.4a1.5,1.5,0,0,1-1.5-1.5V913.05a1.5,1.5,0,0,1,1.5-1.5h25.4a1.5,1.5,0,0,1,1.5,1.5v35.17A1.5,1.5,0,0,1,342.48,949.72Zm-23.9-3H341V914.55h-22.4Z"/><rect class="cls-32" x="297.44" y="889.67" width="63.52" height="33.37" rx="16.27"/><path class="cls-33" d="M360.71,907.1v.84a15.76,15.76,0,0,1-.36,3.38,16.25,16.25,0,0,0-15.92-12.92h-31a16.28,16.28,0,0,0-15.92,12.92,15.76,15.76,0,0,1-.35-3.38v-.84a16.28,16.28,0,0,1,16.27-16.27h31A16.27,16.27,0,0,1,360.71,907.1Z"/><path class="cls-2" d="M344.53,924.56h-31a17.8,17.8,0,0,1-17.77-17.78V906a17.8,17.8,0,0,1,17.77-17.78h31A17.81,17.81,0,0,1,362.31,906v.82A17.81,17.81,0,0,1,344.53,924.56Zm-31-33.38A14.79,14.79,0,0,0,298.79,906v.82a14.79,14.79,0,0,0,14.77,14.78h31a14.8,14.8,0,0,0,14.78-14.78V906a14.8,14.8,0,0,0-14.78-14.78Z"/><path class="cls-2" d="M318.59,912.53H299.72a1,1,0,0,1,0-2h18.87a1,1,0,0,1,0,2Z"/><path class="cls-2" d="M358.65,901.3h-8.83a1,1,0,1,1,0-2h8.83a1,1,0,0,1,0,2Z"/><rect class="cls-34" x="290.76" y="977.37" width="71.42" height="2"/><path class="cls-35" d="M342,969.51a48.88,48.88,0,0,0-44.12-4.92l-.14,0c-6,0-8.4,20.35-8.4,14.38v-.79A31.27,31.27,0,0,1,320.6,947h10.26a31.27,31.27,0,0,1,31.28,31.28l-1.56-8.37C360.58,972.84,352.06,976.13,342,969.51Z"/><path class="cls-2" d="M352.31,990.87H301.1a12.33,12.33,0,0,1-12.31-12.31v-.8A32.82,32.82,0,0,1,321.57,945h10.27a32.82,32.82,0,0,1,32.78,32.78v.8A12.32,12.32,0,0,1,352.31,990.87ZM321.57,948a29.81,29.81,0,0,0-29.78,29.78v.8a9.33,9.33,0,0,0,9.31,9.31h51.21a9.33,9.33,0,0,0,9.31-9.31v-.8A29.81,29.81,0,0,0,331.84,948Z"/><path class="cls-2" d="M362.14,976.81H310.69a1,1,0,0,1,0-2h51.45a1,1,0,0,1,0,2Z"/><path class="cls-2" d="M303.94,976.81H292.12a1,1,0,1,1,0-2h11.82a1,1,0,1,1,0,2Z"/><circle class="cls-2" cx="327.05" cy="911.42" r="3.68"/><rect class="cls-30" x="413.97" y="912.01" width="25.4" height="35.17"/><rect class="cls-31" x="413.97" y="912.01" width="25.4" height="19.19"/><path class="cls-2" d="M439.38,949H414a1.5,1.5,0,0,1-1.5-1.5V912.34a1.5,1.5,0,0,1,1.5-1.5h25.41a1.5,1.5,0,0,1,1.5,1.5v35.17A1.5,1.5,0,0,1,439.38,949Zm-23.91-3h22.41V913.84H415.47Z"/><rect class="cls-32" x="392.66" y="892.16" width="63.52" height="33.37" rx="16.27"/><path class="cls-33" d="M455.93,909.17V910a16.26,16.26,0,0,1-.35,3.37,16.26,16.26,0,0,0-15.92-12.91h-31a16.3,16.3,0,0,0-15.92,12.91,16.26,16.26,0,0,1-.35-3.37v-.84a16.28,16.28,0,0,1,16.27-16.27h31A16.27,16.27,0,0,1,455.93,909.17Z"/><path class="cls-2" d="M439.76,926.63h-31A17.81,17.81,0,0,1,391,908.85V908a17.8,17.8,0,0,1,17.78-17.77h31A17.79,17.79,0,0,1,457.53,908v.83A17.8,17.8,0,0,1,439.76,926.63Zm-31-33.38A14.79,14.79,0,0,0,394,908v.83a14.8,14.8,0,0,0,14.78,14.78h31a14.79,14.79,0,0,0,14.77-14.78V908a14.79,14.79,0,0,0-14.77-14.77Z"/><path class="cls-2" d="M413.82,914.6H395a1,1,0,1,1,0-2h18.87a1,1,0,1,1,0,2Z"/><path class="cls-2" d="M453.88,903.37H445a1,1,0,0,1,0-2h8.84a1,1,0,0,1,0,2Z"/><path class="cls-29" d="M422,946.24h10.27a31.28,31.28,0,0,1,31.28,31.28v.8a10.81,10.81,0,0,1-10.81,10.81H401.53a10.81,10.81,0,0,1-10.81-10.81v-.8A31.28,31.28,0,0,1,422,946.24Z"/><path class="cls-35" d="M443.39,968.8a48.88,48.88,0,0,0-44.12-4.92l-.14.06c-6,0-8.41,20.34-8.41,14.38v-.8A31.28,31.28,0,0,1,422,946.24h10.27a31.28,31.28,0,0,1,31.28,31.28L462,969.15C462,972.13,453.47,975.43,443.39,968.8Z"/><path class="cls-2" d="M462.34,976.1H450.53a1,1,0,0,1,0-2h11.81a1,1,0,1,1,0,2Z"/><path class="cls-2" d="M443.68,976.1H403.5a1,1,0,1,1,0-2h40.18a1,1,0,0,1,0,2Z"/><rect class="cls-34" x="390.61" y="976.66" width="71.42" height="2"/><circle class="cls-2" cx="442.96" cy="917.81" r="2.38"/><path class="cls-2" d="M452.51,990.16H401.3A12.32,12.32,0,0,1,389,977.85v-.8a32.81,32.81,0,0,1,32.78-32.77H432a32.81,32.81,0,0,1,32.77,32.77v.8A12.32,12.32,0,0,1,452.51,990.16Zm-30.74-42.88A29.81,29.81,0,0,0,392,977.05v.8a9.33,9.33,0,0,0,9.31,9.31h51.21a9.32,9.32,0,0,0,9.3-9.31v-.8A29.8,29.8,0,0,0,432,947.28Z"/><path class="cls-2" d="M446.81,933.91H434.68a1,1,0,1,1,0-2h12.13a1,1,0,1,1,0,2Z"/><path class="cls-2" d="M444,939.94h-9.33a1,1,0,0,1,0-2H444a1,1,0,0,1,0,2Z"/><path class="cls-32" d="M297.27,539.74H440.2a0,0,0,0,1,0,0V656.41a31.86,31.86,0,0,1-31.86,31.86h-79.2a31.86,31.86,0,0,1-31.86-31.86V539.74A0,0,0,0,1,297.27,539.74Z"/><path class="cls-33" d="M296.22,541.9h155.1a0,0,0,0,1,0,0V657.24a33.19,33.19,0,0,1-33.19,33.19H329.41a33.19,33.19,0,0,1-33.19-33.19V541.9A0,0,0,0,1,296.22,541.9Z"/><path class="cls-27" d="M304.34,541.9H453a0,0,0,0,1,0,0v116a32.5,32.5,0,0,1-32.5,32.5H336.84a32.5,32.5,0,0,1-32.5-32.5v-116A0,0,0,0,1,304.34,541.9Z"/><path class="cls-27" d="M304.34,541.9H453a0,0,0,0,1,0,0v116a32.5,32.5,0,0,1-32.5,32.5H336.84a32.5,32.5,0,0,1-32.5-32.5v-116A0,0,0,0,1,304.34,541.9Z"/><path class="cls-28" d="M304.34,493.86H453a0,0,0,0,1,0,0V642.4a0,0,0,0,1,0,0H313.66a9.31,9.31,0,0,1-9.31-9.31V493.86A0,0,0,0,1,304.34,493.86Z"/><path class="cls-2" d="M419.83,692.44H331.12a35.24,35.24,0,0,1-35.19-35.2V541.9a2,2,0,0,1,2-2H453a2,2,0,0,1,2,2V657.24A35.24,35.24,0,0,1,419.83,692.44ZM299.93,543.9V657.24a31.23,31.23,0,0,0,31.19,31.2h88.71a31.24,31.24,0,0,0,31.2-31.2V543.9Z"/><ellipse class="cls-7" cx="305.17" cy="653.11" rx="2.25" ry="3.41" transform="translate(-33.27 16.6) rotate(-2.96)"/><circle class="cls-7" cx="304.96" cy="661.62" r="1.6"/><ellipse class="cls-2" cx="435.79" cy="681.85" rx="3.55" ry="3.41"/><circle class="cls-2" cx="436.88" cy="672.44" r="1.91"/><circle class="cls-2" cx="441.65" cy="664.66" r="1.77"/><path class="cls-2" d="M459.34,648.48A25.51,25.51,0,0,1,433.86,623v-3.49a1.5,1.5,0,0,1,3,0V623a22.5,22.5,0,0,0,22.48,22.48,1.5,1.5,0,0,1,0,3Z"/><path class="cls-2" d="M291.8,649.48a1.5,1.5,0,1,1,0-3A22.51,22.51,0,0,0,314.28,624v-3.49a1.5,1.5,0,0,1,3,0V624A25.51,25.51,0,0,1,291.8,649.48Z"/><path class="cls-36" d="M321.83,781.7h-.12a1,1,0,0,1-.88-1.11c0-.12,1.43-12.66,2.82-28.57a1,1,0,0,1,1.09-.91,1,1,0,0,1,.9,1.08c-1.39,15.94-2.81,28.5-2.82,28.63A1,1,0,0,1,321.83,781.7Z"/><path class="cls-36" d="M326.64,778.18h-.1a1,1,0,0,1-.9-1.09c.46-4.7.89-9.36,1.29-13.87a1,1,0,1,1,2,.17c-.39,4.52-.83,9.19-1.29,13.89A1,1,0,0,1,326.64,778.18Z"/><path class="cls-36" d="M336.16,874.1a24.92,24.92,0,0,1,2-6.55c.4-.87-.89-1.63-1.3-.75a26.31,26.31,0,0,0-2.13,6.9c-.15.94,1.3,1.35,1.45.4Z"/><path class="cls-36" d="M338.88,876.83a23.63,23.63,0,0,1,.89-4.17c.28-.92-1.17-1.32-1.45-.4a25.39,25.39,0,0,0-.94,4.57c-.11.95,1.39.95,1.5,0Z"/><path class="cls-36" d="M431.93,836.42l-1.42-2.65c-.46-.85-1.75-.09-1.3.76l1.42,2.65c.46.85,1.76.09,1.3-.76Z"/><path class="cls-36" d="M429.74,830.18l1.71,2.65c.53.81,1.83.06,1.3-.75L431,829.42c-.52-.81-1.82-.06-1.3.76Z"/><path class="cls-36" d="M402.88,789.11q3.47-19.44,5.81-39.06c.12-1-1.39-.95-1.5,0q-2.32,19.41-5.75,38.66c-.17.95,1.27,1.35,1.44.4Z"/><path class="cls-36" d="M409.38,772.71q3.25-15.39,5.71-30.93c.15-.95-1.3-1.36-1.45-.4q-2.44,15.54-5.7,30.93c-.2.94,1.25,1.34,1.44.4Z"/><path class="cls-36" d="M399.08,830.34a3.26,3.26,0,0,1-2.36.46c-.94-.19-1.34,1.26-.4,1.44a4.7,4.7,0,0,0,3.51-.61c.82-.51.07-1.81-.75-1.29Z"/><path class="cls-36" d="M400.63,831a10.52,10.52,0,0,1-4-3.68c-.52-.81-1.81-.06-1.29.76a12,12,0,0,0,4.54,4.21c.86.45,1.62-.84.76-1.29Z"/><path class="cls-36" d="M433.83,705a14.49,14.49,0,0,0,4.41-2.58c.74-.62-.33-1.68-1.06-1.06a12.35,12.35,0,0,1-3.74,2.19c-.9.33-.51,1.78.39,1.45Z"/><path class="cls-36" d="M433,705.39l2.92,2.05c.79.55,1.54-.75.76-1.3l-2.92-2c-.79-.55-1.54.75-.76,1.3Z"/><path class="cls-36" d="M403.33,891.32,401,888.13c-.57-.77-1.87,0-1.29.76l2.37,3.18c.57.77,1.87,0,1.29-.75Z"/><path class="cls-36" d="M404.26,892.45a16.18,16.18,0,0,0-6.09-2.61c-.94-.19-1.34,1.26-.39,1.45a15,15,0,0,1,5.72,2.45c.79.56,1.54-.74.76-1.29Z"/><path class="cls-36" d="M415.45,944.65l-.29-.29a.75.75,0,0,0-1.06,1.06l.29.29a.75.75,0,0,0,1.06-1.06Z"/><path class="cls-36" d="M315.93,673.77l2.61,2.93c.65.72,1.7-.34,1.06-1.06L317,672.7c-.65-.72-1.7.35-1.06,1.07Z"/><path class="cls-36" d="M319,673.27l4.65,3.24c.8.55,1.55-.75.76-1.3L319.79,672c-.8-.55-1.55.75-.76,1.3Z"/><path class="cls-36" d="M312.92,592.25l3.5-3.51c.69-.68-.37-1.74-1.06-1.06l-3.5,3.51c-.69.68.37,1.74,1.06,1.06Z"/><path class="cls-36" d="M316.83,593.5l6.44-4.08c.81-.52.06-1.82-.76-1.3l-6.43,4.08c-.82.52-.06,1.82.75,1.3Z"/><g class="cls-25"><path class="cls-26" d="M177.77,816.71h-.29a1.5,1.5,0,0,1,0-3h.29a1.5,1.5,0,0,1,0,3Z"/><path class="cls-26" d="M188.66,816.71h-6a1.5,1.5,0,1,1,0-3h3V798.65H138.9v15.06h27.19a1.5,1.5,0,1,1,0,3H135.9V795.65h52.76Z"/><path class="cls-26" d="M173.39,816.71h-2.62a1.5,1.5,0,1,1,0-3h2.67a1.5,1.5,0,1,1,0,3Z"/><path class="cls-26" d="M148.4,852.82H135.9V831.76H173a1.5,1.5,0,0,1,0,3H138.9v15.06h9.5a1.5,1.5,0,0,1,0,3Z"/><path class="cls-26" d="M158.2,852.82h-5.43a1.5,1.5,0,1,1,0-3h5.41a1.5,1.5,0,0,1,0,3Z"/><path class="cls-26" d="M162.33,852.82h-.11a1.5,1.5,0,0,1,0-3h.11a1.5,1.5,0,1,1,0,3Z"/><path class="cls-26" d="M188.66,852.82H166.58a1.5,1.5,0,0,1,0-3h19.08V834.76H179a1.5,1.5,0,1,1,0-3h9.67Z"/><path class="cls-26" d="M163.38,834.76H110.62v-21h52.76Zm-49.76-3h46.76v-15H113.62Z"/></g><g class="cls-1"><rect class="cls-37" x="104.75" y="180.01" width="137.91" height="137.91"/><rect class="cls-38" x="114.58" y="303.75" width="119.55" height="6.38" transform="translate(348.72 613.87) rotate(180)"/><rect class="cls-38" x="172.06" y="243.48" width="115.51" height="6.27" transform="translate(-16.8 476.44) rotate(-90)"/><path class="cls-2" d="M242.65,320H104.75a2.06,2.06,0,0,1-2.06-2.06V180a2.06,2.06,0,0,1,2.06-2.06h137.9a2.06,2.06,0,0,1,2.06,2.06v137.9A2.06,2.06,0,0,1,242.65,320Zm-135.84-4.11H240.6V182.06H106.81Z"/><path class="cls-2" d="M233.59,310.22H113.82a1.37,1.37,0,0,1-1.38-1.37V189.07a1.37,1.37,0,0,1,1.38-1.37H233.59a1.37,1.37,0,0,1,1.37,1.37V308.85A1.37,1.37,0,0,1,233.59,310.22Zm-118.4-2.75h117v-117h-117Z"/><path class="cls-7" d="M126.82,264.61a2,2,0,0,1-2-2V225.8a2,2,0,0,1,4,0v36.81A2,2,0,0,1,126.82,264.61Z"/><path class="cls-7" d="M126.82,215.83a2,2,0,0,1-2-2V200.39a2,2,0,0,1,4,0v13.44A2,2,0,0,1,126.82,215.83Z"/></g><rect class="cls-12" x="626.82" y="464.14" width="5.76" height="41.2" transform="matrix(0.94, 0.34, -0.34, 0.94, 199.32, -183.29)"/><rect class="cls-13" x="633.16" y="465.24" width="5.76" height="3.42" transform="translate(193.71 -186.46) rotate(19.62)"/><path class="cls-2" d="M625.5,506.09a.92.92,0,0,1-.28,0l-5.43-1.93a.83.83,0,0,1-.47-.43.79.79,0,0,1,0-.64l13.83-38.81a.8.8,0,0,1,.43-.47.84.84,0,0,1,.64,0l5.43,1.94a.83.83,0,0,1,.5,1.07l-13.83,38.8A.83.83,0,0,1,625.5,506.09Zm-4.36-3.28,3.86,1.38L638.27,467l-3.86-1.37Z"/><rect class="cls-7" x="604.03" y="480.73" width="13.44" height="111" transform="translate(215.51 -173.94) rotate(19.62)"/><rect class="cls-12" x="608.46" y="480.62" width="9.48" height="111" transform="translate(215.61 -174.77) rotate(19.62)"/><rect class="cls-13" x="612.63" y="481.34" width="5.18" height="111" transform="translate(215.97 -175.41) rotate(19.62)"/><path class="cls-2" d="M599,591.88a1.43,1.43,0,0,1-.5-.09l-12.66-4.51a1.47,1.47,0,0,1-.85-.77,1.53,1.53,0,0,1-.06-1.15L622.23,480.8a1.51,1.51,0,0,1,1.92-.91l12.66,4.52a1.5,1.5,0,0,1,.85.77,1.46,1.46,0,0,1,.05,1.14L600.44,590.88A1.49,1.49,0,0,1,599,591.88ZM588.29,585l9.83,3.5,36.27-101.73-9.84-3.51Z"/><path class="cls-7" d="M163.25,556.63c-9.42-.41-17.59-6.84-19.24-15.81-1.9-10.35,5.62-20.17,16.79-21.93,31.74-5,77.35-33.17,98.78-68.65a219,219,0,0,0,23.48-54.5c2.5-10.24,13.48-16.67,24.53-14.35s18,12.49,15.49,22.73a255.48,255.48,0,0,1-27.7,64.7c-27.4,45.36-83.76,80.64-127.71,87.56A21.32,21.32,0,0,1,163.25,556.63Z"/><path class="cls-39" d="M321.49,403A255.09,255.09,0,0,1,293.8,467.7c-27.41,45.36-83.77,80.64-127.72,87.57a22.75,22.75,0,0,1-4.42.25,20.8,20.8,0,0,1-16.86-9.61,21.88,21.88,0,0,0,7.8,1.81,22.94,22.94,0,0,0,4.43-.25c43.95-6.92,100.31-42.2,127.7-87.57a255.59,255.59,0,0,0,27.71-64.69,17.75,17.75,0,0,0-2.18-13.58C318.77,385.36,323.64,394.16,321.49,403Z"/><path class="cls-2" d="M215,496.84a1.75,1.75,0,0,1-1-3.2,174.2,174.2,0,0,0,22.57-18.21A1.75,1.75,0,1,1,239,478a176.48,176.48,0,0,1-23,18.58A1.72,1.72,0,0,1,215,496.84Z"/><path class="cls-2" d="M164.22,558.13l-1,0c-10.35-.46-19.13-7.71-20.88-17.25a19.56,19.56,0,0,1,3.37-15,22.48,22.48,0,0,1,14.87-9c13.92-2.2,30.48-8.88,46.65-18.83a1.76,1.76,0,0,1,1.84,3c-16.55,10.19-33.58,17-47.94,19.31a18.93,18.93,0,0,0-12.55,7.59,16.12,16.12,0,0,0-2.79,12.29c1.46,7.94,8.86,14,17.59,14.37a20.56,20.56,0,0,0,4.07-.23c46.68-7.36,101.06-44.65,126.48-86.74a253,253,0,0,0,27.5-64.2A16,16,0,0,0,319.31,391a18.77,18.77,0,0,0-12.06-8.18c-10.12-2.12-20.2,3.74-22.47,13.06a221.54,221.54,0,0,1-23.68,55,126,126,0,0,1-14.21,19,1.76,1.76,0,1,1-2.61-2.35,122.07,122.07,0,0,0,13.82-18.44,218.07,218.07,0,0,0,23.27-54c2.72-11.14,14.65-18.16,26.6-15.65a22.3,22.3,0,0,1,14.31,9.73,19.52,19.52,0,0,1,2.52,15.14,257.1,257.1,0,0,1-27.9,65.18c-25.91,42.9-81.34,80.9-128.94,88.4A24.7,24.7,0,0,1,164.22,558.13Z"/><ellipse class="cls-30" cx="148.69" cy="543.08" rx="23.71" ry="21.97"/><path class="cls-40" d="M151.35,564.31a1.76,1.76,0,0,1-.3-3.49h0a25,25,0,0,0,8.1-3.32,16.77,16.77,0,0,0,8.25-14,1.76,1.76,0,0,1,3.51.15c-.76,17.19-19.06,20.62-19.25,20.65A1.55,1.55,0,0,1,151.35,564.31Z"/><path class="cls-2" d="M148.71,566.35a25.83,25.83,0,0,1-18.8-7.87,22.19,22.19,0,0,1-6.2-16.81,22.57,22.57,0,0,1,8.51-16.13,1.32,1.32,0,1,1,1.66,2,20,20,0,0,0-7.54,14.26,19.57,19.57,0,0,0,5.48,14.83c8.16,8.62,22.37,9.47,31.67,1.91A20,20,0,0,0,171,544.32a19.6,19.6,0,0,0-5.49-14.83,1.32,1.32,0,1,1,1.91-1.81,22.16,22.16,0,0,1,6.21,16.81,22.59,22.59,0,0,1-8.52,16.13A26,26,0,0,1,148.71,566.35Z"/><path class="cls-7" d="M590.31,556.63c9.42-.41,17.59-6.84,19.23-15.81,1.9-10.35-5.62-20.17-16.78-21.93-31.75-5-77.36-33.17-98.79-68.65a219.43,219.43,0,0,1-23.48-54.5C468,385.5,457,379.07,446,381.39s-18,12.49-15.49,22.73a255.92,255.92,0,0,0,27.7,64.7c27.4,45.36,83.76,80.64,127.71,87.56A21.38,21.38,0,0,0,590.31,556.63Z"/><path class="cls-39" d="M432.06,403a255.34,255.34,0,0,0,27.7,64.69c27.4,45.36,83.76,80.64,127.71,87.57a22.89,22.89,0,0,0,4.43.25,20.83,20.83,0,0,0,16.86-9.61,22,22,0,0,1-7.81,1.81,22.79,22.79,0,0,1-4.42-.25c-43.95-6.92-100.32-42.2-127.71-87.57a255.34,255.34,0,0,1-27.7-64.69,17.7,17.7,0,0,1,2.17-13.58C434.79,385.36,429.91,394.16,432.06,403Z"/><path class="cls-2" d="M589.33,558.13a24.7,24.7,0,0,1-3.74-.29c-47.6-7.5-103-45.5-128.94-88.4a257.1,257.1,0,0,1-27.9-65.18,19.52,19.52,0,0,1,2.52-15.14,22.3,22.3,0,0,1,14.32-9.73c12-2.51,23.88,4.51,26.59,15.65a218.8,218.8,0,0,0,23.28,54c21.63,35.81,67.48,63.09,97.55,67.83a22.48,22.48,0,0,1,14.87,9,19.56,19.56,0,0,1,3.37,15c-1.75,9.54-10.53,16.79-20.88,17.25h0Zm1-1.78h0Zm-139.8-174a20.6,20.6,0,0,0-4.18.43A18.79,18.79,0,0,0,434.24,391a16,16,0,0,0-2.07,12.43,253.14,253.14,0,0,0,27.49,64.2c25.43,42.09,79.8,79.38,126.48,86.74a20.66,20.66,0,0,0,4.08.23h0c8.73-.38,16.12-6.43,17.58-14.37A16.07,16.07,0,0,0,605,527.94a19,19,0,0,0-12.55-7.59c-30.86-4.86-77.87-32.81-100-69.48a222.45,222.45,0,0,1-23.68-55C466.82,387.85,459.06,382.39,450.49,382.39Z"/><ellipse class="cls-30" cx="604.86" cy="543.08" rx="23.71" ry="21.97"/><path class="cls-40" d="M602.2,564.31a1.63,1.63,0,0,1-.31,0c-.18,0-18.49-3.46-19.25-20.65a1.76,1.76,0,0,1,3.51-.15,16.8,16.8,0,0,0,8.25,14,25,25,0,0,0,8.11,3.32,1.76,1.76,0,0,1-.31,3.49Z"/><path class="cls-2" d="M604.85,566.35a26,26,0,0,1-16.45-5.73,22.57,22.57,0,0,1-8.51-16.13,22.15,22.15,0,0,1,6.2-16.81,1.32,1.32,0,1,1,1.91,1.81,19.6,19.6,0,0,0-5.49,14.83,20,20,0,0,0,7.55,14.26c9.3,7.56,23.51,6.71,31.67-1.91a19.57,19.57,0,0,0,5.48-14.83,20,20,0,0,0-7.54-14.26,1.32,1.32,0,1,1,1.66-2,22.57,22.57,0,0,1,8.51,16.13,22.15,22.15,0,0,1-6.2,16.81A25.83,25.83,0,0,1,604.85,566.35Z"/><path class="cls-7" d="M387,351H362.86a67.76,67.76,0,0,0-67.76,67.76V620.57c0,5.43,4.4,7.82,9.82,7.82H445c5.43,0,9.83-1.39,9.83-6.82V418.76A67.76,67.76,0,0,0,387,351Z"/><path class="cls-2" d="M448.13,632.12H302.9a9.24,9.24,0,0,1-9.23-9.23V418.29a70.13,70.13,0,0,1,70.05-70.05h23.59a70.14,70.14,0,0,1,70.05,70.05v204.6A9.24,9.24,0,0,1,448.13,632.12ZM363.72,352.24a66.12,66.12,0,0,0-66.05,66.05v204.6a5.23,5.23,0,0,0,5.23,5.23H448.13a5.23,5.23,0,0,0,5.23-5.23V418.29a66.12,66.12,0,0,0-66.05-66.05Z"/><path class="cls-2" d="M296,172.08a20.79,20.79,0,0,0-17.84-7.77,8.41,8.41,0,0,1,6.12-3.71,35.77,35.77,0,0,0-6.06-4.23,34.88,34.88,0,0,1,36.3,14.12"/><path class="cls-2" d="M295.2,191.2a20.79,20.79,0,0,0-17.84-7.77,8.43,8.43,0,0,1,6.12-3.71,35.77,35.77,0,0,0-6.06-4.23,34.88,34.88,0,0,1,36.3,14.12"/><path class="cls-2" d="M456.94,200.3a20.76,20.76,0,0,1,17.84-7.77,8.41,8.41,0,0,0-6.12-3.72,35.94,35.94,0,0,1,6.06-4.23,34.89,34.89,0,0,0-36.3,14.12"/><path class="cls-2" d="M458.4,170.79A20.78,20.78,0,0,1,476.24,163a8.47,8.47,0,0,0-6.12-3.72,35.32,35.32,0,0,1,6.06-4.22,34.88,34.88,0,0,0-36.3,14.12"/><path class="cls-30" d="M357.59,254.32l39.76.75h0l-1.19,85.44a19.85,19.85,0,0,1-20.22,19.55h0a20,20,0,0,1-19.57-20.3l1.18-85.44Z"/><path class="cls-41" d="M398.35,316.48l-2.5,20.73c-4.43.85-9.47.73-13.56-1.09a110.78,110.78,0,0,0-23.89-7.61l-.17,0,.2-12a113.7,113.7,0,0,0,39.92,0Z"/><path class="cls-42" d="M395.64,352.51h0a2,2,0,0,1-2-2L394.8,267l-35.8-.68-1.16,83.42a2,2,0,0,1-2,2,2,2,0,0,1-2-2L355,264.29a2,2,0,0,1,.62-1.41,1.9,1.9,0,0,1,1.44-.56l39.78.75a2,2,0,0,1,2,2l-1.19,85.44A2,2,0,0,1,395.64,352.51Z"/><circle class="cls-43" cx="343.66" cy="315.58" r="1.06"/><circle class="cls-43" cx="358.35" cy="320.69" r="1.4"/><ellipse class="cls-7" cx="342.78" cy="306.43" rx="4.24" ry="2.43" transform="translate(-55.97 535.35) rotate(-71.66)"/><circle class="cls-43" cx="350.43" cy="308.78" r="1.37"/><circle class="cls-43" cx="346.28" cy="311.21" r="1.06"/><circle class="cls-43" cx="347.67" cy="301.47" r="1.4"/><path class="cls-30" d="M297.64,195.66l9.76.2A23.12,23.12,0,0,1,330,219.39h0A23,23,0,0,1,306.58,242l-9.75-.2a23.13,23.13,0,0,1-22.63-23.53h0A23,23,0,0,1,297.64,195.66Z"/><path class="cls-2" d="M266.88,220h0a2,2,0,0,1-2-2,24.82,24.82,0,0,1,2.88-11.24,25.5,25.5,0,0,1,2-3.17,2,2,0,0,1,3.22,2.38,21,21,0,0,0-4.09,12.1A2,2,0,0,1,266.88,220Z"/><path class="cls-2" d="M299.74,243.68h-.52l-9.76-.2a25,25,0,0,1-22.95-16.18,2,2,0,0,1,3.74-1.42,21,21,0,0,0,19.29,13.6l9.76.2A21,21,0,0,0,320.69,219,21.15,21.15,0,0,0,300,197.54l-9.75-.19a20.84,20.84,0,0,0-10.92,2.8,2,2,0,0,1-2-3.46,24.92,24.92,0,0,1,13-3.34l9.75.19a25.15,25.15,0,0,1,24.58,25.57,25,25,0,0,1-24.95,24.57Z"/><path class="cls-44" d="M294.43,214.53l5.08.11a12,12,0,0,1,11.78,12.23h0a12,12,0,0,1-12.2,11.76l-5.08-.1a12,12,0,0,1-11.78-12.24h0A12,12,0,0,1,294.43,214.53Z"/><path class="cls-7" d="M282.5,210a8.6,8.6,0,0,1,4.27-4.68c1.68-.66,1-3.41-.76-2.74a11.15,11.15,0,0,0-6,6c-.72,1.66,1.73,3.11,2.46,1.43Z"/><ellipse class="cls-7" cx="279.25" cy="215.36" rx="2.28" ry="1.82" transform="translate(25.4 460.15) rotate(-81.6)"/><path class="cls-30" d="M452.52,195.66l9.75.2a23.11,23.11,0,0,1,22.62,23.53h0A23,23,0,0,1,461.46,242l-9.76-.2a23.12,23.12,0,0,1-22.62-23.53h0A23,23,0,0,1,452.52,195.66Z"/><path class="cls-2" d="M461.94,243.68h-.52l-9.76-.2a25.14,25.14,0,0,1-24.58-25.56,25,25,0,0,1,25.48-24.56h0l9.75.19a25.15,25.15,0,0,1,24.58,25.57,25,25,0,0,1-24.95,24.57ZM452,197.34a21,21,0,0,0-21,20.64,21.14,21.14,0,0,0,20.66,21.49l9.76.2A21,21,0,0,0,482.89,219a21.15,21.15,0,0,0-20.66-21.5l-9.75-.19Z"/><path class="cls-44" d="M456.63,214.53l5.08.11a12,12,0,0,1,11.78,12.23h0a12,12,0,0,1-12.2,11.76l-5.08-.1a12,12,0,0,1-11.78-12.24h0A12,12,0,0,1,456.63,214.53Z"/><path class="cls-7" d="M440.06,212.35a8.64,8.64,0,0,1,4.27-4.68c1.69-.66.95-3.42-.75-2.74a11.14,11.14,0,0,0-6,6c-.72,1.67,1.73,3.12,2.45,1.44Z"/><ellipse class="cls-7" cx="436.82" cy="217.67" rx="2.28" ry="1.82" transform="translate(157.66 618) rotate(-81.6)"/><path class="cls-45" d="M463.11,143.05v95.82a85.65,85.65,0,0,1-171.3,0V143.05a85.44,85.44,0,0,1,27.9-63.25c15,9.09,35.32,14.67,57.75,14.67s42.77-5.58,57.76-14.66c1,.87,1.89,1.76,2.8,2.68A85.34,85.34,0,0,1,463.11,143.05Z"/><path class="cls-7" d="M385.17,323.27c-2.19.18-4.42.26-6.65.26-47.31,0-90.73-37.74-85.66-85.65V142.06A85.41,85.41,0,0,1,320.77,78.8c2.71,1.65,2.13,3.19,5.17,4.59-14.42,15.32-25.57,36-25.57,58.67v95.82C300.37,283,335.09,321.8,385.17,323.27Z"/><circle class="cls-30" cx="425.98" cy="189.17" r="6.28"/><path class="cls-41" d="M438.49,82.89c-.91-.92-1.84-1.81-2.8-2.68a84.92,84.92,0,0,1-8.85,4.67c.39.42.76.86,1.15,1.28C400.5,99.29,371.9,96.28,371.6,96.25a2.31,2.31,0,1,0-.52,4.6,82.94,82.94,0,0,0,8.79.39c11.17,0,31.35-1.64,51.22-11.44A85.24,85.24,0,0,1,450,143.45v95.82a85.64,85.64,0,0,1-78.86,85.39c2.24.17,4.51.27,6.79.27a85.65,85.65,0,0,0,85.65-85.66V143.45A85.36,85.36,0,0,0,438.49,82.89Z"/><path class="cls-42" d="M281.68,222a1.49,1.49,0,0,1-1.18-2.42,20.2,20.2,0,0,1,11.4-6.92,1.52,1.52,0,0,1,1.81,1.11,1.5,1.5,0,0,1-1.11,1.81,17,17,0,0,0-9.73,5.85A1.5,1.5,0,0,1,281.68,222Z"/><path class="cls-42" d="M474.66,222a1.47,1.47,0,0,1-1.18-.57,17,17,0,0,0-9.74-5.85,1.5,1.5,0,0,1,.71-2.92,20.21,20.21,0,0,1,11.39,6.92,1.49,1.49,0,0,1-1.18,2.42Z"/><path class="cls-2" d="M379.69,254.49a2,2,0,0,1-1.89-1.34c-2.21-6.32-3.27-11.23-3.43-15.92V223.91a2,2,0,1,1,4,0v13.25c.14,4.21,1.13,8.75,3.21,14.67a2,2,0,0,1-1.23,2.55A2.17,2.17,0,0,1,379.69,254.49Z"/><path class="cls-2" d="M299.08,275.19a2,2,0,0,1-1.72-1,29.49,29.49,0,0,1-2.18-6.09,2,2,0,0,1,3.88-1,25.45,25.45,0,0,0,1.73,5,2,2,0,0,1-.68,2.75A2,2,0,0,1,299.08,275.19Z"/><ellipse class="cls-40" cx="349.41" cy="212.4" rx="11.01" ry="13.94"/><ellipse class="cls-2" cx="348.93" cy="209.37" rx="10.86" ry="13.75"/><ellipse class="cls-7" cx="345.05" cy="204.37" rx="4" ry="4.37"/><ellipse class="cls-40" cx="406.64" cy="212.4" rx="11.01" ry="13.94"/><ellipse class="cls-2" cx="406.16" cy="209.37" rx="10.86" ry="13.75"/><ellipse class="cls-7" cx="402.28" cy="204.37" rx="4" ry="4.37"/><path class="cls-46" d="M346.23,254.08h57.09a0,0,0,0,1,0,0v13.11a28.54,28.54,0,0,1-28.54,28.54h0a28.54,28.54,0,0,1-28.54-28.54V254.08a0,0,0,0,1,0,0Z"/><ellipse class="cls-47" cx="374.77" cy="272.93" rx="17.4" ry="10.8"/><path class="cls-7" d="M351,252.77h48.24a3.48,3.48,0,0,1,3.48,3.48V267.9a0,0,0,0,1,0,0h-55.2a0,0,0,0,1,0,0V256.25A3.48,3.48,0,0,1,351,252.77Z" transform="translate(750.15 520.66) rotate(180)"/><path class="cls-48" d="M351.22,262.4h47.71a3.74,3.74,0,0,1,3.74,3.74v1.76a0,0,0,0,1,0,0h-55.2a0,0,0,0,1,0,0v-1.76A3.74,3.74,0,0,1,351.22,262.4Z" transform="translate(750.15 530.29) rotate(180)"/><path class="cls-42" d="M402.67,269.4h-55.2a1.5,1.5,0,0,1,0-3h55.2a1.5,1.5,0,0,1,0,3Z"/><path class="cls-42" d="M375.07,296.19a30.57,30.57,0,0,1-30.54-30.54v-6.78a8.35,8.35,0,0,1,8.34-8.34h44.41a8.35,8.35,0,0,1,8.34,8.34v6.78A30.58,30.58,0,0,1,375.07,296.19Zm-22.2-41.66a4.35,4.35,0,0,0-4.34,4.34v6.78a26.55,26.55,0,0,0,53.09,0v-6.78a4.35,4.35,0,0,0-4.34-4.34Z"/><path class="cls-2" d="M377.39,326.52A88.11,88.11,0,0,1,302,283.57a2,2,0,0,1,3.44-2,83.67,83.67,0,0,0,155.63-42.66V143.05A83.12,83.12,0,0,0,436.54,83.9c-.57-.57-1.12-1.11-1.65-1.61-15.74,9.16-36.09,14.18-57.5,14.18s-41.76-5-57.48-14.19a83.88,83.88,0,0,0-26.17,60.77v95.82A84.52,84.52,0,0,0,295.1,254a2,2,0,0,1-3.94.71,88.68,88.68,0,0,1-1.42-15.8V143.05a87.9,87.9,0,0,1,28.55-64.73,2,2,0,0,1,2.39-.23C336,87.37,356.1,92.47,377.39,92.47s41.43-5.1,56.73-14.37a2,2,0,0,1,2.38.23c.91.82,1.85,1.72,2.87,2.74a87.08,87.08,0,0,1,25.68,62v95.82A87.75,87.75,0,0,1,377.39,326.52Z"/><circle class="cls-7" cx="360.36" cy="56.26" r="1.54"/><circle class="cls-7" cx="364.93" cy="54.73" r="1"/><path class="cls-7" d="M488.87,38.89a37.76,37.76,0,0,0-62.51-26.18,37.73,37.73,0,0,0-49.59,0,37.75,37.75,0,0,0-49.6,0,37.78,37.78,0,1,0-35.84,64.62l-3.57,74.47a8.56,8.56,0,0,0,8.55,9H462.12a6.51,6.51,0,0,0,6.49-7.06l-6.4-76.38A37.78,37.78,0,0,0,488.87,38.89Z"/><path class="cls-39" d="M416.34,78.21v83.43s41.47,4.85,47.24-.29c12.49-11.13-1.53-86.21-1.53-86.21,21.91-4.52,26.21-16,26.6-33.07.68-29.58-16.92-37.78-37.79-37.78A37.5,37.5,0,0,0,428.09,12a37.79,37.79,0,0,1-11.75,66.26Z"/><rect class="cls-39" x="290.89" y="135.74" width="170.4" height="5.14"/><path class="cls-2" d="M389.82,137.14h-96.6a1.5,1.5,0,0,1,0-3h96.6a1.5,1.5,0,1,1,0,3Z"/><path class="cls-2" d="M462.65,137.14H436.06a1.5,1.5,0,0,1,0-3h26.59a1.5,1.5,0,0,1,0,3Z"/><path class="cls-2" d="M486.9,57.14a1.94,1.94,0,0,1-.71-.13A2,2,0,0,1,485,54.44a35.83,35.83,0,0,0,2.3-12.66c0-7-.91-12.56-2.77-17.1a2,2,0,1,1,3.7-1.51c2.07,5,3.07,11.12,3.07,18.61a39.57,39.57,0,0,1-2.56,14.07A2,2,0,0,1,486.9,57.14Z"/><path class="cls-2" d="M323.89,118.16a1.51,1.51,0,0,1-1.5-1.5V76.05a1.5,1.5,0,0,1,3,0v40.61A1.5,1.5,0,0,1,323.89,118.16Z"/><path class="cls-2" d="M360.8,118.16a1.5,1.5,0,0,1-1.5-1.5V76.05a1.5,1.5,0,0,1,3,0v40.61A1.5,1.5,0,0,1,360.8,118.16Z"/><path class="cls-2" d="M434.61,119a1.5,1.5,0,0,1-1.5-1.5V76.93a1.5,1.5,0,0,1,3,0v40.6A1.5,1.5,0,0,1,434.61,119Z"/><path class="cls-2" d="M397.7,119a1.5,1.5,0,0,1-1.5-1.5V76.93a1.5,1.5,0,0,1,3,0v40.6A1.5,1.5,0,0,1,397.7,119Z"/><path class="cls-2" d="M319.21,188.23c12.45-2.63,31.44-5.18,46.45-.83a4.15,4.15,0,0,1-.18,8h0a4.13,4.13,0,0,1-2.41-.12,113.36,113.36,0,0,0-43.63-5.51A.78.78,0,0,1,319.21,188.23Z"/><path class="cls-2" d="M435.76,187.84c-12.44-2.63-31.43-5.18-46.44-.83a4.15,4.15,0,0,0,.18,8h0a4.13,4.13,0,0,0,2.41-.12,113.3,113.3,0,0,1,43.62-5.51A.78.78,0,0,0,435.76,187.84Z"/><path class="cls-2" d="M399.44,362.23l-2.53.28a147.54,147.54,0,0,1-40-1l-3.73-.61a8.43,8.43,0,0,1-7.08-8.56v0a8.44,8.44,0,0,1,9.78-8.1l1.66.27a147.68,147.68,0,0,0,40.06,1h0a8.45,8.45,0,0,1,9.38,8.62h0A8.45,8.45,0,0,1,399.44,362.23Z"/><path class="cls-39" d="M376.86,392.92l-.75,16.69c-.39,8.61-.79,17.24-2.38,25.71-1.77,9.41-5,18.83-3.73,28.31a4.18,4.18,0,0,0,.88,2.39,4.5,4.5,0,0,0,3.11,1.05,130.54,130.54,0,0,0,17.69.09,10.66,10.66,0,0,0,5.27-1.29c2.87-1.88,3.37-5.8,3.59-9.22,1.52-23.74,2.83-48.66-7.31-70.18"/><path class="cls-39" d="M381.45,464c2.44,13,14.92,23.06,17.14,35.51a1.6,1.6,0,0,0,3.16,0v-.06q.9-7.75,1.81-15.51a296.42,296.42,0,0,0,2.47-30,148.67,148.67,0,0,0-14.94-67"/><path class="cls-39" d="M369.79,367.46H398.9a0,0,0,0,1,0,0v25.38a9,9,0,0,1-9,9H378.76a9,9,0,0,1-9-9V367.46A0,0,0,0,1,369.79,367.46Z" transform="translate(-58.79 69.52) rotate(-9.6)"/><circle class="cls-39" cx="417.66" cy="415.24" r="5.84"/><circle class="cls-39" cx="417.66" cy="450.88" r="5.84"/><circle class="cls-39" cx="417.66" cy="486.52" r="5.84"/><circle class="cls-39" cx="417.66" cy="522.16" r="5.84"/><circle class="cls-39" cx="335.87" cy="415.24" r="5.84"/><circle class="cls-39" cx="335.87" cy="450.88" r="5.84"/><circle class="cls-39" cx="335.87" cy="486.52" r="5.84"/><circle class="cls-39" cx="335.87" cy="522.16" r="5.84"/><path class="cls-2" d="M316,523a1.5,1.5,0,0,1-1.5-1.5V369.75a1.5,1.5,0,0,1,3,0V521.48A1.5,1.5,0,0,1,316,523Z"/><path class="cls-2" d="M436.36,523a1.5,1.5,0,0,1-1.5-1.5V369.75a1.5,1.5,0,0,1,3,0V521.48A1.5,1.5,0,0,1,436.36,523Z"/><path class="cls-2" d="M316,575.28a1.5,1.5,0,0,1-1.5-1.5V543.05a1.5,1.5,0,0,1,3,0v30.73A1.5,1.5,0,0,1,316,575.28Z"/><path class="cls-2" d="M436.36,576.28a1.5,1.5,0,0,1-1.5-1.5V543.05a1.5,1.5,0,0,1,3,0v31.73A1.5,1.5,0,0,1,436.36,576.28Z"/><path class="cls-2" d="M316,630.37a1.5,1.5,0,0,1-1.5-1.5V598.14a1.5,1.5,0,0,1,3,0v30.73A1.5,1.5,0,0,1,316,630.37Z"/><path class="cls-2" d="M436.36,631.37a1.5,1.5,0,0,1-1.5-1.5V598.14a1.5,1.5,0,0,1,3,0v31.73A1.5,1.5,0,0,1,436.36,631.37Z"/><path class="cls-2" d="M592.26,596.11a6.31,6.31,0,0,1-1.86-.28,6.42,6.42,0,0,1-4.31-8,1,1,0,0,1,1.24-.67,1,1,0,0,1,.67,1.25,4.44,4.44,0,1,0,8.51,2.55,1,1,0,0,1,1.92.58,6.45,6.45,0,0,1-6.17,4.59Z"/><path class="cls-2" d="M665.35,476.56a1.58,1.58,0,0,1-.52-.09l-59-22.21a1.5,1.5,0,0,1-.88-1.93l26.71-71a1.5,1.5,0,0,1,1.93-.88l59,22.21a1.48,1.48,0,0,1,.87,1.93l-26.7,71A1.51,1.51,0,0,1,665.35,476.56ZM608.29,452l56.19,21.15L690.13,405l-56.19-21.15Z"/><path class="cls-2" d="M672.49,428.16a.85.85,0,0,1-.79-.55l-8.77-22.53a.86.86,0,0,1,.49-1.11.84.84,0,0,1,1.11.49L673.29,427a.85.85,0,0,1-.49,1.11A.81.81,0,0,1,672.49,428.16Z"/><path class="cls-2" d="M636.94,452.2a.86.86,0,0,1-.8-.55l-8.76-22.54a.85.85,0,1,1,1.59-.62L637.74,451a.86.86,0,0,1-.49,1.11A.85.85,0,0,1,636.94,452.2Z"/><path class="cls-2" d="M646.45,456a.86.86,0,0,1-.8-.55l-13.77-36.06a.86.86,0,0,1,1.6-.61l13.77,36.06a.85.85,0,0,1-.49,1.1A.81.81,0,0,1,646.45,456Z"/><path class="cls-2" d="M656.72,460.46a.86.86,0,0,1-.8-.55l-20.53-53.08a.86.86,0,0,1,1.6-.62l20.53,53.08a.86.86,0,0,1-.8,1.17Z"/><path class="cls-2" d="M662,450.44a.85.85,0,0,1-.8-.55l-20.53-53.08a.86.86,0,0,1,1.6-.62l20.53,53.09a.86.86,0,0,1-.8,1.16Z"/><path class="cls-2" d="M666.74,437.92a.88.88,0,0,1-.81-.55l-13.77-36.05a.86.86,0,0,1,.5-1.11.84.84,0,0,1,1.1.5l13.78,36.05a.87.87,0,0,1-.5,1.11A.79.79,0,0,1,666.74,437.92Z"/><path class="cls-2" d="M327.56,15.29a2,2,0,0,1-1.31-.49,35.75,35.75,0,0,0-44.66-1.86,2,2,0,1,1-2.37-3.22,39.74,39.74,0,0,1,48.34,1,39.47,39.47,0,0,1,18.77-8.23,2,2,0,0,1,.6,4,35.66,35.66,0,0,0-18.06,8.39A2,2,0,0,1,327.56,15.29Z"/><path class="cls-2" d="M377.16,15.29a2,2,0,0,1-1.32-.49c-6.3-5.49-12.63-8.69-18.81-9.5a2,2,0,0,1,.52-4c6.53.85,13.12,4,19.6,9.33C385.67,3.59,394,0,402,0s16.29,3.59,24.81,10.68A39.77,39.77,0,0,1,451.55,2c4,0,17.5.44,25.61,6.05a2,2,0,1,1-2.27,3.29C469.2,7.4,459.1,6,451.55,6a35.75,35.75,0,0,0-23.49,8.8,2,2,0,0,1-2.62,0C417.21,7.63,409.31,4,402,4S386.7,7.63,378.47,14.8A2,2,0,0,1,377.16,15.29Z"/><g class="cls-20"><path class="cls-26" d="M223.51,419.08h-.29a1.5,1.5,0,1,1,0-3h.29a1.5,1.5,0,0,1,0,3Z"/><path class="cls-26" d="M219.17,419.08H216.5a1.5,1.5,0,1,1,0-3h2.67a1.5,1.5,0,1,1,0,3Z"/></g><g class="cls-20"><path class="cls-26" d="M234.44,419.08h-6a1.5,1.5,0,0,1,0-3h3V401H184.68v15.06h27.19a1.5,1.5,0,1,1,0,3H181.68V398h52.76Z"/><path class="cls-26" d="M194.18,455.19h-12.5V434.13h37.14a1.5,1.5,0,1,1,0,3H184.68v15.06h9.5a1.5,1.5,0,0,1,0,3Z"/><path class="cls-26" d="M204,455.19h-5.41a1.5,1.5,0,0,1,0-3H204a1.5,1.5,0,0,1,0,3Z"/><path class="cls-26" d="M208.11,455.19h-.06a1.5,1.5,0,0,1,0-3h.11a1.5,1.5,0,1,1,0,3Z"/><path class="cls-26" d="M234.44,455.19H212.36a1.5,1.5,0,1,1,0-3h19.08V437.13h-6.62a1.5,1.5,0,0,1,0-3h9.67Z"/><path class="cls-26" d="M209.16,437.13H156.4V416.08h52.76Zm-49.76-3h46.76V419.08H159.4Z"/></g><circle class="cls-2" cx="417.66" cy="411.4" r="5.84"/><circle class="cls-2" cx="417.66" cy="447.04" r="5.84"/><circle class="cls-2" cx="417.66" cy="482.68" r="5.84"/><circle class="cls-2" cx="417.66" cy="518.32" r="5.84"/><circle class="cls-2" cx="335.87" cy="411.4" r="5.84"/><circle class="cls-2" cx="335.87" cy="447.04" r="5.84"/><circle class="cls-2" cx="335.87" cy="482.68" r="5.84"/><circle class="cls-2" cx="335.87" cy="518.32" r="5.84"/><circle class="cls-39" cx="417.66" cy="557.8" r="5.84"/><circle class="cls-39" cx="335.87" cy="557.8" r="5.84"/><circle class="cls-2" cx="417.66" cy="553.95" r="5.84"/><circle class="cls-2" cx="335.87" cy="553.95" r="5.84"/><circle class="cls-39" cx="417.58" cy="589.84" r="5.84"/><circle class="cls-39" cx="335.79" cy="589.84" r="5.84"/><circle class="cls-2" cx="417.58" cy="586" r="5.84"/><circle class="cls-2" cx="335.79" cy="586" r="5.84"/><path class="cls-49" d="M373.78,161.64l0,.71c-16.36,12.77-55.94,15.67-73.48,16.32-3.5.14-13.13.18-14.51.19l3-17.22Z"/><path class="cls-50" d="M290.31,166.8l1.45-5.16h82l0,.71c-12.61,2.62-22.82,5.09-36.29,6.19a97.08,97.08,0,0,1-13.1.15Z"/><path class="cls-2" d="M286.78,180.58h0a2,2,0,0,1-1.53-.71,2,2,0,0,1-.44-1.62l3.26-19.19a2,2,0,1,1,3.94.67l-2.86,16.83c11.9-.18,65.2-1.8,83.49-16.08a2,2,0,0,1,2.46,3.15c-9.15,7.14-26.83,12.16-52.56,14.92C303.83,180.56,287.45,180.58,286.78,180.58Z"/><path class="cls-2" d="M461.48,163.35H294.19c-4.11,0-7.15-3-8.13-8.08-5.24-27.05,1.68-67.08,3.36-76a39.79,39.79,0,0,1-19.19-60.38,2,2,0,0,1,3.27,2.3A35.79,35.79,0,0,0,292.3,76a2,2,0,0,1,1.38,2.31c-.1.47-9.34,47-3.69,76.2.28,1.45,1.26,4.84,4.2,4.84H461.48a4.62,4.62,0,0,0,4.61-4.95v-.11c0-.57-1.2-57.9-5.44-75.92-1.27-5.38,4.61-7,8.91-8.11,2.72-.73,5.54-1.48,6.9-2.8a2,2,0,0,1,2.79,2.87c-2.11,2-5.44,2.93-8.66,3.8-5,1.35-6.35,2.07-6,3.33,4.31,18.32,5.48,73.71,5.54,76.71a8.62,8.62,0,0,1-8.6,9.18Z"/><ellipse class="cls-51" cx="452.88" cy="41.97" rx="4.44" ry="7.4"/><circle class="cls-51" cx="446.69" cy="28.44" r="1.75"/><circle class="cls-51" cx="447.59" cy="57.36" r="2.64"/><rect class="cls-2" x="363.37" y="631.12" width="3" height="3.5"/><path class="cls-2" d="M370.34,674.85a14.76,14.76,0,0,1-5-5.18l2.6-1.5a11.81,11.81,0,0,0,4,4.13Zm-6.57-9a14.68,14.68,0,0,1-.4-3.43v-3.44h3v3.44a11.92,11.92,0,0,0,.32,2.73Zm2.6-10.61h-3v-6.55h3Zm0-10.29h-3v-6.55h3Z"/><path class="cls-2" d="M378,677a14.64,14.64,0,0,1-3.85-.51l.78-2.9A11.77,11.77,0,0,0,378,674Z"/><path class="cls-2" d="M377.85,691.37a1.5,1.5,0,0,1-1.5-1.5v-59.1a1.5,1.5,0,0,1,3,0v59.1A1.5,1.5,0,0,1,377.85,691.37Z"/><path class="cls-2" d="M400.23,398.16a95,95,0,0,0-2.66-12.56,8.93,8.93,0,0,0,2.49-7.82l-4.23-25-28.71,4.85,4.24,25a9,9,0,0,0,5.1,6.66q-.18,3.88-.35,7.79c-.39,8.61-.79,17.25-2.38,25.71-1.77,9.41-5,18.83-3.73,28.31a4.24,4.24,0,0,0,.88,2.4,4.54,4.54,0,0,0,3.11,1c2.77.2,5.56.31,8.34.33,3.71,11.38,14.24,20.77,16.26,32.1a1.6,1.6,0,0,0,3.16,0v-.06q.9-7.75,1.81-15.51a296.46,296.46,0,0,0,2.47-30A148.66,148.66,0,0,0,400.23,398.16Z"/></g></g></svg>