<svg xmlns="http://www.w3.org/2000/svg" viewBox="0 0 121.88 183.32"><defs><style>.cls-1{fill:#ffc871;}.cls-2{fill:#f68e2a;}.cls-10,.cls-16,.cls-17,.cls-22,.cls-23,.cls-28,.cls-29,.cls-3,.cls-33,.cls-5,.cls-6,.cls-7,.cls-9{fill:none;}.cls-10,.cls-22,.cls-28,.cls-3,.cls-5,.cls-6,.cls-7,.cls-9{stroke:#1f1712;}.cls-10,.cls-16,.cls-17,.cls-22,.cls-23,.cls-28,.cls-3,.cls-5,.cls-6,.cls-7,.cls-9{stroke-linecap:round;stroke-linejoin:round;}.cls-4{fill:#1f1712;}.cls-17,.cls-5,.cls-6{stroke-width:0.5px;}.cls-6{stroke-dasharray:0.94 1.88;}.cls-7{stroke-width:0.9px;}.cls-21,.cls-24,.cls-8{fill:#fff;}.cls-10,.cls-9{stroke-width:0.68px;}.cls-10{stroke-dasharray:0.92 1.84;}.cls-11{opacity:0.15;}.cls-12,.cls-13{fill:#88d9fc;}.cls-13{opacity:0.25;}.cls-14{fill:#ffc4a4;}.cls-15{fill:#ff9976;}.cls-16,.cls-17,.cls-23{stroke:#fff;}.cls-16{stroke-width:1.2px;}.cls-18{fill:#dc59fc;}.cls-19{fill:#ba17e2;}.cls-20{fill:#eda4ff;}.cls-21,.cls-31{opacity:0.4;}.cls-22{stroke-width:0.75px;}.cls-23{stroke-width:2px;}.cls-24{opacity:0.55;isolation:isolate;}.cls-25{fill:#181828;}.cls-26{fill:#fcc6a6;}.cls-27{fill:#e89176;opacity:0.62;}.cls-28{stroke-width:1.44px;}.cls-29{stroke:#181828;}.cls-29,.cls-33{stroke-miterlimit:10;}.cls-30{fill:#af143b;}.cls-31{fill:#670118;}.cls-32{fill:#d2f2ff;}.cls-33{stroke:#403126;stroke-width:0.53px;}.cls-34{fill:#ea3d90;}.cls-35{fill:#c60c6e;}.cls-36{fill:#ffe8dc;}</style></defs><title>Asset 18</title><g id="Layer_2" data-name="Layer 2"><g id="Layer_1-2" data-name="Layer 1"><path class="cls-1" d="M45.37,137.27s8.76,22.78,7.88,40h7.89v-37.1l-14.6-2.92Z"/><path class="cls-1" d="M76.92,137.27s-8.77,22.78-7.89,40H61.14v-37.1l14.61-2.92Z"/><path class="cls-2" d="M68.15,179.92H66c-.83-16.26,6.92-37.45,7.81-39.8l1.1-.22H76S67.27,162.68,68.15,179.92Z"/><path class="cls-2" d="M75,142.84c-.34,1-.71,2.22-1.1,3.52h0a17.44,17.44,0,0,1-12.91,5.92h-.2A17.41,17.41,0,0,1,48.24,147c-.35-1.16-.68-2.25-1-3.23a17.47,17.47,0,0,0,13.49,6.36h.2A17.43,17.43,0,0,0,75,142.84Z"/><path class="cls-3" d="M45.37,137.27s8.76,22.78,7.88,40h7.89v-37.1l-14.6-2.92Z"/><path class="cls-3" d="M76.92,137.27s-8.77,22.78-7.89,40H61.14v-37.1l14.61-2.92Z"/><path class="cls-4" d="M44.9,174.68H59.26a1.8,1.8,0,0,1,1.8,1.8v0a6.84,6.84,0,0,1-6.84,6.84H45a1.13,1.13,0,0,1-1.13-1.13v-6.52A1,1,0,0,1,44.9,174.68Z" transform="translate(104.96 358) rotate(180)"/><path class="cls-4" d="M50.72,172H58a0,0,0,0,1,0,0v3.2a1.56,1.56,0,0,1-1.56,1.56H52.28a1.56,1.56,0,0,1-1.56-1.56V172a0,0,0,0,1,0,0Z" transform="translate(108.69 348.68) rotate(-180)"/><path class="cls-4" d="M62,174.68h9.19A6.84,6.84,0,0,1,78,181.52v.8a1,1,0,0,1-1,1H61.85a1,1,0,0,1-1-1v-6.52A1.13,1.13,0,0,1,62,174.68Z"/><path class="cls-4" d="M65.5,172h4.13a1.56,1.56,0,0,1,1.56,1.56v3.2a0,0,0,0,1,0,0H63.94a0,0,0,0,1,0,0v-3.2A1.56,1.56,0,0,1,65.5,172Z"/><line class="cls-5" x1="63.27" y1="175.33" x2="63.27" y2="174.83"/><line class="cls-6" x1="63.27" y1="172.95" x2="63.27" y2="151.29"/><line class="cls-5" x1="63.27" y1="150.34" x2="63.27" y2="149.84"/><line class="cls-5" x1="58.31" y1="175.33" x2="58.31" y2="174.83"/><line class="cls-6" x1="58.31" y1="172.95" x2="58.31" y2="151.29"/><line class="cls-5" x1="58.31" y1="150.34" x2="58.31" y2="149.84"/><circle class="cls-1" cx="60.74" cy="134.76" r="15.76"/><path class="cls-2" d="M72.25,140.2c1.14-4.84-13,2.43-16.61-2.92a35.91,35.91,0,0,0,4.32.24v-.09h.89v.09c7.81,0,12.39-2.11,14.62-3.56a3.47,3.47,0,0,0,.43-.35c0,.49.07,1,.07,1.49a15.76,15.76,0,0,1-15.43,15.76C54.43,151,71.19,144.67,72.25,140.2Z"/><circle class="cls-7" cx="60.74" cy="134.76" r="15.76"/><path class="cls-8" d="M47.13,137.39a8.64,8.64,0,0,0,1.8,5c.52.69,1.69,0,1.17-.68a7.47,7.47,0,0,1-1.62-4.29.68.68,0,0,0-1.35,0Z"/><circle class="cls-8" cx="51.38" cy="143.88" r="0.92"/><line class="cls-9" x1="60.2" y1="146.3" x2="59.75" y2="146.3"/><path class="cls-10" d="M57.91,146.26a.89.89,0,0,1-.6-.84v-6.27"/><line class="cls-9" x1="57.31" y1="138.23" x2="57.31" y2="137.77"/><line class="cls-9" x1="60.99" y1="150.6" x2="60.99" y2="137.17"/><g class="cls-11"><path class="cls-12" d="M51.62,78.15c-.84-2.83-4.15-4.07-7.08-4.36-8.9-.89-18.12,3.09-26.66.42A18.36,18.36,0,0,1,5.38,56.53a13.63,13.63,0,0,1,4.44-10c3.55-3,8.61-3.42,12.5-5.92,6.61-4.25,8.22-13,12.56-19.6,6.64-10,20-14.26,31.87-12.39a22.11,22.11,0,0,1,6.58,1.95C82,15,84.68,26.52,92.81,31.79c2.94,1.9,6.37,2.83,9.65,4.06a35.08,35.08,0,0,1,13.68,8.6c3.69,4,6.08,9.38,5.7,14.8a30.86,30.86,0,0,1-2.68,9.44c-1.68,4.11-3.54,8.26-6.62,11.46C106.15,86.78,96,87.9,86.78,87.29c-4.24-.28-8.59-.87-12.3-3s-6.68-6-6.62-10.2"/></g><path class="cls-13" d="M20.34,9.42A7.62,7.62,0,0,0,14,12.86,7.61,7.61,0,1,0,7.61,24.63H20.34a7.61,7.61,0,1,0,0-15.21Z"/><path class="cls-13" d="M109.35,20.7a4.36,4.36,0,0,0-3.64,2,4.34,4.34,0,1,0-3.63,6.72h7.27a4.34,4.34,0,1,0,0-8.68Z"/><path class="cls-8" d="M11.82,55.69a4.34,4.34,0,0,0-3.63,2,4.34,4.34,0,1,0-3.63,6.72h7.26a4.34,4.34,0,1,0,0-8.68Z"/><path class="cls-13" d="M104.16,40.61A6.12,6.12,0,0,0,99,43.38a6.12,6.12,0,1,0-5.11,9.47h10.23a6.12,6.12,0,1,0,0-12.24Z"/><path class="cls-13" d="M23,80.11a7.57,7.57,0,0,0-6.36,3.45,7.61,7.61,0,1,0-6.37,11.77H23a7.61,7.61,0,0,0,0-15.22Z"/><path class="cls-14" d="M81.2,105.45c2.53,10.91,2.68,24.06,2.68,24.06l-1.51,2.43-3.07.58-4.09-27.31Z"/><path class="cls-15" d="M77.79,105.55c2.53,10.91,2.68,24,2.68,24L79,132l-3.07.58L71.8,105.31Z"/><path class="cls-3" d="M82.33,111.38a143,143,0,0,1,1.55,18.13l-1.51,2.43-3.07.58"/><path class="cls-3" d="M81.2,105.45c.26,1.15.5,2.32.72,3.49"/><circle class="cls-14" cx="81.68" cy="134.06" r="5.7"/><path class="cls-16" d="M85.48,131.42a4.4,4.4,0,0,1,1,3.58"/><path class="cls-3" d="M87.24,135.3a5.71,5.71,0,1,0-1.14,2.35"/><path class="cls-14" d="M40.69,105.16C38.16,116.07,38,129.21,38,129.21l1.5,2.44,3.07.58,4.09-27.31Z"/><path class="cls-17" d="M39,121.52s.39-4.82,1.21-9.59"/><path class="cls-15" d="M44.1,105.26c-2.53,10.91-2.68,24-2.68,24l1.51,2.43,3.07.59L50.09,105Z"/><path class="cls-3" d="M39.56,111.08A141.93,141.93,0,0,0,38,129.21l1.5,2.44,3.07.58"/><path class="cls-3" d="M40.69,105.16c-.26,1.15-.5,2.31-.72,3.49"/><circle class="cls-14" cx="40.21" cy="133.76" r="5.7"/><path class="cls-16" d="M36.41,131.13a4.4,4.4,0,0,0-1,3.58"/><path class="cls-3" d="M34.65,135a5.59,5.59,0,0,1,.23-3.25,5.69,5.69,0,1,1,3.32,7.34,5.63,5.63,0,0,1-2.41-1.74"/><path class="cls-18" d="M73.57,93.53A12.4,12.4,0,0,0,66.11,84,32.28,32.28,0,0,0,61,82.34a.1.1,0,0,1,0,0l-.1,0-.1,0s0,0,0,0A32.62,32.62,0,0,0,55.79,84a12.4,12.4,0,0,0-7.46,9.55l-2,12.8L42.67,130a3.52,3.52,0,0,0,1.57,3.5c2.47,1.61,7.55,3.95,16.22,3.95v-.1h1v.1c8.67,0,13.75-2.34,16.23-3.95a3.55,3.55,0,0,0,1.57-3.5Z"/><path class="cls-18" d="M46.34,106.33c-4,2-8.91-2-8.91-2S41,85.37,55.79,84"/><path class="cls-18" d="M75.8,106.33a9.67,9.67,0,0,0,8.91-2S81.14,85.37,66.35,84"/><path class="cls-19" d="M81,106.38a9.88,9.88,0,0,1-5,0l-.38-.89L73.77,93.53a12.38,12.38,0,0,0-7.18-9.43l0-.13A16.49,16.49,0,0,1,71.08,85C76.41,91.77,79.71,101.9,81,106.38Z"/><rect class="cls-20" x="44.1" y="117.13" width="1.63" height="9.15" rx="0.82" transform="translate(20.35 -5.68) rotate(9.34)"/><rect class="cls-20" x="40.76" y="106.51" width="12.86" height="1.63" rx="0.82" transform="translate(-66.37 136.48) rotate(-80.66)"/><path class="cls-19" d="M77.23,133.61c-2.48,1.61-7.56,3.95-16.23,3.95v-.1H60a.45.45,0,0,1,0,.1c-8.67,0-13.75-2.34-16.22-3.95A3.5,3.5,0,0,1,42.22,131a32.5,32.5,0,0,0,14,2.72v-.09h1v.09c8.67,0,13.76-2.34,16.23-3.95a3.51,3.51,0,0,0,1.57-3.5L69.34,89.89a12.39,12.39,0,0,0-1.82-4.79,12.4,12.4,0,0,1,5.61,8.58l5.67,36.43A3.55,3.55,0,0,1,77.23,133.61Z"/><path class="cls-3" d="M73.57,93.53A12.4,12.4,0,0,0,66.11,84,32.28,32.28,0,0,0,61,82.34a.1.1,0,0,1,0,0l-.1,0-.1,0s0,0,0,0A32.62,32.62,0,0,0,55.79,84a12.4,12.4,0,0,0-7.46,9.55l-2,12.8L42.67,130a3.52,3.52,0,0,0,1.57,3.5c2.47,1.61,7.55,3.95,16.22,3.95v-.1h1v.1c8.67,0,13.75-2.34,16.23-3.95a3.55,3.55,0,0,0,1.57-3.5Z"/><path class="cls-3" d="M46.34,106.33c-4.62,1.66-8.91-2-8.91-2S41,85.37,55.79,84"/><path class="cls-3" d="M75.8,106.33c4.43,2,8.91-2,8.91-2S81.14,85.37,66.35,84"/><rect class="cls-21" x="46.4" y="121.8" width="1.01" height="5.67" rx="0.51" transform="translate(19.75 -5.74) rotate(8.86)"/><rect class="cls-21" x="48.78" y="110.23" width="1.01" height="5.67" rx="0.51" transform="translate(18 -6.24) rotate(8.86)"/><rect class="cls-21" x="50.3" y="97.48" width="1.01" height="5.67" rx="0.51" transform="translate(16.05 -6.63) rotate(8.86)"/><line class="cls-22" x1="72.92" y1="131.2" x2="73.51" y2="135"/><line class="cls-22" x1="72.29" y1="127.17" x2="72.57" y2="128.99"/><line class="cls-22" x1="69.12" y1="89.87" x2="69.72" y2="93.67"/><line class="cls-22" x1="68.49" y1="85.83" x2="68.78" y2="87.66"/><path class="cls-23" d="M45.39,91.94a16.59,16.59,0,0,1,6.13-6.86"/><circle class="cls-24" cx="56.66" cy="74.28" r="0.38"/><circle class="cls-4" cx="40.43" cy="90.05" r="8.1"/><circle class="cls-4" cx="38.58" cy="77.96" r="8.1"/><circle class="cls-4" cx="39.14" cy="64.65" r="8.1"/><circle class="cls-25" cx="40.43" cy="85.87" r="8.1"/><circle class="cls-4" cx="45.6" cy="90.87" r="7.87"/><circle class="cls-4" cx="43.8" cy="79.13" r="7.87"/><circle class="cls-4" cx="44.35" cy="66.21" r="7.87"/><circle class="cls-4" cx="51.06" cy="78.85" r="7.87"/><circle class="cls-4" cx="69.68" cy="79.27" r="7.87"/><circle class="cls-4" cx="55.17" cy="71.14" r="7.87"/><circle class="cls-4" cx="73.8" cy="71.56" r="7.87"/><circle class="cls-25" cx="44.33" cy="69.74" r="7.87"/><circle class="cls-25" cx="62.95" cy="70.16" r="7.87"/><circle class="cls-4" cx="39.29" cy="62.98" r="7.87"/><circle class="cls-4" cx="37.49" cy="51.24" r="7.87"/><circle class="cls-4" cx="38.04" cy="38.32" r="7.87"/><circle class="cls-4" cx="41.72" cy="28.02" r="7.87"/><circle class="cls-4" cx="79.34" cy="63.75" r="7.87"/><circle class="cls-4" cx="82" cy="52" r="7.87"/><circle class="cls-4" cx="81.41" cy="39.09" r="7.87"/><circle class="cls-4" cx="81.41" cy="29.17" r="7.87"/><circle class="cls-26" cx="38.81" cy="51.65" r="4.14"/><circle class="cls-27" cx="38.81" cy="51.65" r="1.74"/><path class="cls-28" d="M34.78,50.7a4.14,4.14,0,1,1,1.1,3.87,4.06,4.06,0,0,1-.43-.5"/><circle class="cls-26" cx="83.82" cy="51.65" r="4.14"/><circle class="cls-27" cx="83.82" cy="51.65" r="2.21"/><circle class="cls-28" cx="83.82" cy="51.65" r="4.14"/><path class="cls-26" d="M57.79,69.25h6.69a0,0,0,0,1,0,0V82.56a3.35,3.35,0,0,1-3.35,3.35h0a3.35,3.35,0,0,1-3.35-3.35V69.25A0,0,0,0,1,57.79,69.25Z"/><path class="cls-15" d="M64.41,76v3.26c-1.22-.27-.46,1-3.46,1-2.73,0-2.34-2-3.24-3.35V76Z"/><path class="cls-3" d="M57.71,69.31h6.69a0,0,0,0,1,0,0V82.63A3.35,3.35,0,0,1,61.06,86h0a3.35,3.35,0,0,1-3.35-3.35V69.31A0,0,0,0,1,57.71,69.31Z"/><rect class="cls-14" x="39.42" y="18.96" width="43.99" height="57.65" rx="22"/><path class="cls-15" d="M82.83,41.39V55.05a22,22,0,0,1-22,22q-.78,0-1.56-.06A22,22,0,0,0,79.71,55.05V41.39A22,22,0,0,0,59.27,19.45c.52,0,1-.05,1.56-.05a22,22,0,0,1,22,22Z"/><path class="cls-8" d="M63.41,77c-.48,0-1,0-1.48,0-12.14,0-22.54-9.89-22.54-22l-.2-13.66c0-12.14,10.6-21.95,22.74-21.95.5,0,1,0,1.48,0-11.45.76-22.16,10.3-22.16,22V55.1C41.25,66.75,52,76.28,63.41,77Z"/><path class="cls-25" d="M45.42,40.26a1.35,1.35,0,0,0,2.16,1.15A8.16,8.16,0,0,1,53,40.23c2.72.33,4.15,1.5,4.79,1.51a1.21,1.21,0,0,0,.89-2.21c-5-2.65-10.1-2.1-12.78-.06A1.28,1.28,0,0,0,45.42,40.26Z"/><path class="cls-25" d="M77.32,40.26a1.35,1.35,0,0,1-2.16,1.15,8.09,8.09,0,0,0-5.39-1.18c-2.73.33-4.16,1.5-4.79,1.51a1.21,1.21,0,0,1-.9-2.21c5-2.65,10.1-2.1,12.78-.06A1.2,1.2,0,0,1,77.32,40.26Z"/><line class="cls-29" x1="61.39" y1="48.72" x2="61.39" y2="56.53"/><path class="cls-28" d="M39.39,41.44a22,22,0,0,1,22-22h0a22,22,0,0,1,22,22V55.1a22,22,0,0,1-22,22h0a22,22,0,0,1-22-22V44.91"/><circle class="cls-8" cx="43.65" cy="35.07" r="0.09"/><circle class="cls-8" cx="42.19" cy="36.68" r="1.21"/><circle class="cls-8" cx="44.7" cy="35.43" r="0.54"/><circle class="cls-8" cx="43.84" cy="37.88" r="0.47"/><circle class="cls-8" cx="41.49" cy="38.55" r="0.22"/><circle class="cls-8" cx="44.12" cy="33.86" r="0.18"/><circle class="cls-8" cx="44.21" cy="37.04" r="0.09"/><circle class="cls-8" cx="46.77" cy="35.16" r="0.09"/><circle class="cls-8" cx="45.57" cy="33.39" r="0.29"/><circle class="cls-8" cx="45.54" cy="34.51" r="0.2"/><ellipse class="cls-15" cx="52.69" cy="48.72" rx="3.36" ry="4.25"/><ellipse class="cls-25" cx="52.69" cy="47.68" rx="3.36" ry="4.25"/><ellipse class="cls-15" cx="70.27" cy="48.72" rx="3.36" ry="4.25"/><path class="cls-25" d="M72.79,45.84a11.87,11.87,0,0,0,2.85-2.66A14,14,0,0,1,72,44.9C70.5,45.24,72.79,45.84,72.79,45.84Z"/><path class="cls-25" d="M72.81,46.69a12,12,0,0,0,3.25-2.15,14.31,14.31,0,0,1-3.84,1.1C70.65,45.73,72.81,46.69,72.81,46.69Z"/><path class="cls-25" d="M72.52,47.38a12,12,0,0,0,3.66-1.31,14.1,14.1,0,0,1-4,.15C70.65,45.93,72.52,47.38,72.52,47.38Z"/><path class="cls-25" d="M49.85,45.84A12.08,12.08,0,0,1,47,43.18a14,14,0,0,0,3.61,1.72C52.15,45.24,49.85,45.84,49.85,45.84Z"/><path class="cls-25" d="M49.83,46.69a12.06,12.06,0,0,1-3.24-2.15,14.18,14.18,0,0,0,3.84,1.1C52,45.73,49.83,46.69,49.83,46.69Z"/><path class="cls-25" d="M50.13,47.38a12,12,0,0,1-3.66-1.31,14.1,14.1,0,0,0,4,.15C52,45.93,50.13,47.38,50.13,47.38Z"/><ellipse class="cls-25" cx="70.27" cy="47.68" rx="3.36" ry="4.25"/><ellipse class="cls-8" cx="71.65" cy="46.12" rx="0.71" ry="0.77"/><circle class="cls-4" cx="75.63" cy="24.68" r="8.72"/><circle class="cls-4" cx="46.33" cy="24.5" r="8.72"/><circle class="cls-4" cx="61.06" cy="26.7" r="7.1"/><circle class="cls-4" cx="45.78" cy="20.6" r="7.87"/><circle class="cls-4" cx="76.18" cy="20.6" r="7.87"/><circle class="cls-4" cx="54.2" cy="16.03" r="7.87"/><circle class="cls-4" cx="67.76" cy="16.03" r="7.87"/><circle class="cls-4" cx="60.98" cy="11.19" r="7.1"/><circle class="cls-4" cx="45.92" cy="16.51" r="7.87"/><circle class="cls-4" cx="76.33" cy="16.51" r="7.87"/><circle class="cls-4" cx="54.34" cy="11.94" r="7.87"/><circle class="cls-4" cx="67.91" cy="11.94" r="7.87"/><circle class="cls-4" cx="61.12" cy="7.1" r="7.1"/><circle class="cls-4" cx="56.9" cy="21.64" r="7.1"/><circle class="cls-25" cx="65.57" cy="20.6" r="7.1"/><path class="cls-30" d="M55.43,59.62H67.29a1,1,0,0,1,1,1v2.21a6.89,6.89,0,0,1-6.89,6.89h0a6.89,6.89,0,0,1-6.89-6.89v-2.2a1,1,0,0,1,1-1Z"/><ellipse class="cls-31" cx="61.35" cy="64.89" rx="4.2" ry="2.61"/><path class="cls-8" d="M55.61,59.3H67.25a.84.84,0,0,1,.84.84v1.75A1.06,1.06,0,0,1,67,63H54.77a0,0,0,0,1,0,0V60.14a.84.84,0,0,1,.84-.84Z" transform="translate(122.85 122.25) rotate(180)"/><path class="cls-32" d="M55.67,61.62H67.18a.9.9,0,0,1,.9.9V63a0,0,0,0,1,0,0H54.77a0,0,0,0,1,0,0v-.42A.9.9,0,0,1,55.67,61.62Z" transform="translate(122.85 124.58) rotate(180)"/><line class="cls-33" x1="68.09" y1="62.95" x2="54.77" y2="62.95"/><path class="cls-34" d="M65.07,68a7.92,7.92,0,0,1-7.52,0,3.76,3.76,0,0,1,7.52,0Z"/><path class="cls-35" d="M64,65.35a7.5,7.5,0,0,1-5.28,0,3.77,3.77,0,0,1,5.28,0Z"/><path class="cls-33" d="M57.63,68a3.77,3.77,0,1,1,7.53,0"/><path class="cls-29" d="M56.07,59.24H66.78a1.53,1.53,0,0,1,1.53,1.53v1.63a6.89,6.89,0,0,1-6.89,6.89h0a6.89,6.89,0,0,1-6.89-6.89V60.77a1.53,1.53,0,0,1,1.53-1.53Z"/><ellipse class="cls-8" cx="51.31" cy="46.12" rx="0.71" ry="0.77"/><rect class="cls-8" x="40.99" y="51.15" width="1.06" height="5.74" rx="0.53"/><rect class="cls-36" x="43.77" y="43.43" width="1.06" height="7.7" rx="0.53"/></g></g></svg>