<svg xmlns="http://www.w3.org/2000/svg" viewBox="0 0 456.99 593.03"><defs><style>.cls-1{opacity:0.15;}.cls-2{fill:#1b3c47;}.cls-3{opacity:0.35;}.cls-4{fill:#ecede2;}.cls-5{fill:#1e1e30;}.cls-6{fill:#dfe0cd;}.cls-10,.cls-20,.cls-21,.cls-26,.cls-28,.cls-37,.cls-54,.cls-61,.cls-7{fill:#fff;}.cls-8{fill:#8c437c;}.cls-9{fill:#772b69;}.cls-10{opacity:0.56;}.cls-10,.cls-20,.cls-21,.cls-26,.cls-28,.cls-42,.cls-53,.cls-54,.cls-58{isolation:isolate;}.cls-11{fill:#3f3e3e;}.cls-12{fill:#302f2f;}.cls-13{fill:#cacad8;}.cls-14{fill:#a1a1c4;}.cls-15{fill:#546b76;}.cls-16{fill:#7997a3;}.cls-17{fill:#3c5159;}.cls-18{fill:#b4e4f9;}.cls-19{fill:#70bee0;}.cls-20{opacity:0.59;}.cls-21{opacity:0.3;}.cls-22{fill:#ffccc0;}.cls-23{fill:#f29681;}.cls-24{fill:#fdfdff;}.cls-25{fill:#dd7b6b;}.cls-26{opacity:0.39;}.cls-27{fill:#dd9742;}.cls-28{opacity:0.23;}.cls-29{fill:#dc166d;}.cls-30{fill:#675c6c;}.cls-31{fill:#55495b;}.cls-32{fill:#181828;}.cls-33{fill:#707070;}.cls-34{fill:#a3a3a3;}.cls-35{fill:#4f4f4f;}.cls-36{fill:#3fd7ec;}.cls-37{opacity:0.5;}.cls-38{fill:#43a8bf;}.cls-39{fill:#999af7;}.cls-40{fill:#525ac1;}.cls-41{fill:#fdc6a2;}.cls-42,.cls-53,.cls-55{fill:#e89176;}.cls-42{opacity:0.62;}.cls-43{fill:#504556;}.cls-44{fill:#fe7469;}.cls-45{fill:#c16e5d;}.cls-46{fill:#4f3e52;}.cls-47{fill:#ac94b2;}.cls-48{fill:#e0534c;}.cls-49{fill:#ff908a;}.cls-50{fill:#181728;}.cls-51{fill:#d38571;}.cls-52{fill:#c66a58;}.cls-53{opacity:0.49;}.cls-54{opacity:0.55;}.cls-56{fill:#1b1b2b;}.cls-57{fill:#af143b;}.cls-58{fill:#670118;opacity:0.4;}.cls-59{fill:#d2f2ff;}.cls-60{fill:#f5f6f7;}.cls-61{opacity:0.25;}.cls-62{fill:#566078;}</style></defs><title>Asset 347</title><g id="Layer_2" data-name="Layer 2"><g id="Layer_1-2" data-name="Layer 1"><g class="cls-1"><path class="cls-2" d="M329.88,460.48h-8V446.93H345.7a1,1,0,1,1,0,1.93H323.79v9.69h6.09a1,1,0,0,1,0,1.93Z"/><path class="cls-2" d="M336.19,460.48h-3.47a1,1,0,1,1,0-1.93h3.47a1,1,0,0,1,0,1.93Z"/><path class="cls-2" d="M338.87,460.48h-.07a1,1,0,1,1,0-1.93h.07a1,1,0,0,1,0,1.93Z"/><path class="cls-2" d="M355.75,460.48H341.57a1,1,0,0,1,0-1.93h12.26v-9.69h-4.25a1,1,0,1,1,0-1.93h6.21Z"/><path class="cls-2" d="M339.51,448.86H305.63V435.34h33.88Zm-32-1.93h30v-9.66h-30Z"/></g><g class="cls-1"><path class="cls-2" d="M65.71,188.8h-8V175.26H81.53a1,1,0,1,1,0,1.92H59.62v9.7h6.09a1,1,0,1,1,0,1.92Z"/><path class="cls-2" d="M72,188.8H68.55a1,1,0,1,1,0-1.92H72a1,1,0,1,1,0,1.92Z"/><path class="cls-2" d="M74.7,188.8h-.07a1,1,0,1,1,0-1.92h.07a1,1,0,0,1,0,1.92Z"/><path class="cls-2" d="M91.58,188.8H77.4a1,1,0,0,1,0-1.92H89.66v-9.7H85.41a1,1,0,1,1,0-1.92h6.21Z"/><path class="cls-2" d="M75.34,177.18H41.46V163.66H75.34Zm-32-1.92h30v-9.67h-30Z"/></g><g class="cls-3"><path class="cls-4" d="M66.86,392.48H8.61A7.6,7.6,0,0,1,1,384.88H1a7.59,7.59,0,0,1,7.59-7.6H66.86"/><path class="cls-5" d="M11.42,384.35H1.77A.75.75,0,0,1,1,383.6a.76.76,0,0,1,.76-.76h9.65a.76.76,0,0,1,.76.76A.75.75,0,0,1,11.42,384.35Z"/><rect class="cls-6" x="1.02" y="381.92" width="65.85" height="1.01"/><rect class="cls-6" x="1.02" y="384.48" width="65.85" height="1.01"/><rect class="cls-6" x="1.02" y="387.03" width="65.85" height="1.01"/><rect class="cls-6" x="3.03" y="389.58" width="63.83" height="1.01"/><rect class="cls-6" x="3.03" y="379.37" width="63.83" height="1.01"/><path class="cls-5" d="M42.1,388.09H2a.75.75,0,0,1-.75-.75.76.76,0,0,1,.75-.76H42.1a.76.76,0,0,1,.76.76A.75.75,0,0,1,42.1,388.09Z"/><path class="cls-7" d="M20.5,377.2H44.73a2.68,2.68,0,0,1-2.68,2.68H23.2a2.68,2.68,0,0,1-2.68-2.68h0Z"/><path class="cls-5" d="M66.86,393.48H8.61a8.61,8.61,0,1,1,0-17.21H66.86a1,1,0,1,1,0,2H8.61a6.59,6.59,0,1,0,0,13.18H66.86a1,1,0,1,1,0,2Z"/><path class="cls-5" d="M415.75,372.3a1,1,0,0,1-1-.9l-3.72-34a1,1,0,1,1,2-.22l3.72,34a1,1,0,0,1-.89,1.11Z"/><path class="cls-5" d="M410.21,352.65a.76.76,0,0,1-.75-.67l-1.18-10.16a.76.76,0,0,1,.66-.84l3.15-.39a.76.76,0,1,1,.19,1.51l-2.41.3,1.09,9.41a.76.76,0,0,1-.66.84Z"/><path class="cls-5" d="M420.32,371.29h-.13a1,1,0,0,1-.88-1.12h0l4.15-34a1,1,0,1,1,2,.24h0l-4.15,34A1,1,0,0,1,420.32,371.29Z"/><path class="cls-5" d="M431.52,371.29h-.12a1,1,0,0,1-.88-1.12h0l4.16-34a1,1,0,1,1,2,.24h0l-4.16,34A1,1,0,0,1,431.52,371.29Z"/><rect class="cls-8" x="411.63" y="355.2" width="30.83" height="38.34"/><rect class="cls-9" x="412.61" y="355.91" width="5.21" height="36.88"/><rect class="cls-7" x="431.85" y="355.91" width="1.77" height="37.13"/><rect class="cls-10" x="435.15" y="355.91" width="0.87" height="37.13"/><rect class="cls-10" x="437.91" y="355.91" width="0.87" height="37.13"/><path class="cls-5" d="M442.45,394.57H411.63a1,1,0,0,1-1-1V355.2a1,1,0,0,1,1-1h30.82a1,1,0,0,1,1,1v38.36a1,1,0,0,1-1,1Zm-29.82-2h28.81V356.2H412.63Z"/><path class="cls-11" d="M91.25,381.74a10.33,10.33,0,1,1,10.33-10.33h0A10.34,10.34,0,0,1,91.25,381.74Zm0-15.62a5.29,5.29,0,1,0,5.29,5.28h0a5.29,5.29,0,0,0-5.29-5.27Z"/><path class="cls-5" d="M91.29,383a11.09,11.09,0,1,1,11.09-11.09A11.09,11.09,0,0,1,91.29,383Zm0-20.67a9.58,9.58,0,1,0,9.57,9.58,9.58,9.58,0,0,0-9.57-9.58Zm0,15.63a6.05,6.05,0,1,1,6-6.05A6.05,6.05,0,0,1,91.29,377.94Zm0-10.59a4.54,4.54,0,1,0,4.53,4.54A4.54,4.54,0,0,0,91.29,367.35Z"/><rect class="cls-11" x="57.24" y="349.52" width="33.71" height="42.75" rx="2.74"/><path class="cls-12" d="M91.25,358.05v33a2.75,2.75,0,0,1-2.74,2.75H60.28a2.74,2.74,0,0,1-2.74-2.74h0V385a15.05,15.05,0,0,0,7.72,1.83c5.13-.19,10-2.79,13.62-6.38a44.3,44.3,0,0,0,8.52-12.71A66.14,66.14,0,0,0,91.25,358.05Z"/><path class="cls-13" d="M381.07,392.38a11.93,11.93,0,1,1,23.85,0"/><path class="cls-14" d="M404.93,392.36H385.22a39.85,39.85,0,0,0,14.46-9.89A11.93,11.93,0,0,1,404.93,392.36Z"/><path class="cls-13" d="M267.76,397.93H197.3a4.67,4.67,0,0,1-4.33-6.4L206,358.76l26.51-7.28,26.5,7.3,13.06,32.77a4.65,4.65,0,0,1-2.63,6.05A4.53,4.53,0,0,1,267.76,397.93Z"/><polygon class="cls-14" points="264.4 372.37 201.42 372.37 202.03 368.2 263.79 368.2 264.4 372.37"/><circle class="cls-14" cx="207.36" cy="373" r="2.21"/><circle class="cls-14" cx="214.04" cy="375.95" r="1.13"/><circle class="cls-14" cx="209.27" cy="380.11" r="1.47"/><path class="cls-5" d="M267.76,398.94H197.3a5.68,5.68,0,0,1-5.67-5.69,5.8,5.8,0,0,1,.4-2.1l13.06-32.76a1,1,0,0,1,.67-.6l26.51-7.28a1,1,0,0,1,.53,0l26.51,7.26a1,1,0,0,1,.67.6L273,391.14a5.68,5.68,0,0,1-5.28,7.78Zm-61-39.32-12.88,32.31a3.66,3.66,0,0,0,3.4,5h70.47a3.66,3.66,0,0,0,3.4-5l-12.87-32.31-25.75-7.06Z"/><path class="cls-15" d="M119.66,195.24H341.87a8.62,8.62,0,0,1,8.62,8.62V360.37a8.19,8.19,0,0,1-8.19,8.19H119.23a8.18,8.18,0,0,1-8.18-8.19V203.86A8.61,8.61,0,0,1,119.66,195.24Z"/><path class="cls-16" d="M350.22,203.85v5.32a8.62,8.62,0,0,0-8.62-8.62H119.4a8.62,8.62,0,0,0-8.62,8.62v-5.32a8.62,8.62,0,0,1,8.62-8.61H341.6a8.62,8.62,0,0,1,8.62,8.61Z"/><path class="cls-13" d="M350.49,340.33v20a8.19,8.19,0,0,1-8.19,8.19H119.23a8.18,8.18,0,0,1-8.18-8.19v-20Z"/><rect class="cls-14" x="111.15" y="339.91" width="239.44" height="4.42"/><path class="cls-17" d="M350.59,335.91v4.42H111.14s-1.92-12.36.4-11.94C152.34,335.75,350.59,335.91,350.59,335.91Z"/><rect class="cls-18" x="123.37" y="208.98" width="215" height="119.57"/><path class="cls-5" d="M111.15,288.23a1,1,0,0,1-1-1V227.71a1,1,0,0,1,2,0v59.51A1,1,0,0,1,111.15,288.23Z"/><path class="cls-5" d="M350.59,268a1,1,0,0,1-1-1v-8.8a1,1,0,0,1,2,0V267A1,1,0,0,1,350.59,268Z"/><path class="cls-5" d="M350.59,253.1a1,1,0,0,1-1-1V235.51a1,1,0,0,1,2,0v16.58A1,1,0,0,1,350.59,253.1Z"/><path class="cls-5" d="M350.59,229.87a1,1,0,0,1-1-1v-25a7.62,7.62,0,0,0-7.61-7.61H119.76a7.61,7.61,0,0,0-7.6,7.61v17.3a1,1,0,1,1-2,0v-17.3a9.65,9.65,0,0,1,9.62-9.63H342a9.65,9.65,0,0,1,9.63,9.63v25A1,1,0,0,1,350.59,229.87Z"/><path class="cls-5" d="M350.59,341.34H111.14a1,1,0,0,1,0-2H350.59a1,1,0,1,1,0,2Z"/><rect class="cls-19" x="123.37" y="323.64" width="215" height="4.91"/><polygon class="cls-20" points="215.45 328.55 210.54 328.55 240.79 208.98 245.7 208.98 215.45 328.55"/><polygon class="cls-21" points="204.66 328.55 199.75 328.55 229.99 208.98 234.9 208.98 204.66 328.55"/><polygon class="cls-7" points="237.41 328.55 222.41 328.55 252.66 208.98 267.65 208.98 237.41 328.55"/><path class="cls-5" d="M123.37,259.86a1,1,0,0,1-1-1v-11.6a1,1,0,0,1,2,0v11.6A1,1,0,0,1,123.37,259.86Z"/><circle class="cls-17" cx="318.86" cy="334.87" r="1.26"/><circle class="cls-17" cx="321.22" cy="333.98" r="0.37"/><circle class="cls-17" cx="319.39" cy="332.46" r="0.37"/><circle class="cls-17" cx="315.79" cy="332.41" r="0.86"/><circle class="cls-17" cx="314.56" cy="334.96" r="0.76"/><circle class="cls-17" cx="312.4" cy="333.22" r="0.39"/><circle class="cls-17" cx="313.26" cy="331.49" r="0.47"/><circle class="cls-17" cx="309.56" cy="334.42" r="0.82"/><circle class="cls-17" cx="324.11" cy="333.34" r="0.51"/><circle class="cls-17" cx="322.2" cy="331.79" r="0.29"/><circle class="cls-17" cx="324.45" cy="330.73" r="0.51"/><circle class="cls-17" cx="322.11" cy="332.92" r="0.35"/><circle class="cls-17" cx="320.36" cy="330.73" r="0.4"/><circle class="cls-17" cx="317.85" cy="330.15" r="0.58"/><circle class="cls-17" cx="318.33" cy="331.62" r="0.13"/><circle class="cls-17" cx="317.79" cy="332.84" r="0.19"/><circle class="cls-17" cx="324.09" cy="335.44" r="0.82"/><circle class="cls-17" cx="327.37" cy="334.47" r="0.63"/><circle class="cls-17" cx="330.59" cy="335.52" r="1.33"/><circle class="cls-17" cx="334.61" cy="335.62" r="1.42"/><circle class="cls-17" cx="337.12" cy="335.04" r="0.62"/><circle class="cls-17" cx="334.83" cy="333.05" r="0.22"/><circle class="cls-17" cx="331.75" cy="331.97" r="0.48"/><circle class="cls-17" cx="329.74" cy="331.3" r="0.48"/><circle class="cls-17" cx="328.03" cy="331.9" r="0.66"/><circle class="cls-17" cx="326.26" cy="332.46" r="0.48"/><circle class="cls-17" cx="330.98" cy="333.51" r="0.29"/><circle class="cls-19" cx="293.81" cy="321.81" r="2.39"/><circle class="cls-19" cx="298.3" cy="320.13" r="0.71"/><circle class="cls-19" cx="294.82" cy="317.22" r="0.72"/><circle class="cls-19" cx="287.97" cy="317.14" r="1.64"/><circle class="cls-19" cx="285.63" cy="321.99" r="1.45"/><circle class="cls-19" cx="281.52" cy="318.68" r="0.74"/><circle class="cls-19" cx="283.17" cy="315.39" r="0.9"/><circle class="cls-19" cx="276.11" cy="320.97" r="1.55"/><circle class="cls-19" cx="303.81" cy="318.91" r="0.97"/><circle class="cls-19" cx="300.17" cy="315.95" r="0.55"/><circle class="cls-19" cx="304.44" cy="313.95" r="0.97"/><circle class="cls-19" cx="299.99" cy="318.1" r="0.67"/><circle class="cls-19" cx="296.67" cy="313.95" r="0.76"/><circle class="cls-19" cx="291.9" cy="312.83" r="1.11"/><circle class="cls-19" cx="292.79" cy="315.63" r="0.24"/><circle class="cls-19" cx="291.77" cy="317.96" r="0.36"/><circle class="cls-19" cx="303.77" cy="322.9" r="1.55"/><circle class="cls-19" cx="310.01" cy="321.07" r="1.2"/><circle class="cls-19" cx="316.13" cy="323.07" r="2.52"/><circle class="cls-19" cx="323.79" cy="323.24" r="2.7"/><circle class="cls-19" cx="328.56" cy="322.15" r="1.17"/><circle class="cls-19" cx="324.21" cy="318.36" r="0.42"/><circle class="cls-19" cx="318.35" cy="316.31" r="0.91"/><circle class="cls-19" cx="314.52" cy="315.03" r="0.92"/><circle class="cls-19" cx="311.27" cy="316.17" r="1.26"/><circle class="cls-19" cx="307.9" cy="317.22" r="0.92"/><circle class="cls-19" cx="316.88" cy="319.22" r="0.54"/><circle class="cls-14" cx="147.42" cy="348.32" r="1.13"/><path class="cls-5" d="M130.51,233.34a.8.8,0,0,1-.3-.06.76.76,0,0,1-.4-1h0l7.06-16.35a.75.75,0,0,1,1.38.6l-7,16.35A.75.75,0,0,1,130.51,233.34Z"/><path class="cls-5" d="M136.47,230.1a.8.8,0,0,1-.3-.06.76.76,0,0,1-.4-1v0l3.53-8.17a.75.75,0,0,1,1-.4.76.76,0,0,1,.4,1l-3.53,8.17A.74.74,0,0,1,136.47,230.1Z"/><circle class="cls-5" cx="135.25" cy="232.85" r="1.2"/><path class="cls-5" d="M155.3,201.5h-24a.76.76,0,1,1,0-1.51h24a.76.76,0,0,1,0,1.51Z"/><path class="cls-5" d="M165.4,201.5h-4.82a.76.76,0,1,1,0-1.51h4.82a.76.76,0,0,1,0,1.51Z"/><path class="cls-5" d="M350.49,279.79a1,1,0,0,1-1-1v-4.73a1,1,0,1,1,2,0v4.73A1,1,0,0,1,350.49,279.79Z"/><circle class="cls-14" cx="140.43" cy="345.87" r="3.76"/><circle class="cls-14" cx="144.42" cy="353.24" r="1.87"/><circle class="cls-14" cx="133.59" cy="349.63" r="1.86"/><circle class="cls-7" cx="230.77" cy="355.11" r="6.79"/><path class="cls-5" d="M230.89,364.15a8.7,8.7,0,0,1-.42-17.39h.42a1,1,0,1,1,0,2,6.68,6.68,0,1,0,6.67,6.67,6.6,6.6,0,0,0-1-3.46,1,1,0,1,1,1.73-1.05,8.69,8.69,0,0,1-7.43,13.21Z"/><path class="cls-5" d="M198.63,392.11a.76.76,0,0,1-.27-.05.75.75,0,0,1-.45-1v0l1.88-4.95a.75.75,0,1,1,1.41.53l-1.88,5A.76.76,0,0,1,198.63,392.11Z"/><path class="cls-5" d="M202.32,382.34a.84.84,0,0,1-.27,0,.77.77,0,0,1-.44-1h0l1.11-2.94a.75.75,0,1,1,1.44.44.32.32,0,0,1,0,.09L203,381.85A.77.77,0,0,1,202.32,382.34Z"/><path class="cls-19" d="M172.31,325.91H149.78a2.27,2.27,0,1,1,0-4.53h22.53a2.27,2.27,0,0,1,0,4.53Z"/><path class="cls-16" d="M255.09,203H232.55a2.27,2.27,0,1,1,0-4.53h22.54a2.27,2.27,0,0,1,0,4.53Z"/><path class="cls-16" d="M305.07,203H294.64a2.27,2.27,0,1,1,0-4.53h10.43a2.27,2.27,0,1,1,0,4.53Z"/><path class="cls-22" d="M11,393H449.21a6.77,6.77,0,0,1,6.77,6.78h0a6.77,6.77,0,0,1-6.77,6.77H11a6.77,6.77,0,0,1-6.77-6.77h0A6.77,6.77,0,0,1,11,393Z"/><path class="cls-23" d="M456,400.12a6.77,6.77,0,0,1-6.77,6.77H11a6.77,6.77,0,0,1-6.77-6.77h0a6.73,6.73,0,0,1,.91-3.39A6.76,6.76,0,0,0,11,400.12H449.21a6.8,6.8,0,0,0,5.86-3.39A6.63,6.63,0,0,1,456,400.12Z"/><path class="cls-24" d="M83.4,397.09H49.82a1.77,1.77,0,0,1,0-3.53H83.4a1.77,1.77,0,0,1,0,3.53Z"/><path class="cls-24" d="M101.49,397.09H93.12a1.77,1.77,0,0,1,0-3.53h8.37a1.77,1.77,0,0,1,0,3.53Z"/><path class="cls-23" d="M337,401.58H303.42a1.77,1.77,0,0,1,0-3.53H337a1.77,1.77,0,0,1,0,3.53Z"/><path class="cls-23" d="M355.09,401.58h-8.36a1.77,1.77,0,1,1,0-3.53h8.36a1.77,1.77,0,1,1,0,3.53Z"/><path class="cls-25" d="M212.89,406.59H179.31a1.77,1.77,0,0,1,0-3.53h33.58a1.77,1.77,0,0,1,0,3.53Z"/><path class="cls-25" d="M231,406.59h-8.36a1.77,1.77,0,1,1,0-3.53H231a1.77,1.77,0,1,1,0,3.53Z"/><path class="cls-25" d="M41.68,406.59H8.1a1.77,1.77,0,0,1,0-3.53H41.68a1.77,1.77,0,1,1,0,3.53Z"/><path class="cls-25" d="M59.77,406.59H51.43a1.77,1.77,0,1,1,0-3.53H59.8a1.77,1.77,0,0,1,0,3.53Z"/><path class="cls-25" d="M433.15,406.59H399.58a1.77,1.77,0,1,1,0-3.53h33.57a1.77,1.77,0,1,1,0,3.53Z"/><path class="cls-25" d="M451.25,406.59h-8.38a1.77,1.77,0,0,1,0-3.53h8.38a1.77,1.77,0,0,1,0,3.53Z"/><path class="cls-5" d="M449.21,407.6H11A7.79,7.79,0,0,1,11,392H132.64a1,1,0,0,1,0,2H11a5.77,5.77,0,0,0,0,11.53H449.21a5.77,5.77,0,0,0,0-11.53H167.45a1,1,0,0,1,0-2H449.21a7.79,7.79,0,0,1,0,15.57Z"/><path class="cls-5" d="M148.77,394.07h-7.28a1,1,0,0,1,0-2h7.28a1,1,0,1,1,0,2Z"/><path class="cls-5" d="M158.93,394.07h-3.74a1,1,0,0,1,0-2h3.74a1,1,0,0,1,0,2Z"/><path class="cls-5" d="M404.92,393.39a1,1,0,0,1-1-1,10.92,10.92,0,0,0-16.13-9.61,1,1,0,0,1-1-1.77,12.94,12.94,0,0,1,19.09,11.38A1,1,0,0,1,404.92,393.39Z"/><path class="cls-5" d="M381.07,393.39a1,1,0,0,1-1-1,12.92,12.92,0,0,1,2.88-8.14,1,1,0,0,1,1.62,1.2l-.06.07a11,11,0,0,0-2.43,6.87A1,1,0,0,1,381.07,393.39Z"/><rect class="cls-7" x="67.11" y="349.63" width="2.86" height="43.41"/><rect class="cls-26" x="71.98" y="349.63" width="1.37" height="43.41"/><path class="cls-5" d="M74.11,345.34a.75.75,0,0,1-.75-.76V333.27A5.65,5.65,0,0,1,79,327.62a4.89,4.89,0,0,0,0-9.78.76.76,0,0,1-.76-.76.75.75,0,0,1,.76-.75,6.4,6.4,0,0,1,0,12.8,4.14,4.14,0,0,0-4.14,4.14v11.31A.76.76,0,0,1,74.11,345.34Z"/><path class="cls-5" d="M68,340.35a.76.76,0,0,1-.76-.76V328.41a.76.76,0,1,1,1.51,0v11.18A.76.76,0,0,1,68,340.35Z"/><path class="cls-5" d="M80.16,346.26a.76.76,0,0,1-.76-.76V334.31a.76.76,0,0,1,1.52,0V345.5A.76.76,0,0,1,80.16,346.26Z"/><path class="cls-27" d="M82.22,363.14h0a1.41,1.41,0,0,1-1.41-1.41h0V349.89h2.81v11.84a1.41,1.41,0,0,1-1.4,1.41Z"/><path class="cls-27" d="M89.19,350.65a2.48,2.48,0,0,1-5,0"/><rect class="cls-28" x="60.59" y="355.33" width="3.31" height="12.5" rx="1.65"/><path class="cls-17" d="M121.89,310.15a1.25,1.25,0,0,1-1.26-1.26V283.56a1.26,1.26,0,0,1,2.52,0v25.31a1.26,1.26,0,0,1-1.24,1.28Z"/><path class="cls-17" d="M339.63,254.64a1.27,1.27,0,0,1-1.26-1.26V228.05a1.26,1.26,0,1,1,2.52,0v25.33A1.26,1.26,0,0,1,339.63,254.64Z"/><path class="cls-17" d="M339.63,315a1.26,1.26,0,0,1-1.26-1.26V288.44a1.26,1.26,0,1,1,2.52,0v25.33A1.25,1.25,0,0,1,339.63,315Z"/><path class="cls-19" d="M336.56,290.68a1.76,1.76,0,0,1-1.77-1.76V263.59a1.77,1.77,0,1,1,3.53,0v25.33A1.76,1.76,0,0,1,336.56,290.68Z"/><path class="cls-19" d="M336.56,221a1.77,1.77,0,0,1-1.77-1.77V214a1.77,1.77,0,0,1,3.53,0v5.16A1.76,1.76,0,0,1,336.56,221Z"/><path class="cls-19" d="M125,280.76a1.77,1.77,0,0,1-1.77-1.77v-5.16a1.77,1.77,0,1,1,3.53,0V279A1.76,1.76,0,0,1,125,280.76Z"/><path class="cls-14" d="M301.6,368.38h-5.18a1.76,1.76,0,1,1,0-3.52h5.17a1.76,1.76,0,1,1,0,3.52Z"/><path class="cls-19" d="M125,318.84a1.77,1.77,0,0,1-1.77-1.77V311.9a1.77,1.77,0,1,1,3.53,0v5.16a1.76,1.76,0,0,1-1.75,1.78Z"/><path class="cls-19" d="M125,217.63a1.76,1.76,0,0,1-1.77-1.76V210.7a1.77,1.77,0,0,1,3.53,0v5.17A1.76,1.76,0,0,1,125,217.63Z"/><path class="cls-5" d="M338.36,329.31h-215a.76.76,0,0,1-.76-.76V264.37a.76.76,0,0,1,.76-.76.75.75,0,0,1,.75.76v63.42H337.61V209.73H124.12v29.88a.75.75,0,0,1-.75.75.76.76,0,0,1-.76-.75V209a.76.76,0,0,1,.76-.76h215a.76.76,0,0,1,.76.76V328.53a.76.76,0,0,1-.74.78Z"/><path class="cls-27" d="M75.2,350.32h2.58v6.05a1.29,1.29,0,0,1-1.29,1.29h0a1.29,1.29,0,0,1-1.29-1.29v-6.05Z"/><path class="cls-5" d="M88.52,393.8H60.29a3.75,3.75,0,0,1-3.75-3.75V376.69a1,1,0,1,1,2,0V390a1.74,1.74,0,0,0,1.74,1.72H88.52A1.72,1.72,0,0,0,90.24,390V352.78A1.74,1.74,0,0,0,88.51,351H60.28a1.75,1.75,0,0,0-1.74,1.74v10.61a1,1,0,1,1-2,0V352.78A3.75,3.75,0,0,1,60.28,349H88.51a3.75,3.75,0,0,1,3.75,3.75V390a3.76,3.76,0,0,1-3.74,3.76Z"/><path class="cls-5" d="M57.55,372.9a1,1,0,0,1-1-1v-4.27a1,1,0,1,1,2,0v4.27A1,1,0,0,1,57.55,372.9Z"/><circle class="cls-29" cx="436.6" cy="332.08" r="3.98"/><path class="cls-5" d="M436.6,336.81a4.74,4.74,0,1,1,4.74-4.73A4.73,4.73,0,0,1,436.6,336.81Zm0-7.95a3.22,3.22,0,1,0,3.23,3.22h0a3.22,3.22,0,0,0-3.22-3.22Z"/><path class="cls-5" d="M428.5,351.64h-.09a.74.74,0,0,1-.66-.83h0l1.09-9.42-2.41-.29a.77.77,0,0,1,.18-1.52l3.16.39a.76.76,0,0,1,.65.84L429.25,351A.76.76,0,0,1,428.5,351.64Z"/><path class="cls-7" d="M342.8,369.61H331.71a2,2,0,1,1,0-4H342.8c2.24,0,4.79-2.41,4.79-4.54v-6.26a2,2,0,0,1,4,0v6.27C351.6,365.37,347.23,369.61,342.8,369.61Z"/><path class="cls-7" d="M139.58,370.16H128.49a2,2,0,1,1,0-4h11.09a2,2,0,1,1,0,4Z"/><path class="cls-5" d="M342.4,369.57H119.33a9.21,9.21,0,0,1-9.19-9.2V293.5a1,1,0,0,1,2,0v66.87a7.17,7.17,0,0,0,7.17,7.18H342.4a7.19,7.19,0,0,0,7.18-7.18V285.69a1,1,0,0,1,2,0v74.68A9.21,9.21,0,0,1,342.4,369.57Z"/></g><path class="cls-30" d="M360.84,341.6l-2.28-1a4.69,4.69,0,0,1-2.39-6.22l26.77-58.73,10.25,4.5-26.28,59.08A4.59,4.59,0,0,1,360.84,341.6Z"/><path class="cls-31" d="M387.36,293.43l-9.62-4.22a.64.64,0,1,1,.52-1.17l9.61,4.22a.64.64,0,0,1-.51,1.17Z"/><path class="cls-32" d="M388.05,292.5a.75.75,0,0,1-.26-.05l-9.62-4.23a.64.64,0,1,1,.52-1.17l9.62,4.22a.65.65,0,0,1,.33.85A.64.64,0,0,1,388.05,292.5Z"/><path class="cls-31" d="M384.54,299.84l-9.61-4.22a.63.63,0,0,1-.33-.85.64.64,0,0,1,.84-.33l9.62,4.23a.64.64,0,0,1,.33.84A.63.63,0,0,1,384.54,299.84Z"/><path class="cls-32" d="M385.23,298.91a.74.74,0,0,1-.25-.05l-9.62-4.23a.64.64,0,1,1,.52-1.17l9.61,4.22a.64.64,0,0,1-.26,1.23Z"/><path class="cls-31" d="M381.73,306.25,372.11,302a.64.64,0,0,1,.52-1.18l9.61,4.23a.63.63,0,0,1,.33.84A.63.63,0,0,1,381.73,306.25Z"/><path class="cls-32" d="M382.42,305.32a.62.62,0,0,1-.26-.06L372.54,301a.65.65,0,0,1-.33-.85.64.64,0,0,1,.85-.32l9.62,4.22a.64.64,0,0,1-.26,1.23Z"/><path class="cls-31" d="M378.91,312.66l-9.61-4.22a.63.63,0,0,1-.33-.85.64.64,0,0,1,.84-.33l9.62,4.22a.65.65,0,0,1,.33.85A.64.64,0,0,1,378.91,312.66Z"/><path class="cls-32" d="M379.61,311.73a.58.58,0,0,1-.26-.06l-9.62-4.22a.64.64,0,0,1,.52-1.18l9.61,4.23a.63.63,0,0,1,.33.84A.64.64,0,0,1,379.61,311.73Z"/><path class="cls-31" d="M376.1,319.07l-9.62-4.22a.64.64,0,0,1,.52-1.18l9.62,4.22a.64.64,0,0,1-.52,1.18Z"/><path class="cls-32" d="M376.79,318.14a.62.62,0,0,1-.26-.06l-9.61-4.22a.63.63,0,0,1-.33-.85.64.64,0,0,1,.84-.33l9.62,4.23a.64.64,0,0,1,.33.84A.65.65,0,0,1,376.79,318.14Z"/><path class="cls-31" d="M373.29,325.48l-9.62-4.22a.65.65,0,0,1-.33-.85.64.64,0,0,1,.85-.33l9.61,4.22a.64.64,0,0,1-.51,1.18Z"/><path class="cls-32" d="M374,324.55a.58.58,0,0,1-.26-.06l-9.62-4.22a.64.64,0,0,1,.52-1.18l9.62,4.23a.64.64,0,0,1,.33.84A.66.66,0,0,1,374,324.55Z"/><path class="cls-31" d="M370.47,331.89l-9.62-4.23a.64.64,0,1,1,.52-1.17l9.62,4.22a.64.64,0,0,1-.52,1.18Z"/><path class="cls-32" d="M371.16,331a.56.56,0,0,1-.25-.05l-9.62-4.22a.64.64,0,0,1,.52-1.18l9.61,4.22a.65.65,0,0,1,.33.85A.63.63,0,0,1,371.16,331Z"/><path class="cls-31" d="M389.48,288.59l-10.76-4.72s-.07-.05-.06-.06l11.73-25.13,10.25,4.5Z"/><path class="cls-32" d="M362.5,342.77a5.66,5.66,0,0,1-2.24-.47h0l-2.27-1a5.66,5.66,0,0,1-2.89-7.5l27.36-59.42,12,5.27L367.6,339.44a5.49,5.49,0,0,1-3.07,2.95A5.71,5.71,0,0,1,362.5,342.77Zm20.92-65.86L356.86,334.6a3.71,3.71,0,0,0,1.9,4.93l2.28,1a3.56,3.56,0,0,0,2.79.06,3.59,3.59,0,0,0,2-1.93l26.07-58Z"/><rect class="cls-32" x="416.05" y="247.75" width="6.9" height="10.72" rx="3.37" transform="translate(144.28 -152.23) rotate(24.72)"/><path class="cls-33" d="M411.31,254.11l-19.48-8.55,7-6.86a3.51,3.51,0,0,1,3.87-.72l6.88,3a3.51,3.51,0,0,1,2.1,3.33Z"/><path class="cls-32" d="M412.22,255.56l-22.07-9.69,8-7.86a4.45,4.45,0,0,1,4.93-.91l6.89,3a4.43,4.43,0,0,1,2.67,4.24Zm-18.7-10.31,16.87,7.41.29-8.35a2.52,2.52,0,0,0-1.51-2.42l-6.89-3a2.54,2.54,0,0,0-2.81.51Z"/><path class="cls-32" d="M408.33,255.52l-15.71-6.9,6.48-7.56a3.11,3.11,0,0,1,3.57-1.12l5.25,2.31a3.1,3.1,0,0,1,1.59,3.38Zm-14.57-7.16,14,6.14,1.07-8.95a2.43,2.43,0,0,0-1.18-2.66l-5.25-2.31a2.43,2.43,0,0,0-2.76.93Z"/><rect class="cls-33" x="357.23" y="242.4" width="68.62" height="41.89" rx="9.04" transform="translate(138.92 -135.2) rotate(23.71)"/><path class="cls-34" d="M427.87,266l-1.3,3A9,9,0,0,0,421.92,257L375.64,236.7a9,9,0,0,0-11.91,4.64l1.31-3A9,9,0,0,1,377,233.72L423.23,254A9,9,0,0,1,427.87,266Z"/><path class="cls-7" d="M429.11,263.14l-.86,2c1.32-3,1-6.06-3.53-8.06l-51.57-22.65c-4.57-2-6.41.11-7.74,3.12l.87-2c1.32-3,6.1-3.84,10.67-1.83L423.23,254C427.8,256,430.43,260.12,429.11,263.14Z"/><polygon class="cls-35" points="366.75 274.95 365 274.15 381.61 236.49 383.36 237.3 366.75 274.95"/><circle class="cls-35" cx="393.86" cy="267.4" r="12.58"/><path class="cls-32" d="M410,294.12a9.94,9.94,0,0,1-4-.85L359.73,273a10,10,0,0,1-5.14-13.18l3.59-8.18a1,1,0,0,1,1.27-.49,1,1,0,0,1,.49,1.27l-3.59,8.18a8.08,8.08,0,0,0,4.15,10.64l46.28,20.32a8.08,8.08,0,0,0,10.64-4.15l4.39-10a1,1,0,1,1,1.76.78l-4.39,10a10,10,0,0,1-9.16,6Z"/><path class="cls-32" d="M424.49,274.62a1.09,1.09,0,0,1-.39-.08,1,1,0,0,1-.49-1.27l3.38-7.71a8.08,8.08,0,0,0-4.15-10.64L376.57,234.6a8.09,8.09,0,0,0-10.65,4.15l-4.43,10.09a1,1,0,0,1-1.27.5,1,1,0,0,1-.49-1.27l4.43-10.1a10,10,0,0,1,13.18-5.14l46.28,20.32a10,10,0,0,1,5.14,13.18l-3.39,7.72A1,1,0,0,1,424.49,274.62Z"/><path class="cls-32" d="M367.1,275.68a.75.75,0,0,1-.26-.05.66.66,0,0,1-.33-.85l11-24.94a.63.63,0,0,1,.84-.33.63.63,0,0,1,.33.84l-11,25A.65.65,0,0,1,367.1,275.68Z"/><path class="cls-32" d="M379.69,247.13a.63.63,0,0,1-.26,0,.64.64,0,0,1-.32-.85l4.27-9.69a.64.64,0,1,1,1.18.52l-4.28,9.69A.63.63,0,0,1,379.69,247.13Z"/><circle class="cls-7" cx="420.23" cy="261.14" r="2.89"/><path class="cls-32" d="M420.23,264.67a3.55,3.55,0,0,1-1.42-.3,3.53,3.53,0,1,1,4.65-1.82h0a3.52,3.52,0,0,1-3.23,2.11Zm0-5.78a2.25,2.25,0,0,0-2.06,1.34,2.25,2.25,0,0,0,4.12,1.81h0a2.24,2.24,0,0,0-1.16-3A2.17,2.17,0,0,0,420.23,258.89Zm2.65,3.41Z"/><path class="cls-32" d="M406.74,288.92a9.67,9.67,0,0,0,5,.59c.3-.07.17-.53-.13-.47a9.11,9.11,0,0,1-4.78-.58c-.29-.1-.42.36-.13.46Z"/><path class="cls-32" d="M409.83,288.48a11.91,11.91,0,0,0,3.37-.14c.3-.06.17-.53-.13-.46a11.34,11.34,0,0,1-3.24.12c-.31,0-.31.47,0,.48Z"/><path class="cls-32" d="M394.78,248.44a9.52,9.52,0,0,0-5,.89c-.27.15,0,.56.25.41a9.06,9.06,0,0,1,4.74-.82c.31,0,.31-.47,0-.48Z"/><path class="cls-32" d="M392,249.75a11.94,11.94,0,0,0-3.19,1.1c-.27.15,0,.57.25.42a11,11,0,0,1,3.06-1.06.24.24,0,0,0-.12-.46Z"/><path class="cls-32" d="M357.82,263a8.26,8.26,0,0,0,2.59,6.91c.23.21.57-.13.34-.34A7.78,7.78,0,0,1,358.3,263c0-.31-.45-.31-.48,0Z"/><path class="cls-32" d="M359.54,266.84a13,13,0,0,0,.78,1.29,3.28,3.28,0,0,0,1.25,1c.28.13.53-.29.25-.42a2.8,2.8,0,0,1-1.19-.93,13.07,13.07,0,0,1-.67-1.14c-.16-.26-.58,0-.42.24Z"/><ellipse class="cls-7" cx="376.02" cy="235.82" rx="0.95" ry="2.35" transform="translate(8.92 485.3) rotate(-66.29)"/><circle class="cls-7" cx="377.32" cy="238.49" r="0.43"/><circle class="cls-7" cx="374.16" cy="238.02" r="0.4"/><circle class="cls-7" cx="374.52" cy="236.2" r="0.7"/><circle class="cls-36" cx="395.16" cy="264.44" r="12.58"/><polygon class="cls-7" points="393.22 277.33 390.1 275.96 404.43 256.7 406.63 259.29 393.22 277.33"/><polygon class="cls-37" points="389.1 275.52 387.62 275.28 403.17 254.84 404.06 255.39 389.1 275.52"/><polygon class="cls-37" points="387.22 274.26 385.73 274.03 401.28 253.59 402.18 254.14 387.22 274.26"/><path class="cls-38" d="M395.18,276.46a12.26,12.26,0,0,1-1.9-.15,12,12,0,1,1,13.75-10h0a12,12,0,0,1-11.85,10.15Zm0-22.34a10.32,10.32,0,1,0,10.21,11.93h0a10.32,10.32,0,0,0-8.58-11.81A11.28,11.28,0,0,0,395.14,254.12Z"/><path class="cls-7" d="M386.27,263.63h0a.32.32,0,0,1-.27-.36,10.67,10.67,0,0,1,3.88-6.57,10.2,10.2,0,0,1,7.95-1.54.31.31,0,0,1,.27.36.33.33,0,0,1-.37.27,9.66,9.66,0,0,0-7.47,1.42,10.28,10.28,0,0,0-3.63,6.15A.31.31,0,0,1,386.27,263.63Z"/><path class="cls-32" d="M395.19,278.1a14.29,14.29,0,0,1-2.16-.17,13.58,13.58,0,1,1,2.16.17Zm-.06-25.39a11.74,11.74,0,1,0,11.61,13.56h0A11.74,11.74,0,0,0,397,252.85,12.94,12.94,0,0,0,395.13,252.71Z"/><path class="cls-39" d="M99.05,316.66c-6-.27-11.3-4.39-12.36-10.16-1.21-6.65,3.61-13,10.78-14.09,20.4-3.21,49.69-21.3,63.45-44.09a141,141,0,0,0,15.08-35c1.6-6.58,8.66-10.71,15.75-9.22s11.56,8,9.95,14.6a163.71,163.71,0,0,1-17.79,41.55c-17.59,29.14-53.79,51.8-82,56.24A14.22,14.22,0,0,1,99.05,316.66Z"/><path class="cls-40" d="M200.68,218a163.69,163.69,0,0,1-17.78,41.55c-17.6,29.13-53.8,51.79-82,56.24A12.78,12.78,0,0,1,98,316a13.34,13.34,0,0,1-10.83-6.17,13.73,13.73,0,0,0,5,1.16,14.21,14.21,0,0,0,2.84-.16c28.26-4.44,71.12-28.78,88.71-57.92,12.71-21,10.92-39,11.11-39.87a11.43,11.43,0,0,0-1.41-8.74C198.93,206.67,202.06,212.33,200.68,218Z"/><path class="cls-32" d="M99.64,317.64H99c-6.65-.3-12.29-5-13.41-11.08a12.58,12.58,0,0,1,2.16-9.61,14.46,14.46,0,0,1,9.55-5.79c19.32-3,48.77-20.57,62.66-43.57a139.87,139.87,0,0,0,15-34.72c1.73-7.12,9.39-11.64,17.07-10a14.39,14.39,0,0,1,9.21,6.27,12.45,12.45,0,0,1,1.6,9.7,165.39,165.39,0,0,1-17.92,41.87c-16.64,27.55-52.24,52-82.81,56.77A15.21,15.21,0,0,1,99.64,317.64Zm-.55-2.26a13.47,13.47,0,0,0,2.62-.16c30-4.72,64.91-28.67,81.24-55.7a163,163,0,0,0,17.67-41.27,10.25,10.25,0,0,0-1.33-7.94,12,12,0,0,0-7.76-5.26c-6.5-1.36-13,2.39-14.43,8.38a142,142,0,0,1-15.21,35.32c-14.23,23.55-44.42,41.5-64.24,44.62a12.22,12.22,0,0,0-8.06,4.88,10.36,10.36,0,0,0-1.79,7.9C88.74,311.24,93.48,315.13,99.09,315.38Z"/><ellipse class="cls-41" cx="89.69" cy="307.97" rx="15.23" ry="14.11"/><path class="cls-42" d="M91.41,321.64a1.13,1.13,0,0,1-.2-2.24,15.77,15.77,0,0,0,5.2-2.13,10.77,10.77,0,0,0,5.31-9,1.13,1.13,0,1,1,2.25.1c-.49,11.05-12.25,13.24-12.37,13.26Z"/><path class="cls-32" d="M89.7,322.92a16.57,16.57,0,0,1-12.06-5,14.18,14.18,0,0,1-4-10.75,14.54,14.54,0,0,1,5.46-10.39.84.84,0,1,1,1.07,1.3,12.89,12.89,0,0,0-4.85,9.2,12.52,12.52,0,0,0,3.52,9.48,15.28,15.28,0,0,0,20.35,1.21,12.81,12.81,0,0,0,4.84-9.16,12.54,12.54,0,0,0-3.52-9.51.85.85,0,1,1,1.22-1.17,14.23,14.23,0,0,1,4,10.79,14.46,14.46,0,0,1-5.47,10.36A16.73,16.73,0,0,1,89.7,322.92Z"/><path class="cls-39" d="M364.72,316.66c6-.27,11.3-4.39,12.36-10.16,1.21-6.65-3.61-13-10.79-14.09-20.39-3.21-49.68-21.3-63.45-44.09a140.6,140.6,0,0,1-15.07-35c-1.61-6.58-8.66-10.71-15.76-9.22s-11.56,8-9.95,14.6a163.74,163.74,0,0,0,17.8,41.55c17.59,29.14,53.79,51.8,82,56.24A14.32,14.32,0,0,0,364.72,316.66Z"/><path class="cls-40" d="M263.09,218a163.69,163.69,0,0,0,17.78,41.55c17.6,29.13,53.8,51.79,82,56.24a12.87,12.87,0,0,0,2.84.16,13.34,13.34,0,0,0,10.83-6.17,13.83,13.83,0,0,1-5,1.16,14.21,14.21,0,0,1-2.84-.16C340.49,306.35,297.59,282,280,252.87c-12.7-21-10.92-39-11.1-39.87a11.42,11.42,0,0,1,1.39-8.74C264.83,206.67,261.7,212.33,263.09,218Z"/><path class="cls-32" d="M364.12,317.64a15.21,15.21,0,0,1-2.43-.19c-30.57-4.81-66.17-29.22-82.81-56.77A165.65,165.65,0,0,1,261,218.84a12.51,12.51,0,0,1,1.6-9.73,14.36,14.36,0,0,1,9.21-6.27c7.67-1.61,15.34,2.9,17.08,10a139.75,139.75,0,0,0,14.95,34.69c13.89,23,43.34,40.52,62.66,43.57a14.46,14.46,0,0,1,9.55,5.79,12.58,12.58,0,0,1,2.16,9.61c-1.12,6.12-6.76,10.78-13.41,11.08h-.64Zm.59-1.14h0ZM274.92,204.77a13,13,0,0,0-2.69.28,12,12,0,0,0-7.76,5.26,10.25,10.25,0,0,0-1.32,8,162.92,162.92,0,0,0,17.66,41.24c16.33,27,51.25,51,81.23,55.7a13.62,13.62,0,0,0,2.63.16c5.6-.25,10.35-4.14,11.29-9.23a10.36,10.36,0,0,0-1.79-7.9,12.22,12.22,0,0,0-8.06-4.88c-19.82-3.12-50-21.07-64.24-44.62a141.88,141.88,0,0,1-15.2-35.29C285.41,208.28,280.43,204.77,274.92,204.77Z"/><ellipse class="cls-41" cx="374.07" cy="307.97" rx="15.23" ry="14.11"/><path class="cls-42" d="M372.36,321.64l-.2,0c-.12,0-11.87-2.21-12.36-13.26a1.13,1.13,0,0,1,1.07-1.18,1.11,1.11,0,0,1,1.18,1.08,10.76,10.76,0,0,0,5.3,9,16.13,16.13,0,0,0,5.2,2.13,1.15,1.15,0,0,1,.92,1.31A1.13,1.13,0,0,1,372.36,321.64Z"/><path class="cls-32" d="M374.07,322.92a16.76,16.76,0,0,1-10.58-3.68A14.48,14.48,0,0,1,358,308.88a14.22,14.22,0,0,1,4-10.79.85.85,0,0,1,1.23,1.17,12.59,12.59,0,0,0-3.53,9.51,12.8,12.8,0,0,0,4.85,9.16,15.25,15.25,0,0,0,20.34-1.21,12.52,12.52,0,0,0,3.53-9.51,12.8,12.8,0,0,0-4.85-9.16.85.85,0,1,1,1.06-1.32,14.54,14.54,0,0,1,5.48,10.37,14.22,14.22,0,0,1-4,10.78A16.6,16.6,0,0,1,374.07,322.92Z"/><path class="cls-32" d="M401.66,593H242.79a1.61,1.61,0,1,1,0-3.21H401.66a1.61,1.61,0,0,1,0,3.21Z"/><path class="cls-32" d="M208.78,593H49.91a1.61,1.61,0,0,1,0-3.21H208.78a1.61,1.61,0,1,1,0,3.21Z"/><path class="cls-30" d="M187.35,539.18h27.19c0-43.62,10-148.2,10.11-149.07l-27-3.14C197.23,390.58,187.35,494,187.35,539.18Z"/><path class="cls-43" d="M222.3,407.22H196.89s-8.39-17.47,25.64-10.66Z"/><path class="cls-30" d="M275.67,539.18H248.52c0-43.62-10-148.2-10.12-149.07l27-3.14C265.82,390.58,275.67,494,275.67,539.18Z"/><path class="cls-43" d="M275.28,514.4c-3-8.2-5.23-42.44-6.86-51a373.91,373.91,0,0,1-5.78-43.83,29.53,29.53,0,0,0-1.6-8.49,6.69,6.69,0,0,0-3.05-3.72c-1.83-.87-4-.33-6-.07a22.61,22.61,0,0,1-11.83-1.59c-.8-7.42-1.32-12-1.34-12.16l27-3.14C266.19,393.33,272.84,468.79,275.28,514.4Z"/><path class="cls-32" d="M275.67,540.47H248.52a1.29,1.29,0,0,1-1.29-1.29c0-43.26-10-148-10.11-148.92a1.3,1.3,0,0,1,1.13-1.43l27-3.14a1.3,1.3,0,0,1,1.43,1.12C267.18,391.08,277,493.9,277,539.18A1.29,1.29,0,0,1,275.67,540.47ZM249.8,537.9h24.59c-.17-43.6-8.87-137-10.16-149.51l-24.43,2.85C241,403.23,249.62,496,249.8,537.9Z"/><path class="cls-32" d="M214.53,540.47H187.35a1.28,1.28,0,0,1-1.28-1.29c0-45.36,9.78-147.85,10.33-152.37a1.29,1.29,0,0,1,1.42-1.12l27,3.14a1.29,1.29,0,0,1,1.13,1.42c-.1.93-10.11,105.39-10.11,148.93A1.29,1.29,0,0,1,214.53,540.47Zm-25.89-2.57h24.61c.18-41.6,8.86-134.69,10-146.66l-24.44-2.85C197.53,401,188.82,495.1,188.64,537.9Z"/><path class="cls-44" d="M196.35,563.65H203A20.1,20.1,0,0,1,223,583.74v.52a7,7,0,0,1-6.95,6.94H183.19a7,7,0,0,1-6.95-6.94v-.52a20.1,20.1,0,0,1,20.09-20.09Z"/><rect class="cls-41" x="193.31" y="541.68" width="16.31" height="22.59"/><rect class="cls-45" x="193.31" y="541.68" width="16.31" height="12.33"/><path class="cls-32" d="M209.63,565.43H193.31a1,1,0,0,1-1-1V541.88a1,1,0,0,1,1-1h16.32a1,1,0,0,1,1,1v22.59A1,1,0,0,1,209.63,565.43Zm-15.35-1.92h14.38V542.84H194.28Z"/><rect class="cls-46" x="180.7" y="526.86" width="40.8" height="21.43" rx="10.45"/><path class="cls-47" d="M221.34,538.07v.53a10.52,10.52,0,0,1-.23,2.17,10.45,10.45,0,0,0-10.22-8.31H191a10.48,10.48,0,0,0-10.23,8.3,10.58,10.58,0,0,1-.22-2.17v-.54A10.45,10.45,0,0,1,191,527.6h19.91a10.45,10.45,0,0,1,10.45,10.45Z"/><path class="cls-32" d="M211,549.27h-19.9a11.42,11.42,0,0,1-11.41-11.41v-.53a11.43,11.43,0,0,1,11.41-11.42H211a11.43,11.43,0,0,1,11.41,11.42v.53A11.42,11.42,0,0,1,211,549.27Zm-19.9-21.43a9.5,9.5,0,0,0-9.48,9.49v.53a9.5,9.5,0,0,0,9.48,9.49H211a9.5,9.5,0,0,0,9.49-9.49v-.53a9.5,9.5,0,0,0-9.49-9.49Z"/><path class="cls-32" d="M194.29,541.55H182.17a.64.64,0,0,1-.64-.64.64.64,0,0,1,.64-.64h12.12a.64.64,0,1,1,0,1.28Z"/><path class="cls-32" d="M220,534.33h-5.68a.64.64,0,0,1-.64-.64.64.64,0,0,1,.64-.64H220a.64.64,0,0,1,.64.64A.64.64,0,0,1,220,534.33Z"/><rect class="cls-48" x="176.41" y="583.19" width="45.87" height="1.28"/><path class="cls-49" d="M209.31,578.15A31.36,31.36,0,0,0,181,575h-.1c-3.85,0-5.4,13.07-5.4,9.24v-.52a20.11,20.11,0,0,1,20.09-20.09h6.6a20.1,20.1,0,0,1,20.09,20.09l-1-5.37C221.25,580.29,215.78,582.4,209.31,578.15Z"/><path class="cls-32" d="M216,591.88h-32.9a7.92,7.92,0,0,1-7.9-7.92v-.52a21.07,21.07,0,0,1,21.05-21.05h6.59a21.07,21.07,0,0,1,21,21.05V584A7.92,7.92,0,0,1,216,591.88Zm-19.87-27.56a19.15,19.15,0,0,0-19,19.12V584a6,6,0,0,0,6,6h32.88a6,6,0,0,0,6-6v-.51a19.15,19.15,0,0,0-19.13-19.13h-6.71Z"/><path class="cls-32" d="M222.26,582.83h-33a.64.64,0,0,1,0-1.28h33a.64.64,0,0,1,0,1.28Z"/><path class="cls-32" d="M184.87,582.83h-7.59a.64.64,0,0,1,0-1.28h7.59a.64.64,0,1,1,0,1.28Z"/><circle class="cls-32" cx="199.72" cy="540.84" r="2.36"/><rect class="cls-41" x="255.55" y="541.22" width="16.31" height="22.59"/><rect class="cls-45" x="255.55" y="541.22" width="16.31" height="12.33"/><path class="cls-32" d="M271.86,565H255.55a1,1,0,0,1-1-1V541.42a1,1,0,0,1,1-1h16.31a1,1,0,0,1,1,1V564A1,1,0,0,1,271.86,565Zm-15.35-1.93H270.9V542.39H256.51Z"/><rect class="cls-46" x="241.86" y="528.47" width="40.8" height="21.43" rx="10.45"/><path class="cls-47" d="M282.49,539.39v.54a9.87,9.87,0,0,1-.22,2.17A10.43,10.43,0,0,0,272,533.81H252.13a10.44,10.44,0,0,0-10.2,8.29,10.52,10.52,0,0,1-.23-2.17v-.54a10.46,10.46,0,0,1,10.45-10.45h19.91A10.43,10.43,0,0,1,282.49,539.39Z"/><path class="cls-32" d="M272.12,550.6h-19.9a11.43,11.43,0,0,1-11.42-11.41v-.53a11.43,11.43,0,0,1,11.42-11.42h19.9a11.43,11.43,0,0,1,11.41,11.42v.53A11.42,11.42,0,0,1,272.12,550.6Zm-19.9-21.43a9.5,9.5,0,0,0-9.49,9.49v.53a9.5,9.5,0,0,0,9.49,9.49h19.9a9.5,9.5,0,0,0,9.48-9.49v-.53a9.5,9.5,0,0,0-9.48-9.49Z"/><path class="cls-32" d="M255.45,542.88H243.33a.64.64,0,0,1,0-1.28h12.12a.64.64,0,0,1,.64.64A.64.64,0,0,1,255.45,542.88Z"/><path class="cls-32" d="M281.18,535.66H275.5a.64.64,0,0,1-.64-.64.64.64,0,0,1,.64-.64h5.68a.64.64,0,0,1,.64.64A.64.64,0,0,1,281.18,535.66Z"/><path class="cls-44" d="M260.71,563.2h6.61a20.08,20.08,0,0,1,20.09,20.09h0v.51a6.94,6.94,0,0,1-6.94,7H247.56a7,7,0,0,1-6.94-7v-.51a20.08,20.08,0,0,1,20.09-20.09Z"/><path class="cls-49" d="M274.44,577.69a31.41,31.41,0,0,0-28.31-3.16H246c-3.85,0-5.4,13.07-5.4,9.24v-.51a20.09,20.09,0,0,1,20.09-20.09h6.59a20.08,20.08,0,0,1,20.09,20.09h0l-1-5.38C286.39,579.83,280.91,581.92,274.44,577.69Z"/><path class="cls-32" d="M286.61,582.38H279a.65.65,0,0,1,0-1.29h7.58a.65.65,0,0,1,0,1.29Z"/><path class="cls-32" d="M274.63,582.38h-25.8a.65.65,0,1,1,0-1.29h25.8a.65.65,0,0,1,0,1.29Z"/><rect class="cls-48" x="240.54" y="582.74" width="45.87" height="1.28"/><circle class="cls-32" cx="274.17" cy="544.94" r="1.53"/><path class="cls-32" d="M280.29,591.41H247.41a7.9,7.9,0,0,1-7.9-7.9V583a21.07,21.07,0,0,1,21-21h6.6a21.08,21.08,0,0,1,21.05,21v.52A7.91,7.91,0,0,1,280.29,591.41Zm-19.74-27.54A19.15,19.15,0,0,0,241.43,583v.52a6,6,0,0,0,6,6h32.88a6,6,0,0,0,6-6V583a19.15,19.15,0,0,0-19.12-19.12Z"/><path class="cls-32" d="M276.64,555.28h-7.79a.65.65,0,1,1,0-1.29h7.79a.65.65,0,0,1,0,1.29Z"/><path class="cls-32" d="M274.84,559.16h-6a.65.65,0,1,1,0-1.29h6a.65.65,0,0,1,0,1.29Z"/><path class="cls-46" d="M180.62,302.11H272.4V377A20.48,20.48,0,0,1,252,397.52H201A20.47,20.47,0,0,1,180.62,377V302.11Z"/><path class="cls-47" d="M179.92,303.5h99.61v74.09a21.32,21.32,0,0,1-21.32,21.31h-57a21.32,21.32,0,0,1-21.32-21.31h0V303.5Z"/><path class="cls-30" d="M185.11,303.5h95.52V378a20.87,20.87,0,0,1-20.87,20.88H206A20.87,20.87,0,0,1,185.14,378V303.5Z"/><path class="cls-43" d="M232.87,387.46a10.31,10.31,0,0,1-12.57-10v-24.6h4.56v24.57a10.27,10.27,0,0,0,8,10Z"/><path class="cls-32" d="M259.31,400.19h-57a22.63,22.63,0,0,1-22.6-22.61V303.63a.62.62,0,0,1,0-.13,1.29,1.29,0,0,1,1.28-1.29h99.62a1.29,1.29,0,0,1,1.29,1.29v74.08A22.63,22.63,0,0,1,259.31,400.19Zm-77-95.41v72.8a20.05,20.05,0,0,0,20,20h57a20.06,20.06,0,0,0,20-20v-72.8Z"/><path class="cls-32" d="M230.34,388.32a10.93,10.93,0,0,1-10.94-10.89V352.84a.64.64,0,0,1,.64-.64.64.64,0,0,1,.64.64V377.4a9.63,9.63,0,0,0,9.63,9.63h0A9.65,9.65,0,0,0,240,377.4v-4.86a.65.65,0,1,1,1.29,0v4.86a10.93,10.93,0,0,1-10.92,10.92Z"/><path class="cls-32" d="M240.66,365.69a.65.65,0,0,1-.65-.64V352.84a.65.65,0,0,1,1.29,0v12.21A.64.64,0,0,1,240.66,365.69Z"/><path class="cls-32" d="M226.57,365.28H214.45a1,1,0,1,1,0-1.93h12.12a1,1,0,0,1,0,1.93Z"/><path class="cls-32" d="M226.57,370.24H214.45a1,1,0,1,1,0-1.93h12.12a1,1,0,0,1,0,1.93Z"/><ellipse class="cls-7" cx="192.64" cy="373.67" rx="1.45" ry="2.19"/><circle class="cls-7" cx="192.22" cy="379.12" r="1.03"/><ellipse class="cls-32" cx="269.56" cy="393.39" rx="2.28" ry="2.19"/><circle class="cls-32" cx="270.26" cy="387.34" r="1.23"/><circle class="cls-32" cx="273.33" cy="382.35" r="1.14"/><circle class="cls-32" cx="230.73" cy="382.38" r="0.76"/><circle class="cls-32" cx="229.27" cy="377.88" r="1.05"/><path class="cls-32" d="M281.49,371.32a16.39,16.39,0,0,1-16.38-16.38V352.7a1,1,0,0,1,1.92,0v2.24a14.48,14.48,0,0,0,14.46,14.46,1,1,0,1,1,0,1.92Z"/><path class="cls-32" d="M180.92,371.32a1,1,0,1,1,0-1.92,14.47,14.47,0,0,0,14.45-14.46V352.7a1,1,0,0,1,1.93,0v2.24A16.39,16.39,0,0,1,180.92,371.32Z"/><path class="cls-50" d="M196.37,457.52h-.08a.63.63,0,0,1-.56-.71c0-.08.91-8.13,1.81-18.35a.63.63,0,0,1,.69-.58.64.64,0,0,1,.59.69C197.92,448.8,197,456.87,197,457A.64.64,0,0,1,196.37,457.52Z"/><path class="cls-50" d="M199.46,455.26h-.07a.63.63,0,0,1-.57-.7c.2-2.12.51-5.35.82-8.91a.65.65,0,0,1,.7-.58.64.64,0,0,1,.58.69c-.31,3.57-.62,6.8-.83,8.93A.64.64,0,0,1,199.46,455.26Z"/><path class="cls-50" d="M205.58,516.86a15.94,15.94,0,0,1,1.28-4.2c.26-.56-.57-1-.83-.48a17.39,17.39,0,0,0-1.37,4.43c-.09.64.83.86.93.25Z"/><path class="cls-50" d="M207.32,518.62a15.11,15.11,0,0,1,.57-2.67.48.48,0,0,0-.93-.26,16.38,16.38,0,0,0-.6,2.93c-.07.64.89.61,1,0Z"/><path class="cls-50" d="M267.08,492.64l-.91-1.7c-.29-.54-1.13-.06-.83.48l.91,1.71C266.54,493.68,267.38,493.19,267.08,492.64Z"/><path class="cls-50" d="M265.68,488.65l1.1,1.71c.33.52,1.17,0,.83-.48l-1.1-1.73c-.34-.52-1.17,0-.83.48Z"/><path class="cls-50" d="M248.43,462.28q2.22-12.5,3.73-25.09c.07-.61-.89-.61-1,0q-1.5,12.48-3.7,24.84C247.39,462.63,248.32,462.89,248.43,462.28Z"/><path class="cls-50" d="M252.6,451.74q2.1-9.89,3.66-19.86c.1-.61-.82-.87-.92-.26q-1.58,10-3.67,19.87c-.13.61.8.86.93.25Z"/><path class="cls-50" d="M246,488.79a2.06,2.06,0,0,1-1.51.3c-.61-.12-.87.8-.26.93a3.09,3.09,0,0,0,2.26-.4c.53-.32,0-1.16-.49-.83Z"/><path class="cls-50" d="M247,489.19a6.75,6.75,0,0,1-2.57-2.35c-.33-.52-1.17,0-.83.48A7.76,7.76,0,0,0,246.5,490c.55.29,1-.54.49-.84Z"/><path class="cls-50" d="M268.31,408.23a9.47,9.47,0,0,0,2.83-1.65c.47-.41-.21-1.09-.68-.68a8.09,8.09,0,0,1-2.41,1.4C267.47,407.52,267.72,408.45,268.31,408.23Z"/><path class="cls-50" d="M267.75,408.5l1.87,1.29c.51.36,1-.48.49-.83l-1.88-1.28C267.72,407.32,267.24,408.15,267.75,408.5Z"/><path class="cls-50" d="M248.7,527.92l-1.52-2c-.37-.48-1.21,0-.84.49l1.52,2C248.23,528.9,249.07,528.41,248.7,527.92Z"/><path class="cls-50" d="M249.34,528.65a10.33,10.33,0,0,0-3.9-1.67c-.61-.12-.87.8-.26.93a9.78,9.78,0,0,1,3.68,1.57c.51.36,1-.48.48-.83Z"/><path class="cls-50" d="M256.5,562.18l-.19-.19a.49.49,0,0,0-.68,0,.49.49,0,0,0,0,.66l.18.19a.49.49,0,0,0,.69,0,.48.48,0,0,0,0-.68Z"/><path class="cls-50" d="M192.58,388.2l1.68,1.88c.41.47,1.09-.22.68-.68l-1.68-1.89C192.85,387.05,192.16,387.73,192.58,388.2Z"/><path class="cls-50" d="M194.57,387.87l3,2.09c.51.36,1-.48.48-.83l-3-2.08c-.5-.36-1,.47-.48.82Z"/><path class="cls-50" d="M190.64,335.84l2.26-2.25c.43-.44-.25-1.13-.68-.68L190,335.16C189.52,335.59,190.21,336.28,190.64,335.84Z"/><path class="cls-50" d="M193.16,336.64l4.16-2.64c.52-.33,0-1.16-.49-.83l-4.13,2.62c-.52.33,0,1.16.49.83Z"/><g class="cls-1"><path class="cls-2" d="M159.56,468.75h-.18a1,1,0,1,1,0-1.92h.18a1,1,0,0,1,0,1.92Z"/><path class="cls-2" d="M166.56,468.75H162.7a1,1,0,1,1,0-1.92h1.93v-9.68h-30v9.68h17.46a1,1,0,0,1,0,1.92H132.67V455.23h33.89Z"/><path class="cls-2" d="M156.75,468.75h-1.68a1,1,0,1,1,0-1.92h1.71a1,1,0,0,1,0,1.92Z"/><path class="cls-2" d="M140.7,492h-8V478.42h23.85a1,1,0,1,1,0,1.93H134.6V490h6.1a1,1,0,0,1,0,1.93Z"/><path class="cls-2" d="M147,492H143.5a1,1,0,0,1,0-1.93H147a1,1,0,0,1,0,1.93Z"/><path class="cls-2" d="M149.63,492h-.07a1,1,0,0,1,0-1.93h.07a1,1,0,1,1,0,1.93Z"/><path class="cls-2" d="M166.56,492H152.37a1,1,0,0,1,0-1.93h12.26v-9.67h-4.25a1,1,0,1,1,0-1.93h6.21Z"/><path class="cls-2" d="M150.32,480.35H116.43V466.86h33.89Zm-32-1.93h30v-9.64h-30Z"/></g><g class="cls-1"><path class="cls-2" d="M350.37,127.66h-.18a1,1,0,1,1,0-1.93h.18a1,1,0,1,1,0,1.93Z"/><path class="cls-2" d="M357.37,127.66h-3.86a1,1,0,0,1,0-1.93h1.93v-9.67h-30v9.67h17.46a1,1,0,0,1,0,1.93H323.48V114.13h33.89Z"/><path class="cls-2" d="M347.56,127.66h-1.68a1,1,0,1,1,0-1.93h1.71a1,1,0,0,1,0,1.93Z"/><path class="cls-2" d="M331.51,150.85h-8V137.32h23.85a1,1,0,1,1,0,1.93H325.41v9.67h6.1a1,1,0,0,1,0,1.93Z"/><path class="cls-2" d="M337.8,150.85h-3.49a1,1,0,0,1,0-1.93h3.48a1,1,0,0,1,0,1.93Z"/><path class="cls-2" d="M340.44,150.85h-.07a1,1,0,0,1,0-1.93h.07a1,1,0,1,1,0,1.93Z"/><path class="cls-2" d="M357.37,150.85H343.18a1,1,0,0,1,0-1.93h12.26v-9.67h-4.25a1,1,0,1,1,0-1.93h6.21Z"/><path class="cls-2" d="M341.13,139.25H307.24V125.76h33.89Zm-32-1.93h30v-9.63h-30Z"/></g><path class="cls-39" d="M222.49,188H238a43.53,43.53,0,0,1,43.52,43.52h0v121.8H179V231.47A43.53,43.53,0,0,1,222.49,188Z"/><path class="cls-40" d="M265.06,198.23c-1.06,1.56-2.34,3.21-2.18,5.09a10.22,10.22,0,0,0,1,2.87c1.8,4.49.79,9.8-1.89,13.84a25.31,25.31,0,0,1-11.28,8.83h-1V227.1a23.06,23.06,0,0,0,7.79-7.07c2.68-4,3.69-9.34,1.88-13.84a10,10,0,0,1-.95-2.87c-.16-1.87,1.11-3.52,2.17-5.09a24.19,24.19,0,0,0,2.16-3.85,40.31,40.31,0,0,1,3.26,2.41C265.69,197.26,265.4,197.75,265.06,198.23Z"/><path class="cls-7" d="M229.21,188a43.7,43.7,0,0,0-43.71,43.7V354.93h-6.66V231.72A43.68,43.68,0,0,1,222.49,188h6.72Z"/><path class="cls-32" d="M281.9,355.67a1.28,1.28,0,0,1-1.28-1.28V231.18a42.47,42.47,0,0,0-42.43-42.43H223.05a42.47,42.47,0,0,0-42.43,42.43V343.39a1.29,1.29,0,0,1-2.57,0V231.18a45,45,0,0,1,45-45h15.14a45.05,45.05,0,0,1,45,45V354.39A1.28,1.28,0,0,1,281.9,355.67Z"/><path class="cls-51" d="M177.8,350H285v8.69H175.52v-6.41A2.28,2.28,0,0,1,177.8,350Z"/><path class="cls-52" d="M178.38,350H220v5.71a1.44,1.44,0,0,1-1.44,1.44H179.81a1.44,1.44,0,0,1-1.43-1.44Z"/><path class="cls-52" d="M234.26,355.64H285v3.09H231.16A3.09,3.09,0,0,1,234.26,355.64Z"/><path class="cls-7" d="M179,349.4l85.31,1.24a3.75,3.75,0,0,1,3.4,3.42h0l-87.9.35Z"/><path class="cls-32" d="M283.66,360.12H178.22a3,3,0,0,1-3-3v-4.66a3,3,0,0,1,3-3,1,1,0,0,1,0,1.93,1,1,0,0,0-1.05,1.05v4.66a1.05,1.05,0,0,0,1.05,1.06H283.66a1.05,1.05,0,0,0,1-1.06v-4.66a1,1,0,0,0-1-1.05h-95.2a1,1,0,0,1,0-1.93h95.2a3,3,0,0,1,3,3v4.66A3,3,0,0,1,283.66,360.12Z"/><circle class="cls-7" cx="186.06" cy="353.72" r="0.2"/><circle class="cls-7" cx="184.92" cy="354.37" r="0.44"/><circle class="cls-7" cx="180.15" cy="354.19" r="0.67"/><polygon class="cls-39" points="245.43 343.92 246.47 357.26 280.63 355.21 280.54 343.2 260.16 349.42 245.43 343.92"/><circle class="cls-7" cx="180.42" cy="352.83" r="0.27"/><circle class="cls-7" cx="188.46" cy="352.83" r="0.69"/><ellipse class="cls-52" cx="232" cy="355.1" rx="0.96" ry="0.61" transform="translate(-124.73 125.62) rotate(-24.09)"/><circle class="cls-52" cx="234.12" cy="354.75" r="0.37"/><circle class="cls-52" cx="230.39" cy="356.66" r="0.36"/><circle class="cls-52" cx="235.58" cy="355.54" r="0.67"/><path class="cls-41" d="M246.45,181.21c-.12,7.07-7.86,12.7-14.92,12.57h0A12.85,12.85,0,0,1,219,180.73l.76-15.69v-.64l25.54.48"/><path class="cls-53" d="M245.92,170.92l-1.6,13.31a15,15,0,0,1-8.71-.69,70.65,70.65,0,0,0-15.34-4.89h-.11l.12-7.71a73.14,73.14,0,0,0,25.64,0Z"/><circle class="cls-54" cx="210.8" cy="165.2" r="0.68"/><circle class="cls-54" cx="205.55" cy="174.5" r="0.68"/><circle class="cls-54" cx="220.24" cy="168.48" r="0.9"/><ellipse class="cls-7" cx="210.22" cy="159.32" rx="2.72" ry="1.56" transform="translate(-7.15 308.73) rotate(-71.66)"/><circle class="cls-54" cx="215.15" cy="160.84" r="0.88"/><path class="cls-54" d="M212.48,161.72a.68.68,0,1,1-.68.68A.68.68,0,0,1,212.48,161.72Z"/><circle class="cls-54" cx="213.37" cy="156.14" r="0.9"/><path class="cls-32" d="M209.69,217.52c1.23,4.81,2.25,9.66,1.93,14.65a62,62,0,0,1-2.53,13c-2.13,7.7-4.6,15.38-3.85,23.48.11,1.22,2,1.24,1.93,0-.8-9,2.47-17.5,4.66-26.13,2.23-8.81,1.93-16.73-.28-25.52A1,1,0,0,0,209.69,217.52Z"/><path class="cls-32" d="M250,218c2,9.14,3.55,18,2.57,27.41-.79,7.7-1.8,15.67,2.5,22.57.64,1,2.32.08,1.66-1-4.78-7.71-2.47-16.65-1.92-25.05s-1.2-16.41-3-24.44c-.27-1.21-2.13-.7-1.86.51Z"/><path class="cls-39" d="M260,199.12c-1.05,1.56-2.33,3.21-2.17,5.09a10.09,10.09,0,0,0,1,2.87c1.81,4.49.8,9.81-1.88,13.84a25.42,25.42,0,0,1-11.28,8.83h-1V163.56h12.2C265.85,172.75,267.27,188.47,260,199.12Z"/><path class="cls-39" d="M204.73,199.12c1.06,1.56,2.34,3.21,2.18,5.09a10.11,10.11,0,0,1-1,2.87c-1.8,4.49-.79,9.81,1.89,13.84a25.2,25.2,0,0,0,11.31,8.84h1v-66.2H208C198.9,172.75,197.48,188.47,204.73,199.12Z"/><path class="cls-40" d="M264.79,178.75a53.78,53.78,0,0,1-6.09.34A55.4,55.4,0,0,1,245,177.36v-9.18a54.24,54.24,0,0,0,13.28-4.85A28.33,28.33,0,0,1,264.79,178.75Z"/><path class="cls-32" d="M255.52,164.19c8.28,8.72,9.9,22.81,3.48,33.07-1.28,2-3,4-2.87,6.57.17,3.13,2.11,5.59,1.82,8.93-.65,7.52-6.91,12.5-13.32,15.37-1.69.75-.22,3.25,1.47,2.49,6-2.69,11.56-7,13.81-13.41a16.25,16.25,0,0,0,.36-9.92c-.74-2.44-1.69-4.1-.08-6.63a44.59,44.59,0,0,0,2.61-4.29,30.77,30.77,0,0,0-5.24-34.23c-1.28-1.35-3.33.7-2,2.05Z"/><path class="cls-41" d="M181.26,88.19l6.27.12A14.85,14.85,0,0,1,202,103.42h0a14.78,14.78,0,0,1-15,14.52h0l-6.27-.13a14.84,14.84,0,0,1-14.53-15.11h0a14.77,14.77,0,0,1,15-14.51Z"/><path class="cls-32" d="M161.49,103.78h0a1.28,1.28,0,0,1-1.27-1.3,15.86,15.86,0,0,1,3.13-9.26,1.28,1.28,0,0,1,1.79-.27,1.29,1.29,0,0,1,.27,1.8,13.32,13.32,0,0,0-2.62,7.76A1.28,1.28,0,0,1,161.49,103.78Z"/><path class="cls-32" d="M182.55,119h-.28l-6.3-.13a16.06,16.06,0,0,1-14.74-10.39,1.28,1.28,0,1,1,2.4-.91,13.5,13.5,0,0,0,12.4,8.73l6.26.13h.08a13.55,13.55,0,0,0,.43-27.09l-6.26-.12a13.41,13.41,0,0,0-7,1.79,1.28,1.28,0,1,1-1.29-2.22,15.9,15.9,0,0,1,8.38-2.14l6.27.13a16.11,16.11,0,0,1-.31,32.21Z"/><path class="cls-55" d="M179.18,100.31l3.27.06a7.71,7.71,0,0,1,7.56,7.85h0a7.71,7.71,0,0,1-7.84,7.55l-3.26-.07a7.7,7.7,0,0,1-7.56-7.84v0h0A7.7,7.7,0,0,1,179.18,100.31Z"/><path class="cls-7" d="M171.52,97.42a5.5,5.5,0,0,1,2.74-3c1.08-.42.64-2.2-.49-1.77a7.24,7.24,0,0,0-3.85,3.86c-.46,1.07,1.11,2,1.58.92Z"/><ellipse class="cls-7" cx="169.43" cy="100.83" rx="1.46" ry="1.17" transform="matrix(0.15, -0.99, 0.99, 0.15, 44.93, 253.71)"/><path class="cls-41" d="M280.72,88.19l6.26.12a14.84,14.84,0,0,1,14.53,15.11h0a14.77,14.77,0,0,1-15,14.52h0l-6.26-.13a14.84,14.84,0,0,1-14.53-15.11h0a14.76,14.76,0,0,1,15-14.51Z"/><path class="cls-32" d="M286.75,119.05h-.28l-6.3-.13a16.1,16.1,0,0,1,.26-32.2h.31l6.27.13a16.1,16.1,0,0,1-.26,32.2Zm-6.32-29.76a13.53,13.53,0,0,0-.21,27.06l6.26.13A13.53,13.53,0,0,0,287,89.42l-6.27-.13h-.26Z"/><path class="cls-55" d="M283.38,100.31l3.26.06a7.71,7.71,0,0,1,7.57,7.85h0a7.72,7.72,0,0,1-7.84,7.55l-3.26-.07a7.7,7.7,0,0,1-7.56-7.84v0h0A7.69,7.69,0,0,1,283.38,100.31Z"/><path class="cls-7" d="M272.72,98.93a5.49,5.49,0,0,1,2.74-3c1.08-.43.61-2.2-.49-1.77A7.19,7.19,0,0,0,271.12,98c-.46,1.07,1.11,2,1.58.92Z"/><ellipse class="cls-7" cx="270.63" cy="102.32" rx="1.46" ry="1.17" transform="translate(129.88 355.1) rotate(-81.6)"/><path class="cls-41" d="M269.61,13.77c.64.56,1.21,1.14,1.8,1.72A54.87,54.87,0,0,1,287.52,54.4v61.53a55,55,0,1,1-110,1.19V54.4a54.89,54.89,0,0,1,17.9-40.63C213.67-2.91,251.27-2.81,269.61,13.77Z"/><path class="cls-7" d="M237.46,170.15c-1.41.1-2.83.16-4.27.16-30.38,0-58.27-24.24-55-55V53.75A54.85,54.85,0,0,1,196.1,13.13c1.74,1,1.36,2,3.32,2.95C190.16,25.92,183,39.19,183,53.75V115.3C183,144.25,205.29,169.2,237.46,170.15Z"/><circle class="cls-41" cx="263.67" cy="84.02" r="4.03"/><path class="cls-42" d="M267,20.19A54.71,54.71,0,0,1,279.1,54.65V116.2A55,55,0,0,1,228.45,171c1.44.12,2.89.18,4.36.18a55,55,0,0,0,55-55V54.65a54.86,54.86,0,0,0-16.11-38.9c-.59-.58-1.19-1.16-1.8-1.72a54.19,54.19,0,0,1-5.69,3c.26.27.5.55.74.83"/><path class="cls-56" d="M171,105.11a1,1,0,0,1-.74-1.57,12.71,12.71,0,0,1,7.33-4.43A1,1,0,1,1,178,101a10.84,10.84,0,0,0-6.23,3.77A1,1,0,0,1,171,105.11Z"/><path class="cls-56" d="M294.94,105.11a1,1,0,0,1-.74-.35A10.85,10.85,0,0,0,288,101a1,1,0,0,1-.75-1.13,1,1,0,0,1,1.13-.76,12.8,12.8,0,0,1,7.34,4.44,1,1,0,0,1-.14,1.35A.94.94,0,0,1,294.94,105.11Z"/><path class="cls-32" d="M233.93,126a1.31,1.31,0,0,1-1.21-.83,34.77,34.77,0,0,1-2.19-10.22v-8.59a1.29,1.29,0,0,1,2.57,0v8.47a32.13,32.13,0,0,0,2,9.43,1.28,1.28,0,0,1-.75,1.65A1.2,1.2,0,0,1,233.93,126Z"/><path class="cls-32" d="M182.19,139.27a1.29,1.29,0,0,1-1.16-.73,19.91,19.91,0,0,1-1.37-3.81,1.28,1.28,0,1,1,2.49-.62,17.79,17.79,0,0,0,1.2,3.32,1.29,1.29,0,0,1-.6,1.71A1.24,1.24,0,0,1,182.19,139.27Z"/><ellipse class="cls-42" cx="214.5" cy="98.94" rx="7.07" ry="8.95"/><ellipse class="cls-32" cx="214.18" cy="96.99" rx="6.98" ry="8.83"/><ellipse class="cls-7" cx="211.69" cy="93.78" rx="2.57" ry="2.81"/><ellipse class="cls-42" cx="251.25" cy="98.94" rx="7.07" ry="8.95"/><ellipse class="cls-32" cx="250.95" cy="96.99" rx="6.98" ry="8.83"/><ellipse class="cls-7" cx="248.45" cy="93.78" rx="2.57" ry="2.81"/><path class="cls-57" d="M212.45,125.7h36.67v8.42a18.33,18.33,0,0,1-18.33,18.33h0a18.33,18.33,0,0,1-18.33-18.33h0V125.7Z"/><ellipse class="cls-58" cx="230.78" cy="137.82" rx="11.18" ry="6.94"/><path class="cls-7" d="M246.47,134.58h-31a2.24,2.24,0,0,1-2.24-2.24h0v-7.48H248.7v7.48a2.23,2.23,0,0,1-2.23,2.24Z"/><path class="cls-59" d="M246.3,134.58H215.66a2.39,2.39,0,0,1-2.4-2.4v-1.13h35.45v1.13a2.39,2.39,0,0,1-2.4,2.4Z"/><path class="cls-56" d="M248.7,135.54H213.25a1,1,0,0,1,0-1.93H248.7a1,1,0,1,1,0,1.93Z"/><path class="cls-56" d="M231,152.75a19.64,19.64,0,0,1-19.62-19.62v-4.35a5.36,5.36,0,0,1,5.36-5.35h28.52a5.36,5.36,0,0,1,5.35,5.35v4.35A19.64,19.64,0,0,1,231,152.75ZM216.72,126a2.79,2.79,0,0,0-2.79,2.78v4.35a17,17,0,1,0,34.09,0v-4.35a2.79,2.79,0,0,0-2.78-2.78Z"/><path class="cls-32" d="M232.47,172.29A56.52,56.52,0,0,1,184,144.64a1.28,1.28,0,0,1,2.21-1.31,53.92,53.92,0,0,0,46.25,26.39h.07a53.74,53.74,0,0,0,53.67-53.79V54.39a53.9,53.9,0,0,0-15.74-38l-.11-.11c-.54-.55-1.05-1.06-1.62-1.56C260.19,7,247,2.59,232.45,2.57h-.08c-14.52,0-27.68,4.43-36.11,12.14a53.71,53.71,0,0,0-17.52,39.68v61.54a54.33,54.33,0,0,0,.87,9.7,1.28,1.28,0,1,1-2.53.45,56.59,56.59,0,0,1-.91-10.15V54.4a56.3,56.3,0,0,1,18.35-41.58c18.69-17.09,57-17.09,75.92,0,.62.54,1.19,1.11,1.74,1.66l.11.11a56.48,56.48,0,0,1,16.49,39.81v61.54a56.3,56.3,0,0,1-56.24,56.36Z"/><path class="cls-7" d="M244.55,187.91v161.5H219.8V188.2C223.32,190.89,233.33,196.84,244.55,187.91Z"/><path class="cls-32" d="M231.82,195c-.4,0-.79,0-1.19,0a18.82,18.82,0,0,1-12-6,1.28,1.28,0,1,1,1.95-1.67,16.52,16.52,0,0,0,10.28,5.07c4.31.3,8.69-1.45,13-5.2a1.28,1.28,0,1,1,1.69,1.93C241.06,193,236.45,195,231.82,195Z"/><path class="cls-39" d="M185.59,347.59l-.09,5.79a2,2,0,0,0,1.81,2.19h30.47a2.26,2.26,0,0,0,2-2.43v-6.33Z"/><path class="cls-32" d="M248.37,358.8h0a4.71,4.71,0,0,1-4.64-4.7V169.59a1.29,1.29,0,1,1,2.57,0V354.1a2.14,2.14,0,0,0,2.05,2.13l32-2.5.21-2.9a1.28,1.28,0,0,1,2.56.18l-.28,4a1.29,1.29,0,0,1-1.18,1.2l-33.23,2.59Z"/><rect class="cls-7" x="222.02" y="349.2" width="20.2" height="10.29" rx="2.63"/><rect class="cls-60" x="222.62" y="351.4" width="20.2" height="7.59" rx="2.26"/><path class="cls-32" d="M240.17,360H224.09a3.62,3.62,0,0,1-3.62-3.61v-4.57a3.62,3.62,0,0,1,3.62-3.61h16.08a3.61,3.61,0,0,1,3.61,3.61v4.57A3.61,3.61,0,0,1,240.17,360Zm-16.08-9.87a1.69,1.69,0,0,0-1.69,1.69v4.57a1.69,1.69,0,0,0,1.69,1.69h16.08a1.69,1.69,0,0,0,1.69-1.69v-4.57a1.69,1.69,0,0,0-1.69-1.69Z"/><path class="cls-32" d="M244.75,354.94h-7.82a.64.64,0,0,1-.64-.64.64.64,0,0,1,.64-.64h7.82a.64.64,0,0,1,.64.64A.64.64,0,0,1,244.75,354.94Z"/><circle class="cls-32" cx="234.05" cy="354.3" r="0.82"/><path class="cls-32" d="M250.29,220.46a11.81,11.81,0,0,0,5.44-6.36c.21-.59-.72-.84-.93-.26a10.75,10.75,0,0,1-5,5.78c-.54.3-.06,1.13.49.83Z"/><path class="cls-32" d="M251,217.35a9.14,9.14,0,0,0,3-4.79.48.48,0,0,0-.4-.55.5.5,0,0,0-.53.3,8.36,8.36,0,0,1-2.78,4.36c-.49.39.2,1.07.68.68Z"/><path class="cls-32" d="M276.77,345.4a11.8,11.8,0,0,0,.15-8.36c-.21-.59-1.08-.19-.88.39a10.81,10.81,0,0,1-.18,7.64.48.48,0,0,0,.9.33Z"/><path class="cls-32" d="M275.34,342.56a9.14,9.14,0,0,0-.71-5.62.49.49,0,0,0-.66-.18.49.49,0,0,0-.21.57,8.39,8.39,0,0,1,.62,5.13c-.12.61.84.7,1,.1Z"/><path class="cls-32" d="M204.71,180.45a22.26,22.26,0,0,1,3.1-10.5.48.48,0,0,0-.83-.48,23.22,23.22,0,0,0-3.21,11,.48.48,0,1,0,1,0Z"/><path class="cls-32" d="M207.12,176.26a12.19,12.19,0,0,1,1.35-4.19c.3-.54-.54-1-.83-.48a12.73,12.73,0,0,0-1.45,4.41c-.09.6.84.87.93.26Z"/><path class="cls-32" d="M211.21,220a19.57,19.57,0,0,0,5.17,4.6c.53.33,1-.51.49-.83a18.9,18.9,0,0,1-5-4.45C211.5,218.86,210.83,219.55,211.21,220Z"/><path class="cls-32" d="M258.15,225.88a16.63,16.63,0,0,0,5.11-14.27c-.08-.61-1-.61-1,0a15.7,15.7,0,0,1-4.83,13.59C257,225.63,257.7,226.31,258.15,225.88Z"/><ellipse class="cls-40" cx="257.81" cy="182.51" rx="2.61" ry="1.71"/><path class="cls-7" d="M208.57,209c1.07-3.15,2.34-5.68.72-8.83-.85-1.67-2.08-3.11-2.94-4.78a20.94,20.94,0,0,1-2.1-7c-.16-1.22-2-.7-1.85.52a22.48,22.48,0,0,0,3.09,8.82c.86,1.4,2.22,2.83,2.61,4.46.49,2.06-.75,4.36-1.39,6.26C206.31,209.66,208.18,210.17,208.57,209Z"/><path class="cls-32" d="M205.19,164.44c-7.42,9.68-8.44,23.76-1.93,34.23,1.11,1.79,2.78,3.39,2.35,5.78-.29,1.66-1.28,3.15-1.54,4.87a16.88,16.88,0,0,0,1.19,8.88c2.43,5.91,7.75,9.89,13.43,12.44,1.68.76,3.15-1.74,1.46-2.49-5.75-2.57-11.38-6.73-12.93-13.19-.87-3.66.2-6.31,1.18-9.74.69-2.41-.29-4.42-1.58-6.43-6.65-10.2-6.61-23.08.9-32.89,1.13-1.48-1.38-2.92-2.5-1.46Z"/><path class="cls-32" d="M191.68,75.27c3.77-2,9.77-2.15,14.25-1.45,3,.47,5.83,1.53,8.8,1.93S221,75.87,223,74a6.43,6.43,0,0,0,1.5-2.27,4.84,4.84,0,0,0,.47-2.34c-.21-2.29-2.67-4.07-5.13-4.85a18.69,18.69,0,0,0-10.17,0,41.89,41.89,0,0,0-9.1,3.92c-3.39,1.82-6.82,3.81-8.88,6.82"/><path class="cls-32" d="M272.55,75.27c-3.77-2-9.77-2.15-14.26-1.45-3,.47-5.83,1.53-8.8,1.93s-6.26.12-8.23-1.76a6.66,6.66,0,0,1-1.5-2.27,5,5,0,0,1-.46-2.37c.22-2.29,2.68-4.07,5.14-4.84a18.43,18.43,0,0,1,10.15,0,41.69,41.69,0,0,1,9.06,3.89c3.39,1.82,6.81,3.81,8.88,6.82"/><circle class="cls-42" cx="225.72" cy="28.42" r="1.85"/><circle class="cls-42" cx="232.18" cy="28.42" r="1.85"/><circle class="cls-42" cx="238.65" cy="28.42" r="1.85"/><circle class="cls-42" cx="225.72" cy="34.91" r="1.85"/><circle class="cls-42" cx="232.18" cy="34.91" r="1.85"/><circle class="cls-42" cx="238.65" cy="34.91" r="1.85"/><path class="cls-7" d="M268.05,117.39H265.9a1.59,1.59,0,0,1-1.56-1.29l-6.53-33.83a1.59,1.59,0,0,1,1.57-1.89h2.15a1.59,1.59,0,0,1,1.56,1.29l6.53,33.83A1.6,1.6,0,0,1,268.05,117.39Z"/><path class="cls-61" d="M259.38,116.39h0a1.61,1.61,0,0,1-1.57-1.29l-6.52-33.83a1.6,1.6,0,0,1,1.56-1.9h0a1.6,1.6,0,0,1,1.56,1.29l6.53,33.83A1.6,1.6,0,0,1,259.38,116.39Z"/><path class="cls-62" d="M236.46,80.2v25.59a13.12,13.12,0,0,0,13.12,13.12h14.07a13.13,13.13,0,0,0,13.12-13.12V80.2a1.59,1.59,0,0,0-1.59-1.59H238.05A1.59,1.59,0,0,0,236.46,80.2Zm35.27,26.4a8.36,8.36,0,0,1-8.36,8.36H250.88c-4.62,0-9.34-3.85-9.34-8.46L242,84.26a1.59,1.59,0,0,1,1.59-1.56h27a1.59,1.59,0,0,1,1.59,1.62Z"/><path class="cls-32" d="M263.36,115.87H250.1a10,10,0,0,1-9.79-10.14v-23a.94.94,0,0,1,1-.91h30.92a.92.92,0,0,1,.91.92v23A10,10,0,0,1,263.36,115.87ZM242.14,83.61v22.12a8.15,8.15,0,0,0,8,8.31h13.26a8.15,8.15,0,0,0,8-8.31V83.61Z"/><path class="cls-7" d="M211.48,117.39h-2.15a1.6,1.6,0,0,1-1.57-1.29l-6.52-33.83a1.59,1.59,0,0,1,1.56-1.89H205a1.59,1.59,0,0,1,1.56,1.29L213,115.5A1.59,1.59,0,0,1,211.48,117.39Z"/><path class="cls-61" d="M202.8,116.39h0a1.6,1.6,0,0,1-1.56-1.29l-6.53-33.83a1.6,1.6,0,0,1,1.56-1.9h0a1.61,1.61,0,0,1,1.57,1.29l6.52,33.83A1.6,1.6,0,0,1,202.8,116.39Z"/><path class="cls-62" d="M187.55,80.2v25.59a13.13,13.13,0,0,0,13.13,13.12h14.06a13.13,13.13,0,0,0,13.13-13.12V80.2a1.6,1.6,0,0,0-1.6-1.59H189.15A1.6,1.6,0,0,0,187.55,80.2Zm6.16,2.5h27a1.59,1.59,0,0,1,1.59,1.56l.44,22.24c0,4.61-4.72,8.46-9.33,8.46H201a8.35,8.35,0,0,1-8.35-8.36l-.48-22.28A1.59,1.59,0,0,1,193.71,82.7Z"/><path class="cls-32" d="M214.74,120.08H200.68a14.31,14.31,0,0,1-14.29-14.29V78.61a1.17,1.17,0,0,1,1.16-1.17h40.18A1.19,1.19,0,0,1,229,78.6h0v27.19A14.31,14.31,0,0,1,214.74,120.08Zm-26-40.3v26a12,12,0,0,0,12,12h14.06a12,12,0,0,0,12-12v-26Z"/><path class="cls-32" d="M214.23,115.87H201a10,10,0,0,1-9.79-10.14v-23a.92.92,0,0,1,.92-.92H223a.93.93,0,0,1,1,.91h0v23A10,10,0,0,1,214.23,115.87ZM193,83.61v22.12a8.14,8.14,0,0,0,8,8.31h13.27a8.14,8.14,0,0,0,8-8.31V83.61Z"/><path class="cls-32" d="M235.73,97.76h-7.31a1.17,1.17,0,1,1,0-2.34h7.31a1.17,1.17,0,1,1,0,2.34Z"/><rect class="cls-42" x="229.09" y="97.8" width="6.64" height="1.93"/><path class="cls-32" d="M187.07,89.75h-9.76a1.29,1.29,0,1,1,0-2.57h9.76a1.29,1.29,0,1,1,0,2.57Z"/><rect class="cls-62" x="276.07" y="88.92" width="10.47" height="3.25"/><path class="cls-32" d="M287.18,89.75h-9.77a1.29,1.29,0,0,1,0-2.57h9.77a1.29,1.29,0,0,1,0,2.57Z"/><path class="cls-32" d="M287.18,93.91h-9.77a1.29,1.29,0,0,1,0-2.57h9.77a1.29,1.29,0,0,1,0,2.57Z"/><path class="cls-32" d="M263.65,120.08H249.58a14.31,14.31,0,0,1-14.29-14.29V78.6a1.19,1.19,0,0,1,1.3-1.16h40.18a1.17,1.17,0,0,1,1.17,1.17v27.18A14.31,14.31,0,0,1,263.65,120.08Zm-26-40.3v26a12,12,0,0,0,12,12h14.07a12,12,0,0,0,12-12v-26Z"/><path class="cls-32" d="M217.32,356.22H181.16a3.43,3.43,0,0,1-3.43-3.5l.11-5.79a1.29,1.29,0,0,1,1.29-1.26h0a1.28,1.28,0,0,1,1.26,1.31l-.11,5.79a.82.82,0,0,0,.25.62.83.83,0,0,0,.61.26h36.16a1.16,1.16,0,0,0,1.15-1.15V169.59a1.29,1.29,0,1,1,2.57,0V352.5A3.73,3.73,0,0,1,217.32,356.22Z"/><circle class="cls-40" cx="252.77" cy="180.62" r="0.75"/><circle class="cls-40" cx="254.83" cy="185.69" r="0.75"/></g></g></svg>